solid CATIA STL
  facet normal -9.238800e-001 -3.826822e-001  0.000000e+000
    outer loop
      vertex -1.220000e+002 -6.100000e+001  0.000000e+000
      vertex -1.220000e+002 -6.100000e+001 -2.000000e+000
      vertex -1.217071e+002 -6.170711e+001  0.000000e+000
    endloop
  endfacet
  facet normal -9.238800e-001 -3.826822e-001  -0.000000e+000
    outer loop
      vertex -1.217071e+002 -6.170711e+001  0.000000e+000
      vertex -1.220000e+002 -6.100000e+001 -2.000000e+000
      vertex -1.217071e+002 -6.170711e+001 -2.000000e+000
    endloop
  endfacet
  facet normal -3.826822e-001 -9.238800e-001  0.000000e+000
    outer loop
      vertex -1.217071e+002 -6.170711e+001  0.000000e+000
      vertex -1.217071e+002 -6.170711e+001 -2.000000e+000
      vertex -1.210000e+002 -6.200000e+001  0.000000e+000
    endloop
  endfacet
  facet normal -3.826822e-001 -9.238800e-001  -0.000000e+000
    outer loop
      vertex -1.210000e+002 -6.200000e+001  0.000000e+000
      vertex -1.217071e+002 -6.170711e+001 -2.000000e+000
      vertex -1.210000e+002 -6.200000e+001 -2.000000e+000
    endloop
  endfacet
  facet normal  0.000000e+000  0.000000e+000 -1.000000e+000
    outer loop
      vertex -1.210000e+002 -6.100000e+001 -3.000000e+000
      vertex -1.210000e+002  6.100000e+001 -3.000000e+000
      vertex  1.210000e+002 -6.100000e+001 -3.000000e+000
    endloop
  endfacet
  facet normal  0.000000e+000  0.000000e+000 -1.000000e+000
    outer loop
      vertex  1.210000e+002 -6.100000e+001 -3.000000e+000
      vertex -1.210000e+002  6.100000e+001 -3.000000e+000
      vertex  1.210000e+002  6.100000e+001 -3.000000e+000
    endloop
  endfacet
  facet normal  0.000000e+000 -9.999999e-001  -0.000000e+000
    outer loop
      vertex  1.210000e+002 -6.200000e+001 -2.000000e+000
      vertex  1.210000e+002 -6.200000e+001  0.000000e+000
      vertex -1.210000e+002 -6.200000e+001 -2.000000e+000
    endloop
  endfacet
  facet normal  0.000000e+000 -9.999999e-001  0.000000e+000
    outer loop
      vertex -1.210000e+002 -6.200000e+001 -2.000000e+000
      vertex  1.210000e+002 -6.200000e+001  0.000000e+000
      vertex -1.210000e+002 -6.200000e+001  0.000000e+000
    endloop
  endfacet
  facet normal -9.999999e-001  0.000000e+000  0.000000e+000
    outer loop
      vertex -1.220000e+002 -6.100000e+001 -2.000000e+000
      vertex -1.220000e+002 -6.100000e+001  0.000000e+000
      vertex -1.220000e+002  6.100000e+001 -2.000000e+000
    endloop
  endfacet
  facet normal -9.999999e-001  0.000000e+000  0.000000e+000
    outer loop
      vertex -1.220000e+002  6.100000e+001 -2.000000e+000
      vertex -1.220000e+002 -6.100000e+001  0.000000e+000
      vertex -1.220000e+002  6.100000e+001  0.000000e+000
    endloop
  endfacet
  facet normal  3.826822e-001 -9.238800e-001  0.000000e+000
    outer loop
      vertex  1.210000e+002 -6.200000e+001  0.000000e+000
      vertex  1.210000e+002 -6.200000e+001 -2.000000e+000
      vertex  1.217071e+002 -6.170711e+001  0.000000e+000
    endloop
  endfacet
  facet normal  3.826822e-001 -9.238800e-001  0.000000e+000
    outer loop
      vertex  1.217071e+002 -6.170711e+001  0.000000e+000
      vertex  1.210000e+002 -6.200000e+001 -2.000000e+000
      vertex  1.217071e+002 -6.170711e+001 -2.000000e+000
    endloop
  endfacet
  facet normal  9.238800e-001 -3.826822e-001  0.000000e+000
    outer loop
      vertex  1.217071e+002 -6.170711e+001  0.000000e+000
      vertex  1.217071e+002 -6.170711e+001 -2.000000e+000
      vertex  1.220000e+002 -6.100000e+001  0.000000e+000
    endloop
  endfacet
  facet normal  9.238800e-001 -3.826822e-001  0.000000e+000
    outer loop
      vertex  1.220000e+002 -6.100000e+001  0.000000e+000
      vertex  1.217071e+002 -6.170711e+001 -2.000000e+000
      vertex  1.220000e+002 -6.100000e+001 -2.000000e+000
    endloop
  endfacet
  facet normal  9.999999e-001  0.000000e+000  0.000000e+000
    outer loop
      vertex  1.220000e+002  6.100000e+001 -2.000000e+000
      vertex  1.220000e+002  6.100000e+001  0.000000e+000
      vertex  1.220000e+002 -6.100000e+001 -2.000000e+000
    endloop
  endfacet
  facet normal  9.999999e-001  0.000000e+000  0.000000e+000
    outer loop
      vertex  1.220000e+002 -6.100000e+001 -2.000000e+000
      vertex  1.220000e+002  6.100000e+001  0.000000e+000
      vertex  1.220000e+002 -6.100000e+001  0.000000e+000
    endloop
  endfacet
  facet normal  9.238800e-001  3.826822e-001  -0.000000e+000
    outer loop
      vertex  1.220000e+002  6.100000e+001  0.000000e+000
      vertex  1.220000e+002  6.100000e+001 -2.000000e+000
      vertex  1.217071e+002  6.170711e+001  0.000000e+000
    endloop
  endfacet
  facet normal  9.238800e-001  3.826822e-001  0.000000e+000
    outer loop
      vertex  1.217071e+002  6.170711e+001  0.000000e+000
      vertex  1.220000e+002  6.100000e+001 -2.000000e+000
      vertex  1.217071e+002  6.170711e+001 -2.000000e+000
    endloop
  endfacet
  facet normal  3.826822e-001  9.238800e-001  -0.000000e+000
    outer loop
      vertex  1.217071e+002  6.170711e+001  0.000000e+000
      vertex  1.217071e+002  6.170711e+001 -2.000000e+000
      vertex  1.210000e+002  6.200000e+001  0.000000e+000
    endloop
  endfacet
  facet normal  3.826822e-001  9.238800e-001  0.000000e+000
    outer loop
      vertex  1.210000e+002  6.200000e+001  0.000000e+000
      vertex  1.217071e+002  6.170711e+001 -2.000000e+000
      vertex  1.210000e+002  6.200000e+001 -2.000000e+000
    endloop
  endfacet
  facet normal  0.000000e+000  9.999999e-001  0.000000e+000
    outer loop
      vertex -1.210000e+002  6.200000e+001 -2.000000e+000
      vertex -1.210000e+002  6.200000e+001  0.000000e+000
      vertex  1.210000e+002  6.200000e+001 -2.000000e+000
    endloop
  endfacet
  facet normal  0.000000e+000  9.999999e-001  -0.000000e+000
    outer loop
      vertex  1.210000e+002  6.200000e+001 -2.000000e+000
      vertex -1.210000e+002  6.200000e+001  0.000000e+000
      vertex  1.210000e+002  6.200000e+001  0.000000e+000
    endloop
  endfacet
  facet normal -3.826822e-001  9.238800e-001  0.000000e+000
    outer loop
      vertex -1.210000e+002  6.200000e+001  0.000000e+000
      vertex -1.210000e+002  6.200000e+001 -2.000000e+000
      vertex -1.217071e+002  6.170711e+001  0.000000e+000
    endloop
  endfacet
  facet normal -3.826822e-001  9.238800e-001  0.000000e+000
    outer loop
      vertex -1.217071e+002  6.170711e+001  0.000000e+000
      vertex -1.210000e+002  6.200000e+001 -2.000000e+000
      vertex -1.217071e+002  6.170711e+001 -2.000000e+000
    endloop
  endfacet
  facet normal -9.238800e-001  3.826822e-001  0.000000e+000
    outer loop
      vertex -1.217071e+002  6.170711e+001  0.000000e+000
      vertex -1.217071e+002  6.170711e+001 -2.000000e+000
      vertex -1.220000e+002  6.100000e+001  0.000000e+000
    endloop
  endfacet
  facet normal -9.238800e-001  3.826822e-001  0.000000e+000
    outer loop
      vertex -1.220000e+002  6.100000e+001  0.000000e+000
      vertex -1.217071e+002  6.170711e+001 -2.000000e+000
      vertex -1.220000e+002  6.100000e+001 -2.000000e+000
    endloop
  endfacet
  facet normal  3.779640e-001  1.565584e-001 -9.124871e-001
    outer loop
      vertex  1.210000e+002  6.100000e+001 -3.000000e+000
      vertex  1.215000e+002  6.150000e+001 -2.707107e+000
      vertex  1.217071e+002  6.100000e+001 -2.707107e+000
    endloop
  endfacet
  facet normal  1.565584e-001  3.779640e-001 -9.124871e-001
    outer loop
      vertex  1.210000e+002  6.100000e+001 -3.000000e+000
      vertex  1.210000e+002  6.170711e+001 -2.707107e+000
      vertex  1.215000e+002  6.150000e+001 -2.707107e+000
    endloop
  endfacet
  facet normal  3.574080e-001  8.628561e-001 -3.574058e-001
    outer loop
      vertex  1.210000e+002  6.170711e+001 -2.707107e+000
      vertex  1.210000e+002  6.200000e+001 -2.000000e+000
      vertex  1.215000e+002  6.150000e+001 -2.707107e+000
    endloop
  endfacet
  facet normal  3.574055e-001  8.628563e-001 -3.574077e-001
    outer loop
      vertex  1.215000e+002  6.150000e+001 -2.707107e+000
      vertex  1.210000e+002  6.200000e+001 -2.000000e+000
      vertex  1.217071e+002  6.170711e+001 -2.000000e+000
    endloop
  endfacet
  facet normal  8.628554e-001  3.574077e-001 -3.574080e-001
    outer loop
      vertex  1.215000e+002  6.150000e+001 -2.707107e+000
      vertex  1.217071e+002  6.170711e+001 -2.000000e+000
      vertex  1.217071e+002  6.100000e+001 -2.707107e+000
    endloop
  endfacet
  facet normal  8.628569e-001  3.574057e-001 -3.574060e-001
    outer loop
      vertex  1.217071e+002  6.100000e+001 -2.707107e+000
      vertex  1.217071e+002  6.170711e+001 -2.000000e+000
      vertex  1.220000e+002  6.100000e+001 -2.000000e+000
    endloop
  endfacet
  facet normal  9.238800e-001  0.000000e+000 -3.826826e-001
    outer loop
      vertex  1.220000e+002  6.100000e+001 -2.000000e+000
      vertex  1.220000e+002 -6.100000e+001 -2.000000e+000
      vertex  1.217071e+002  6.100000e+001 -2.707107e+000
    endloop
  endfacet
  facet normal  9.238800e-001  0.000000e+000 -3.826826e-001
    outer loop
      vertex  1.217071e+002  6.100000e+001 -2.707107e+000
      vertex  1.220000e+002 -6.100000e+001 -2.000000e+000
      vertex  1.217071e+002 -6.100000e+001 -2.707107e+000
    endloop
  endfacet
  facet normal  3.826830e-001  0.000000e+000 -9.238797e-001
    outer loop
      vertex  1.217071e+002  6.100000e+001 -2.707107e+000
      vertex  1.217071e+002 -6.100000e+001 -2.707107e+000
      vertex  1.210000e+002  6.100000e+001 -3.000000e+000
    endloop
  endfacet
  facet normal  3.826830e-001  0.000000e+000 -9.238797e-001
    outer loop
      vertex  1.210000e+002  6.100000e+001 -3.000000e+000
      vertex  1.217071e+002 -6.100000e+001 -2.707107e+000
      vertex  1.210000e+002 -6.100000e+001 -3.000000e+000
    endloop
  endfacet
  facet normal  1.565584e-001 -3.779640e-001 -9.124871e-001
    outer loop
      vertex  1.210000e+002 -6.100000e+001 -3.000000e+000
      vertex  1.215000e+002 -6.150000e+001 -2.707107e+000
      vertex  1.210000e+002 -6.170711e+001 -2.707107e+000
    endloop
  endfacet
  facet normal  3.779640e-001 -1.565584e-001 -9.124871e-001
    outer loop
      vertex  1.210000e+002 -6.100000e+001 -3.000000e+000
      vertex  1.217071e+002 -6.100000e+001 -2.707107e+000
      vertex  1.215000e+002 -6.150000e+001 -2.707107e+000
    endloop
  endfacet
  facet normal  8.628561e-001 -3.574080e-001 -3.574058e-001
    outer loop
      vertex  1.217071e+002 -6.100000e+001 -2.707107e+000
      vertex  1.220000e+002 -6.100000e+001 -2.000000e+000
      vertex  1.215000e+002 -6.150000e+001 -2.707107e+000
    endloop
  endfacet
  facet normal  8.628563e-001 -3.574055e-001 -3.574077e-001
    outer loop
      vertex  1.215000e+002 -6.150000e+001 -2.707107e+000
      vertex  1.220000e+002 -6.100000e+001 -2.000000e+000
      vertex  1.217071e+002 -6.170711e+001 -2.000000e+000
    endloop
  endfacet
  facet normal  3.574077e-001 -8.628554e-001 -3.574080e-001
    outer loop
      vertex  1.215000e+002 -6.150000e+001 -2.707107e+000
      vertex  1.217071e+002 -6.170711e+001 -2.000000e+000
      vertex  1.210000e+002 -6.170711e+001 -2.707107e+000
    endloop
  endfacet
  facet normal  3.574057e-001 -8.628569e-001 -3.574060e-001
    outer loop
      vertex  1.210000e+002 -6.170711e+001 -2.707107e+000
      vertex  1.217071e+002 -6.170711e+001 -2.000000e+000
      vertex  1.210000e+002 -6.200000e+001 -2.000000e+000
    endloop
  endfacet
  facet normal  0.000000e+000 -9.238799e-001 -3.826826e-001
    outer loop
      vertex  1.210000e+002 -6.200000e+001 -2.000000e+000
      vertex -1.210000e+002 -6.200000e+001 -2.000000e+000
      vertex  1.210000e+002 -6.170711e+001 -2.707107e+000
    endloop
  endfacet
  facet normal  -0.000000e+000 -9.238799e-001 -3.826826e-001
    outer loop
      vertex  1.210000e+002 -6.170711e+001 -2.707107e+000
      vertex -1.210000e+002 -6.200000e+001 -2.000000e+000
      vertex -1.210000e+002 -6.170711e+001 -2.707107e+000
    endloop
  endfacet
  facet normal  0.000000e+000 -3.826830e-001 -9.238797e-001
    outer loop
      vertex  1.210000e+002 -6.170711e+001 -2.707107e+000
      vertex -1.210000e+002 -6.170711e+001 -2.707107e+000
      vertex  1.210000e+002 -6.100000e+001 -3.000000e+000
    endloop
  endfacet
  facet normal  -0.000000e+000 -3.826830e-001 -9.238797e-001
    outer loop
      vertex  1.210000e+002 -6.100000e+001 -3.000000e+000
      vertex -1.210000e+002 -6.170711e+001 -2.707107e+000
      vertex -1.210000e+002 -6.100000e+001 -3.000000e+000
    endloop
  endfacet
  facet normal -3.779640e-001 -1.565584e-001 -9.124871e-001
    outer loop
      vertex -1.210000e+002 -6.100000e+001 -3.000000e+000
      vertex -1.215000e+002 -6.150000e+001 -2.707107e+000
      vertex -1.217071e+002 -6.100000e+001 -2.707107e+000
    endloop
  endfacet
  facet normal -1.565584e-001 -3.779640e-001 -9.124871e-001
    outer loop
      vertex -1.210000e+002 -6.100000e+001 -3.000000e+000
      vertex -1.210000e+002 -6.170711e+001 -2.707107e+000
      vertex -1.215000e+002 -6.150000e+001 -2.707107e+000
    endloop
  endfacet
  facet normal -3.574080e-001 -8.628561e-001 -3.574058e-001
    outer loop
      vertex -1.210000e+002 -6.170711e+001 -2.707107e+000
      vertex -1.210000e+002 -6.200000e+001 -2.000000e+000
      vertex -1.215000e+002 -6.150000e+001 -2.707107e+000
    endloop
  endfacet
  facet normal -3.574055e-001 -8.628563e-001 -3.574077e-001
    outer loop
      vertex -1.215000e+002 -6.150000e+001 -2.707107e+000
      vertex -1.210000e+002 -6.200000e+001 -2.000000e+000
      vertex -1.217071e+002 -6.170711e+001 -2.000000e+000
    endloop
  endfacet
  facet normal -8.628554e-001 -3.574077e-001 -3.574080e-001
    outer loop
      vertex -1.215000e+002 -6.150000e+001 -2.707107e+000
      vertex -1.217071e+002 -6.170711e+001 -2.000000e+000
      vertex -1.217071e+002 -6.100000e+001 -2.707107e+000
    endloop
  endfacet
  facet normal -8.628569e-001 -3.574057e-001 -3.574060e-001
    outer loop
      vertex -1.217071e+002 -6.100000e+001 -2.707107e+000
      vertex -1.217071e+002 -6.170711e+001 -2.000000e+000
      vertex -1.220000e+002 -6.100000e+001 -2.000000e+000
    endloop
  endfacet
  facet normal -9.238800e-001  -0.000000e+000 -3.826826e-001
    outer loop
      vertex -1.220000e+002 -6.100000e+001 -2.000000e+000
      vertex -1.220000e+002  6.100000e+001 -2.000000e+000
      vertex -1.217071e+002 -6.100000e+001 -2.707107e+000
    endloop
  endfacet
  facet normal -9.238800e-001  0.000000e+000 -3.826826e-001
    outer loop
      vertex -1.217071e+002 -6.100000e+001 -2.707107e+000
      vertex -1.220000e+002  6.100000e+001 -2.000000e+000
      vertex -1.217071e+002  6.100000e+001 -2.707107e+000
    endloop
  endfacet
  facet normal -3.826830e-001  -0.000000e+000 -9.238797e-001
    outer loop
      vertex -1.217071e+002 -6.100000e+001 -2.707107e+000
      vertex -1.217071e+002  6.100000e+001 -2.707107e+000
      vertex -1.210000e+002 -6.100000e+001 -3.000000e+000
    endloop
  endfacet
  facet normal -3.826830e-001  0.000000e+000 -9.238797e-001
    outer loop
      vertex -1.210000e+002 -6.100000e+001 -3.000000e+000
      vertex -1.217071e+002  6.100000e+001 -2.707107e+000
      vertex -1.210000e+002  6.100000e+001 -3.000000e+000
    endloop
  endfacet
  facet normal -1.565584e-001  3.779640e-001 -9.124871e-001
    outer loop
      vertex -1.210000e+002  6.100000e+001 -3.000000e+000
      vertex -1.215000e+002  6.150000e+001 -2.707107e+000
      vertex -1.210000e+002  6.170711e+001 -2.707107e+000
    endloop
  endfacet
  facet normal -3.779640e-001  1.565584e-001 -9.124871e-001
    outer loop
      vertex -1.210000e+002  6.100000e+001 -3.000000e+000
      vertex -1.217071e+002  6.100000e+001 -2.707107e+000
      vertex -1.215000e+002  6.150000e+001 -2.707107e+000
    endloop
  endfacet
  facet normal -8.628561e-001  3.574080e-001 -3.574058e-001
    outer loop
      vertex -1.217071e+002  6.100000e+001 -2.707107e+000
      vertex -1.220000e+002  6.100000e+001 -2.000000e+000
      vertex -1.215000e+002  6.150000e+001 -2.707107e+000
    endloop
  endfacet
  facet normal -8.628563e-001  3.574055e-001 -3.574077e-001
    outer loop
      vertex -1.215000e+002  6.150000e+001 -2.707107e+000
      vertex -1.220000e+002  6.100000e+001 -2.000000e+000
      vertex -1.217071e+002  6.170711e+001 -2.000000e+000
    endloop
  endfacet
  facet normal -3.574077e-001  8.628554e-001 -3.574080e-001
    outer loop
      vertex -1.215000e+002  6.150000e+001 -2.707107e+000
      vertex -1.217071e+002  6.170711e+001 -2.000000e+000
      vertex -1.210000e+002  6.170711e+001 -2.707107e+000
    endloop
  endfacet
  facet normal -3.574057e-001  8.628569e-001 -3.574060e-001
    outer loop
      vertex -1.210000e+002  6.170711e+001 -2.707107e+000
      vertex -1.217071e+002  6.170711e+001 -2.000000e+000
      vertex -1.210000e+002  6.200000e+001 -2.000000e+000
    endloop
  endfacet
  facet normal  0.000000e+000  9.238799e-001 -3.826826e-001
    outer loop
      vertex -1.210000e+002  6.200000e+001 -2.000000e+000
      vertex  1.210000e+002  6.200000e+001 -2.000000e+000
      vertex -1.210000e+002  6.170711e+001 -2.707107e+000
    endloop
  endfacet
  facet normal  0.000000e+000  9.238799e-001 -3.826826e-001
    outer loop
      vertex -1.210000e+002  6.170711e+001 -2.707107e+000
      vertex  1.210000e+002  6.200000e+001 -2.000000e+000
      vertex  1.210000e+002  6.170711e+001 -2.707107e+000
    endloop
  endfacet
  facet normal  0.000000e+000  3.826830e-001 -9.238797e-001
    outer loop
      vertex -1.210000e+002  6.170711e+001 -2.707107e+000
      vertex  1.210000e+002  6.170711e+001 -2.707107e+000
      vertex -1.210000e+002  6.100000e+001 -3.000000e+000
    endloop
  endfacet
  facet normal  0.000000e+000  3.826830e-001 -9.238797e-001
    outer loop
      vertex -1.210000e+002  6.100000e+001 -3.000000e+000
      vertex  1.210000e+002  6.170711e+001 -2.707107e+000
      vertex  1.210000e+002  6.100000e+001 -3.000000e+000
    endloop
  endfacet
  facet normal  0.000000e+000  0.000000e+000 -1.000000e+000
    outer loop
      vertex -1.210000e+002  6.200000e+001  0.000000e+000
      vertex -1.217071e+002  6.170711e+001  0.000000e+000
      vertex -1.250000e+002  6.400000e+001  0.000000e+000
    endloop
  endfacet
  facet normal  0.000000e+000  0.000000e+000 -1.000000e+000
    outer loop
      vertex -1.217071e+002  6.170711e+001  0.000000e+000
      vertex -1.220000e+002  6.100000e+001  0.000000e+000
      vertex -1.250000e+002  6.400000e+001  0.000000e+000
    endloop
  endfacet
  facet normal  0.000000e+000  0.000000e+000 -1.000000e+000
    outer loop
      vertex -1.250000e+002 -6.500000e+001  0.000000e+000
      vertex -1.250000e+002  6.400000e+001  0.000000e+000
      vertex -1.220000e+002  6.100000e+001  0.000000e+000
    endloop
  endfacet
  facet normal  0.000000e+000  -0.000000e+000 -1.000000e+000
    outer loop
      vertex -1.250000e+002 -6.500000e+001  0.000000e+000
      vertex -1.220000e+002  6.100000e+001  0.000000e+000
      vertex -1.220000e+002 -6.100000e+001  0.000000e+000
    endloop
  endfacet
  facet normal  0.000000e+000  -0.000000e+000 -1.000000e+000
    outer loop
      vertex -1.250000e+002 -6.500000e+001  0.000000e+000
      vertex -1.220000e+002 -6.100000e+001  0.000000e+000
      vertex -1.217071e+002 -6.170711e+001  0.000000e+000
    endloop
  endfacet
  facet normal  0.000000e+000  -0.000000e+000 -1.000000e+000
    outer loop
      vertex -1.250000e+002 -6.500000e+001  0.000000e+000
      vertex -1.217071e+002 -6.170711e+001  0.000000e+000
      vertex -1.210000e+002 -6.200000e+001  0.000000e+000
    endloop
  endfacet
  facet normal  0.000000e+000  0.000000e+000 -1.000000e+000
    outer loop
      vertex  1.250000e+002 -6.400000e+001  0.000000e+000
      vertex  1.210000e+002 -6.200000e+001  0.000000e+000
      vertex  1.217071e+002 -6.170711e+001  0.000000e+000
    endloop
  endfacet
  facet normal  0.000000e+000  0.000000e+000 -1.000000e+000
    outer loop
      vertex  1.250000e+002 -6.400000e+001  0.000000e+000
      vertex  1.217071e+002 -6.170711e+001  0.000000e+000
      vertex  1.220000e+002 -6.100000e+001  0.000000e+000
    endloop
  endfacet
  facet normal  0.000000e+000  0.000000e+000 -1.000000e+000
    outer loop
      vertex  1.250000e+002 -6.400000e+001  0.000000e+000
      vertex  1.220000e+002 -6.100000e+001  0.000000e+000
      vertex  1.220000e+002  6.100000e+001  0.000000e+000
    endloop
  endfacet
  facet normal  0.000000e+000  0.000000e+000 -1.000000e+000
    outer loop
      vertex  1.250000e+002  6.400000e+001  0.000000e+000
      vertex  1.250000e+002 -6.400000e+001  0.000000e+000
      vertex  1.220000e+002  6.100000e+001  0.000000e+000
    endloop
  endfacet
  facet normal  0.000000e+000  0.000000e+000 -1.000000e+000
    outer loop
      vertex  1.250000e+002  6.400000e+001  0.000000e+000
      vertex  1.220000e+002  6.100000e+001  0.000000e+000
      vertex  1.217071e+002  6.170711e+001  0.000000e+000
    endloop
  endfacet
  facet normal  0.000000e+000  0.000000e+000 -1.000000e+000
    outer loop
      vertex  1.250000e+002  6.400000e+001  0.000000e+000
      vertex  1.217071e+002  6.170711e+001  0.000000e+000
      vertex  1.210000e+002  6.200000e+001  0.000000e+000
    endloop
  endfacet
  facet normal  0.000000e+000  0.000000e+000 -9.999999e-001
    outer loop
      vertex  1.247071e+002 -6.470711e+001  0.000000e+000
      vertex  1.240000e+002 -6.500000e+001  0.000000e+000
      vertex  1.250000e+002 -6.400000e+001  0.000000e+000
    endloop
  endfacet
  facet normal  -0.000000e+000  0.000000e+000 -1.000000e+000
    outer loop
      vertex  1.250000e+002 -6.400000e+001  0.000000e+000
      vertex  1.240000e+002 -6.500000e+001  0.000000e+000
      vertex  1.210000e+002 -6.200000e+001  0.000000e+000
    endloop
  endfacet
  facet normal  0.000000e+000  0.000000e+000 -1.000000e+000
    outer loop
      vertex  1.240000e+002 -6.500000e+001  0.000000e+000
      vertex -1.250000e+002 -6.500000e+001  0.000000e+000
      vertex  1.210000e+002 -6.200000e+001  0.000000e+000
    endloop
  endfacet
  facet normal  -0.000000e+000  0.000000e+000 -1.000000e+000
    outer loop
      vertex  1.210000e+002 -6.200000e+001  0.000000e+000
      vertex -1.250000e+002 -6.500000e+001  0.000000e+000
      vertex -1.210000e+002 -6.200000e+001  0.000000e+000
    endloop
  endfacet
  facet normal  0.000000e+000  -0.000000e+000 -1.000000e+000
    outer loop
      vertex  1.210000e+002  6.200000e+001  0.000000e+000
      vertex  1.247071e+002  6.470711e+001  0.000000e+000
      vertex  1.250000e+002  6.400000e+001  0.000000e+000
    endloop
  endfacet
  facet normal  0.000000e+000  0.000000e+000 -1.000000e+000
    outer loop
      vertex  1.247071e+002  6.470711e+001  0.000000e+000
      vertex  1.210000e+002  6.200000e+001  0.000000e+000
      vertex  1.240000e+002  6.500000e+001  0.000000e+000
    endloop
  endfacet
  facet normal  0.000000e+000  0.000000e+000 -1.000000e+000
    outer loop
      vertex  1.240000e+002  6.500000e+001  0.000000e+000
      vertex  1.210000e+002  6.200000e+001  0.000000e+000
      vertex -1.210000e+002  6.200000e+001  0.000000e+000
    endloop
  endfacet
  facet normal  0.000000e+000  0.000000e+000 -1.000000e+000
    outer loop
      vertex  1.240000e+002  6.500000e+001  0.000000e+000
      vertex -1.210000e+002  6.200000e+001  0.000000e+000
      vertex -1.240000e+002  6.500000e+001  0.000000e+000
    endloop
  endfacet
  facet normal  0.000000e+000  -0.000000e+000 -1.000000e+000
    outer loop
      vertex -1.240000e+002  6.500000e+001  0.000000e+000
      vertex -1.210000e+002  6.200000e+001  0.000000e+000
      vertex -1.250000e+002  6.400000e+001  0.000000e+000
    endloop
  endfacet
  facet normal  0.000000e+000  0.000000e+000 -9.999999e-001
    outer loop
      vertex -1.240000e+002  6.500000e+001  0.000000e+000
      vertex -1.250000e+002  6.400000e+001  0.000000e+000
      vertex -1.247071e+002  6.470711e+001  0.000000e+000
    endloop
  endfacet
  facet normal  0.000000e+000 -3.826830e-001  9.238796e-001
    outer loop
      vertex  1.240000e+002 -6.400000e+001  3.000000e+000
      vertex -1.240000e+002 -6.400000e+001  3.000000e+000
      vertex  1.240000e+002 -6.470711e+001  2.707107e+000
    endloop
  endfacet
  facet normal  4.708855e-004 -2.372369e-001  9.714518e-001
    outer loop
      vertex  1.240000e+002 -6.470711e+001  2.707107e+000
      vertex -1.240000e+002 -6.400000e+001  3.000000e+000
      vertex -1.244601e+002 -6.446011e+001  2.887859e+000
    endloop
  endfacet
  facet normal -6.621432e-005 -6.330869e-001  7.740807e-001
    outer loop
      vertex  1.240000e+002 -6.470711e+001  2.707107e+000
      vertex -1.244601e+002 -6.446011e+001  2.887859e+000
      vertex -1.247790e+002 -6.477898e+001  2.627048e+000
    endloop
  endfacet
  facet normal  1.437465e-004 -9.238799e-001  3.826826e-001
    outer loop
      vertex  1.240000e+002 -6.470711e+001  2.707107e+000
      vertex -1.247790e+002 -6.477898e+001  2.627048e+000
      vertex  1.240000e+002 -6.500000e+001  2.000000e+000
    endloop
  endfacet
  facet normal  5.915673e-004 -8.461444e-001  5.329533e-001
    outer loop
      vertex  1.240000e+002 -6.500000e+001  2.000000e+000
      vertex -1.247790e+002 -6.477898e+001  2.627048e+000
      vertex -1.249018e+002 -6.490176e+001  2.432253e+000
    endloop
  endfacet
  facet normal  0.000000e+000 -9.751307e-001  2.216307e-001
    outer loop
      vertex  1.240000e+002 -6.500000e+001  2.000000e+000
      vertex -1.249018e+002 -6.490176e+001  2.432253e+000
      vertex -1.250000e+002 -6.500000e+001  2.000000e+000
    endloop
  endfacet
  facet normal  0.000000e+000  3.826830e-001  9.238796e-001
    outer loop
      vertex -1.240000e+002  6.400000e+001  3.000000e+000
      vertex  1.240000e+002  6.400000e+001  3.000000e+000
      vertex -1.240000e+002  6.470711e+001  2.707107e+000
    endloop
  endfacet
  facet normal  -0.000000e+000  3.826830e-001  9.238796e-001
    outer loop
      vertex -1.240000e+002  6.470711e+001  2.707107e+000
      vertex  1.240000e+002  6.400000e+001  3.000000e+000
      vertex  1.240000e+002  6.470711e+001  2.707107e+000
    endloop
  endfacet
  facet normal  0.000000e+000  9.238799e-001  3.826826e-001
    outer loop
      vertex -1.240000e+002  6.470711e+001  2.707107e+000
      vertex  1.240000e+002  6.470711e+001  2.707107e+000
      vertex -1.240000e+002  6.500000e+001  2.000000e+000
    endloop
  endfacet
  facet normal  -0.000000e+000  9.238799e-001  3.826826e-001
    outer loop
      vertex -1.240000e+002  6.500000e+001  2.000000e+000
      vertex  1.240000e+002  6.470711e+001  2.707107e+000
      vertex  1.240000e+002  6.500000e+001  2.000000e+000
    endloop
  endfacet
  facet normal  0.000000e+000  1.000000e+000  0.000000e+000
    outer loop
      vertex -1.240000e+002  6.500000e+001  2.000000e+000
      vertex  1.240000e+002  6.500000e+001  2.000000e+000
      vertex -1.240000e+002  6.500000e+001  0.000000e+000
    endloop
  endfacet
  facet normal  0.000000e+000  1.000000e+000  0.000000e+000
    outer loop
      vertex -1.240000e+002  6.500000e+001  0.000000e+000
      vertex  1.240000e+002  6.500000e+001  2.000000e+000
      vertex  1.240000e+002  6.500000e+001  0.000000e+000
    endloop
  endfacet
  facet normal  1.000000e+000  -0.000000e+000  0.000000e+000
    outer loop
      vertex  1.250000e+002  6.400000e+001  2.000000e+000
      vertex  1.250000e+002 -6.400000e+001  2.000000e+000
      vertex  1.250000e+002  6.400000e+001  0.000000e+000
    endloop
  endfacet
  facet normal  1.000000e+000  0.000000e+000  0.000000e+000
    outer loop
      vertex  1.250000e+002  6.400000e+001  0.000000e+000
      vertex  1.250000e+002 -6.400000e+001  2.000000e+000
      vertex  1.250000e+002 -6.400000e+001  0.000000e+000
    endloop
  endfacet
  facet normal  0.000000e+000  0.000000e+000  1.000000e+000
    outer loop
      vertex -1.240000e+002 -6.400000e+001  3.000000e+000
      vertex  1.240000e+002 -6.400000e+001  3.000000e+000
      vertex -1.240000e+002  6.400000e+001  3.000000e+000
    endloop
  endfacet
  facet normal  -0.000000e+000  0.000000e+000  1.000000e+000
    outer loop
      vertex -1.240000e+002  6.400000e+001  3.000000e+000
      vertex  1.240000e+002 -6.400000e+001  3.000000e+000
      vertex  1.240000e+002  6.400000e+001  3.000000e+000
    endloop
  endfacet
  facet normal  0.000000e+000 -9.999999e-001  0.000000e+000
    outer loop
      vertex  1.240000e+002 -6.500000e+001  2.000000e+000
      vertex -1.250000e+002 -6.500000e+001  2.000000e+000
      vertex  1.240000e+002 -6.500000e+001  0.000000e+000
    endloop
  endfacet
  facet normal  0.000000e+000 -9.999999e-001  0.000000e+000
    outer loop
      vertex  1.240000e+002 -6.500000e+001  0.000000e+000
      vertex -1.250000e+002 -6.500000e+001  2.000000e+000
      vertex -1.250000e+002 -6.500000e+001  0.000000e+000
    endloop
  endfacet
  facet normal  9.238800e-001 -3.826822e-001  0.000000e+000
    outer loop
      vertex  1.250000e+002 -6.400000e+001  0.000000e+000
      vertex  1.250000e+002 -6.400000e+001  2.000000e+000
      vertex  1.247071e+002 -6.470711e+001  0.000000e+000
    endloop
  endfacet
  facet normal  9.238800e-001 -3.826822e-001  0.000000e+000
    outer loop
      vertex  1.247071e+002 -6.470711e+001  0.000000e+000
      vertex  1.250000e+002 -6.400000e+001  2.000000e+000
      vertex  1.247071e+002 -6.470711e+001  2.000000e+000
    endloop
  endfacet
  facet normal  3.826822e-001 -9.238800e-001  0.000000e+000
    outer loop
      vertex  1.247071e+002 -6.470711e+001  0.000000e+000
      vertex  1.247071e+002 -6.470711e+001  2.000000e+000
      vertex  1.240000e+002 -6.500000e+001  0.000000e+000
    endloop
  endfacet
  facet normal  3.826822e-001 -9.238800e-001  0.000000e+000
    outer loop
      vertex  1.240000e+002 -6.500000e+001  0.000000e+000
      vertex  1.247071e+002 -6.470711e+001  2.000000e+000
      vertex  1.240000e+002 -6.500000e+001  2.000000e+000
    endloop
  endfacet
  facet normal  3.826822e-001  9.238800e-001  0.000000e+000
    outer loop
      vertex  1.240000e+002  6.500000e+001  0.000000e+000
      vertex  1.240000e+002  6.500000e+001  2.000000e+000
      vertex  1.247071e+002  6.470711e+001  0.000000e+000
    endloop
  endfacet
  facet normal  3.826822e-001  9.238800e-001  -0.000000e+000
    outer loop
      vertex  1.247071e+002  6.470711e+001  0.000000e+000
      vertex  1.240000e+002  6.500000e+001  2.000000e+000
      vertex  1.247071e+002  6.470711e+001  2.000000e+000
    endloop
  endfacet
  facet normal  9.238800e-001  3.826822e-001  0.000000e+000
    outer loop
      vertex  1.247071e+002  6.470711e+001  0.000000e+000
      vertex  1.247071e+002  6.470711e+001  2.000000e+000
      vertex  1.250000e+002  6.400000e+001  0.000000e+000
    endloop
  endfacet
  facet normal  9.238800e-001  3.826822e-001  -0.000000e+000
    outer loop
      vertex  1.250000e+002  6.400000e+001  0.000000e+000
      vertex  1.247071e+002  6.470711e+001  2.000000e+000
      vertex  1.250000e+002  6.400000e+001  2.000000e+000
    endloop
  endfacet
  facet normal  9.124873e-001  1.565577e-001  3.779636e-001
    outer loop
      vertex  1.250000e+002  6.400000e+001  2.000000e+000
      vertex  1.247071e+002  6.450000e+001  2.500000e+000
      vertex  1.247071e+002  6.400000e+001  2.707107e+000
    endloop
  endfacet
  facet normal  9.124874e-001  3.779633e-001  1.565581e-001
    outer loop
      vertex  1.250000e+002  6.400000e+001  2.000000e+000
      vertex  1.247071e+002  6.470711e+001  2.000000e+000
      vertex  1.247071e+002  6.450000e+001  2.500000e+000
    endloop
  endfacet
  facet normal  3.574054e-001  8.628561e-001  3.574080e-001
    outer loop
      vertex  1.247071e+002  6.470711e+001  2.000000e+000
      vertex  1.240000e+002  6.500000e+001  2.000000e+000
      vertex  1.247071e+002  6.450000e+001  2.500000e+000
    endloop
  endfacet
  facet normal  3.574071e-001  8.628564e-001  3.574059e-001
    outer loop
      vertex  1.247071e+002  6.450000e+001  2.500000e+000
      vertex  1.240000e+002  6.500000e+001  2.000000e+000
      vertex  1.240000e+002  6.470711e+001  2.707107e+000
    endloop
  endfacet
  facet normal  3.574068e-001  3.574068e-001  8.628561e-001
    outer loop
      vertex  1.247071e+002  6.450000e+001  2.500000e+000
      vertex  1.240000e+002  6.470711e+001  2.707107e+000
      vertex  1.247071e+002  6.400000e+001  2.707107e+000
    endloop
  endfacet
  facet normal  3.574064e-001  3.574064e-001  8.628565e-001
    outer loop
      vertex  1.247071e+002  6.400000e+001  2.707107e+000
      vertex  1.240000e+002  6.470711e+001  2.707107e+000
      vertex  1.240000e+002  6.400000e+001  3.000000e+000
    endloop
  endfacet
  facet normal  3.826830e-001  -0.000000e+000  9.238796e-001
    outer loop
      vertex  1.240000e+002  6.400000e+001  3.000000e+000
      vertex  1.240000e+002 -6.400000e+001  3.000000e+000
      vertex  1.247071e+002  6.400000e+001  2.707107e+000
    endloop
  endfacet
  facet normal  3.826830e-001  0.000000e+000  9.238796e-001
    outer loop
      vertex  1.247071e+002  6.400000e+001  2.707107e+000
      vertex  1.240000e+002 -6.400000e+001  3.000000e+000
      vertex  1.247071e+002 -6.400000e+001  2.707107e+000
    endloop
  endfacet
  facet normal  9.238799e-001  -0.000000e+000  3.826826e-001
    outer loop
      vertex  1.247071e+002  6.400000e+001  2.707107e+000
      vertex  1.247071e+002 -6.400000e+001  2.707107e+000
      vertex  1.250000e+002  6.400000e+001  2.000000e+000
    endloop
  endfacet
  facet normal  9.238799e-001  0.000000e+000  3.826826e-001
    outer loop
      vertex  1.250000e+002  6.400000e+001  2.000000e+000
      vertex  1.247071e+002 -6.400000e+001  2.707107e+000
      vertex  1.250000e+002 -6.400000e+001  2.000000e+000
    endloop
  endfacet
  facet normal  9.124874e-001 -3.779633e-001  1.565581e-001
    outer loop
      vertex  1.250000e+002 -6.400000e+001  2.000000e+000
      vertex  1.247071e+002 -6.450000e+001  2.500000e+000
      vertex  1.247071e+002 -6.470711e+001  2.000000e+000
    endloop
  endfacet
  facet normal  9.124873e-001 -1.565577e-001  3.779636e-001
    outer loop
      vertex  1.250000e+002 -6.400000e+001  2.000000e+000
      vertex  1.247071e+002 -6.400000e+001  2.707107e+000
      vertex  1.247071e+002 -6.450000e+001  2.500000e+000
    endloop
  endfacet
  facet normal  3.574063e-001 -3.574069e-001  8.628563e-001
    outer loop
      vertex  1.247071e+002 -6.400000e+001  2.707107e+000
      vertex  1.240000e+002 -6.400000e+001  3.000000e+000
      vertex  1.247071e+002 -6.450000e+001  2.500000e+000
    endloop
  endfacet
  facet normal  3.574067e-001 -3.574064e-001  8.628563e-001
    outer loop
      vertex  1.247071e+002 -6.450000e+001  2.500000e+000
      vertex  1.240000e+002 -6.400000e+001  3.000000e+000
      vertex  1.240000e+002 -6.470711e+001  2.707107e+000
    endloop
  endfacet
  facet normal  3.574074e-001 -8.628555e-001  3.574077e-001
    outer loop
      vertex  1.247071e+002 -6.450000e+001  2.500000e+000
      vertex  1.240000e+002 -6.470711e+001  2.707107e+000
      vertex  1.247071e+002 -6.470711e+001  2.000000e+000
    endloop
  endfacet
  facet normal  3.574057e-001 -8.628569e-001  3.574060e-001
    outer loop
      vertex  1.247071e+002 -6.470711e+001  2.000000e+000
      vertex  1.240000e+002 -6.470711e+001  2.707107e+000
      vertex  1.240000e+002 -6.500000e+001  2.000000e+000
    endloop
  endfacet
  facet normal -1.000000e+000  -0.000000e+000  0.000000e+000
    outer loop
      vertex -1.250000e+002 -6.500000e+001  2.000000e+000
      vertex -1.250000e+002  6.400000e+001  2.000000e+000
      vertex -1.250000e+002 -6.500000e+001  0.000000e+000
    endloop
  endfacet
  facet normal -1.000000e+000  0.000000e+000  0.000000e+000
    outer loop
      vertex -1.250000e+002 -6.500000e+001  0.000000e+000
      vertex -1.250000e+002  6.400000e+001  2.000000e+000
      vertex -1.250000e+002  6.400000e+001  0.000000e+000
    endloop
  endfacet
  facet normal -9.238800e-001  3.826822e-001  0.000000e+000
    outer loop
      vertex -1.250000e+002  6.400000e+001  0.000000e+000
      vertex -1.250000e+002  6.400000e+001  2.000000e+000
      vertex -1.247071e+002  6.470711e+001  0.000000e+000
    endloop
  endfacet
  facet normal -9.238800e-001  3.826822e-001  0.000000e+000
    outer loop
      vertex -1.247071e+002  6.470711e+001  0.000000e+000
      vertex -1.250000e+002  6.400000e+001  2.000000e+000
      vertex -1.247071e+002  6.470711e+001  2.000000e+000
    endloop
  endfacet
  facet normal -3.826822e-001  9.238800e-001  0.000000e+000
    outer loop
      vertex -1.247071e+002  6.470711e+001  0.000000e+000
      vertex -1.247071e+002  6.470711e+001  2.000000e+000
      vertex -1.240000e+002  6.500000e+001  0.000000e+000
    endloop
  endfacet
  facet normal -3.826822e-001  9.238800e-001  0.000000e+000
    outer loop
      vertex -1.240000e+002  6.500000e+001  0.000000e+000
      vertex -1.247071e+002  6.470711e+001  2.000000e+000
      vertex -1.240000e+002  6.500000e+001  2.000000e+000
    endloop
  endfacet
  facet normal -2.367924e-001  0.000000e+000  9.715602e-001
    outer loop
      vertex -1.240000e+002 -6.400000e+001  3.000000e+000
      vertex -1.240000e+002  6.400000e+001  3.000000e+000
      vertex -1.244601e+002 -6.446011e+001  2.887859e+000
    endloop
  endfacet
  facet normal -3.826830e-001  5.641685e-004  9.238795e-001
    outer loop
      vertex -1.244601e+002 -6.446011e+001  2.887859e+000
      vertex -1.240000e+002  6.400000e+001  3.000000e+000
      vertex -1.247071e+002  6.400000e+001  2.707107e+000
    endloop
  endfacet
  facet normal -6.330408e-001 -1.279264e-004  7.741184e-001
    outer loop
      vertex -1.244601e+002 -6.446011e+001  2.887859e+000
      vertex -1.247071e+002  6.400000e+001  2.707107e+000
      vertex -1.247790e+002 -6.477898e+001  2.627048e+000
    endloop
  endfacet
  facet normal -8.460314e-001  1.407667e-004  5.331331e-001
    outer loop
      vertex -1.247790e+002 -6.477898e+001  2.627048e+000
      vertex -1.247071e+002  6.400000e+001  2.707107e+000
      vertex -1.249018e+002 -6.490176e+001  2.432253e+000
    endloop
  endfacet
  facet normal -9.238798e-001  5.791243e-004  3.826826e-001
    outer loop
      vertex -1.249018e+002 -6.490176e+001  2.432253e+000
      vertex -1.247071e+002  6.400000e+001  2.707107e+000
      vertex -1.250000e+002  6.400000e+001  2.000000e+000
    endloop
  endfacet
  facet normal -9.751307e-001  0.000000e+000  2.216307e-001
    outer loop
      vertex -1.249018e+002 -6.490176e+001  2.432253e+000
      vertex -1.250000e+002  6.400000e+001  2.000000e+000
      vertex -1.250000e+002 -6.500000e+001  2.000000e+000
    endloop
  endfacet
  facet normal -9.124874e-001  3.779633e-001  1.565581e-001
    outer loop
      vertex -1.250000e+002  6.400000e+001  2.000000e+000
      vertex -1.247071e+002  6.450000e+001  2.500000e+000
      vertex -1.247071e+002  6.470711e+001  2.000000e+000
    endloop
  endfacet
  facet normal -9.124873e-001  1.565577e-001  3.779636e-001
    outer loop
      vertex -1.250000e+002  6.400000e+001  2.000000e+000
      vertex -1.247071e+002  6.400000e+001  2.707107e+000
      vertex -1.247071e+002  6.450000e+001  2.500000e+000
    endloop
  endfacet
  facet normal -3.574063e-001  3.574069e-001  8.628563e-001
    outer loop
      vertex -1.247071e+002  6.400000e+001  2.707107e+000
      vertex -1.240000e+002  6.400000e+001  3.000000e+000
      vertex -1.247071e+002  6.450000e+001  2.500000e+000
    endloop
  endfacet
  facet normal -3.574067e-001  3.574064e-001  8.628563e-001
    outer loop
      vertex -1.247071e+002  6.450000e+001  2.500000e+000
      vertex -1.240000e+002  6.400000e+001  3.000000e+000
      vertex -1.240000e+002  6.470711e+001  2.707107e+000
    endloop
  endfacet
  facet normal -3.574074e-001  8.628555e-001  3.574077e-001
    outer loop
      vertex -1.247071e+002  6.450000e+001  2.500000e+000
      vertex -1.240000e+002  6.470711e+001  2.707107e+000
      vertex -1.247071e+002  6.470711e+001  2.000000e+000
    endloop
  endfacet
  facet normal -3.574057e-001  8.628569e-001  3.574060e-001
    outer loop
      vertex -1.247071e+002  6.470711e+001  2.000000e+000
      vertex -1.240000e+002  6.470711e+001  2.707107e+000
      vertex -1.240000e+002  6.500000e+001  2.000000e+000
    endloop
  endfacet
endsolid CATIA STL
