solid CATIA STL
  facet normal -1.000000e+000  0.000000e+000  0.000000e+000
    outer loop
      vertex  2.900000e+001 -3.000000e+001  1.500000e+000
      vertex  2.900000e+001 -3.000000e+001  3.000000e+000
      vertex  2.900000e+001 -1.000000e+001  1.500000e+000
    endloop
  endfacet
  facet normal -9.999999e-001  0.000000e+000  0.000000e+000
    outer loop
      vertex  2.900000e+001 -4.300000e+001  3.000000e+000
      vertex  2.900000e+001 -4.300000e+001  7.845299e+000
      vertex  2.900000e+001 -3.000000e+001  3.000000e+000
    endloop
  endfacet
  facet normal -1.000000e+000  0.000000e+000  0.000000e+000
    outer loop
      vertex  2.900000e+001 -3.000000e+001  3.000000e+000
      vertex  2.900000e+001 -4.300000e+001  7.845299e+000
      vertex  2.900000e+001 -1.000000e+001  3.000000e+000
    endloop
  endfacet
  facet normal -1.000000e+000  -0.000000e+000  -0.000000e+000
    outer loop
      vertex  2.900000e+001 -3.000000e+001  3.000000e+000
      vertex  2.900000e+001 -1.000000e+001  3.000000e+000
      vertex  2.900000e+001 -1.000000e+001  1.500000e+000
    endloop
  endfacet
  facet normal -1.000000e+000  0.000000e+000  0.000000e+000
    outer loop
      vertex  2.900000e+001 -4.300000e+001  7.845299e+000
      vertex  2.900000e+001 -2.894882e+000  3.100000e+001
      vertex  2.900000e+001 -1.000000e+001  3.000000e+000
    endloop
  endfacet
  facet normal -1.000000e+000  0.000000e+000  0.000000e+000
    outer loop
      vertex  2.900000e+001 -1.000000e+001  3.000000e+000
      vertex  2.900000e+001 -2.894882e+000  3.100000e+001
      vertex  2.900000e+001  3.000000e+000  3.100000e+001
    endloop
  endfacet
  facet normal -1.000000e+000  0.000000e+000  -0.000000e+000
    outer loop
      vertex  2.900000e+001 -1.000000e+001  3.000000e+000
      vertex  2.900000e+001  3.000000e+000  3.100000e+001
      vertex  2.900000e+001  3.000000e+000  3.000000e+000
    endloop
  endfacet
  facet normal  1.000000e+000  0.000000e+000  0.000000e+000
    outer loop
      vertex  3.100000e+001 -3.000000e+001  3.000000e+000
      vertex  3.100000e+001 -3.000000e+001  1.500000e+000
      vertex  3.100000e+001 -1.000000e+001  1.500000e+000
    endloop
  endfacet
  facet normal  1.000000e+000  0.000000e+000  -0.000000e+000
    outer loop
      vertex  3.100000e+001 -3.000000e+001  3.000000e+000
      vertex  3.100000e+001 -1.000000e+001  1.500000e+000
      vertex  3.100000e+001 -1.000000e+001  3.000000e+000
    endloop
  endfacet
  facet normal  1.000000e+000  0.000000e+000  0.000000e+000
    outer loop
      vertex  3.100000e+001 -3.000000e+001  3.000000e+000
      vertex  3.100000e+001 -1.000000e+001  3.000000e+000
      vertex  3.100000e+001 -4.300000e+001  7.845299e+000
    endloop
  endfacet
  facet normal  9.999999e-001  0.000000e+000  0.000000e+000
    outer loop
      vertex  3.100000e+001 -3.000000e+001  3.000000e+000
      vertex  3.100000e+001 -4.300000e+001  7.845299e+000
      vertex  3.100000e+001 -4.300000e+001  3.000000e+000
    endloop
  endfacet
  facet normal  9.999999e-001  0.000000e+000  0.000000e+000
    outer loop
      vertex  3.100000e+001 -1.000000e+001  3.000000e+000
      vertex  3.100000e+001  3.000000e+000  3.000000e+000
      vertex  3.100000e+001 -4.300000e+001  7.845299e+000
    endloop
  endfacet
  facet normal  1.000000e+000  -0.000000e+000  0.000000e+000
    outer loop
      vertex  3.100000e+001 -4.300000e+001  7.845299e+000
      vertex  3.100000e+001  3.000000e+000  3.000000e+000
      vertex  3.100000e+001  3.000000e+000  3.100000e+001
    endloop
  endfacet
  facet normal  1.000000e+000  0.000000e+000  0.000000e+000
    outer loop
      vertex  3.100000e+001 -4.300000e+001  7.845299e+000
      vertex  3.100000e+001  3.000000e+000  3.100000e+001
      vertex  3.100000e+001 -2.894882e+000  3.100000e+001
    endloop
  endfacet
  facet normal  0.000000e+000  0.000000e+000 -1.000000e+000
    outer loop
      vertex  2.950000e+001 -2.950000e+001  1.000000e+000
      vertex  2.950000e+001 -1.050000e+001  1.000000e+000
      vertex  3.050000e+001 -2.950000e+001  1.000000e+000
    endloop
  endfacet
  facet normal  0.000000e+000  0.000000e+000 -1.000000e+000
    outer loop
      vertex  3.050000e+001 -2.950000e+001  1.000000e+000
      vertex  2.950000e+001 -1.050000e+001  1.000000e+000
      vertex  3.050000e+001 -1.050000e+001  1.000000e+000
    endloop
  endfacet
  facet normal  0.000000e+000 -1.000000e+000  -0.000000e+000
    outer loop
      vertex  3.100000e+001 -3.000000e+001  1.500000e+000
      vertex  3.100000e+001 -3.000000e+001  3.000000e+000
      vertex  2.900000e+001 -3.000000e+001  1.500000e+000
    endloop
  endfacet
  facet normal  0.000000e+000 -1.000000e+000  0.000000e+000
    outer loop
      vertex  2.900000e+001 -3.000000e+001  1.500000e+000
      vertex  3.100000e+001 -3.000000e+001  3.000000e+000
      vertex  2.900000e+001 -3.000000e+001  3.000000e+000
    endloop
  endfacet
  facet normal  0.000000e+000  1.000000e+000  0.000000e+000
    outer loop
      vertex  2.900000e+001 -1.000000e+001  1.500000e+000
      vertex  2.900000e+001 -1.000000e+001  3.000000e+000
      vertex  3.100000e+001 -1.000000e+001  1.500000e+000
    endloop
  endfacet
  facet normal  0.000000e+000  1.000000e+000  -0.000000e+000
    outer loop
      vertex  3.100000e+001 -1.000000e+001  1.500000e+000
      vertex  2.900000e+001 -1.000000e+001  3.000000e+000
      vertex  3.100000e+001 -1.000000e+001  3.000000e+000
    endloop
  endfacet
  facet normal -3.490521e-001  0.000000e+000 -9.371033e-001
    outer loop
      vertex  2.950000e+001 -1.050000e+001  1.000000e+000
      vertex  2.950000e+001 -2.950000e+001  1.000000e+000
      vertex  2.917291e+001 -1.017291e+001  1.121833e+000
    endloop
  endfacet
  facet normal -3.490468e-001  1.016202e-007 -9.371052e-001
    outer loop
      vertex  2.917291e+001 -1.017291e+001  1.121833e+000
      vertex  2.950000e+001 -2.950000e+001  1.000000e+000
      vertex  2.917291e+001 -2.982709e+001  1.121833e+000
    endloop
  endfacet
  facet normal -7.946518e-001  2.313520e-007 -6.070656e-001
    outer loop
      vertex  2.917291e+001 -1.017291e+001  1.121833e+000
      vertex  2.917291e+001 -2.982709e+001  1.121833e+000
      vertex  2.904912e+001 -1.004912e+001  1.283874e+000
    endloop
  endfacet
  facet normal -7.946654e-001  -0.000000e+000 -6.070477e-001
    outer loop
      vertex  2.904912e+001 -1.004912e+001  1.283874e+000
      vertex  2.917291e+001 -2.982709e+001  1.121833e+000
      vertex  2.904912e+001 -2.995088e+001  1.283874e+000
    endloop
  endfacet
  facet normal -9.751288e-001  0.000000e+000 -2.216389e-001
    outer loop
      vertex  2.904912e+001 -1.004912e+001  1.283874e+000
      vertex  2.904912e+001 -2.995088e+001  1.283874e+000
      vertex  2.900000e+001 -1.000000e+001  1.500000e+000
    endloop
  endfacet
  facet normal -9.751289e-001  -0.000000e+000 -2.216389e-001
    outer loop
      vertex  2.900000e+001 -1.000000e+001  1.500000e+000
      vertex  2.904912e+001 -2.995088e+001  1.283874e+000
      vertex  2.900000e+001 -3.000000e+001  1.500000e+000
    endloop
  endfacet
  facet normal  0.000000e+000  9.751288e-001 -2.216389e-001
    outer loop
      vertex  2.900000e+001 -1.000000e+001  1.500000e+000
      vertex  3.100000e+001 -1.000000e+001  1.500000e+000
      vertex  2.904912e+001 -1.004912e+001  1.283874e+000
    endloop
  endfacet
  facet normal  0.000000e+000  9.751288e-001 -2.216389e-001
    outer loop
      vertex  2.904912e+001 -1.004912e+001  1.283874e+000
      vertex  3.100000e+001 -1.000000e+001  1.500000e+000
      vertex  3.095088e+001 -1.004912e+001  1.283874e+000
    endloop
  endfacet
  facet normal  0.000000e+000  7.946655e-001 -6.070477e-001
    outer loop
      vertex  2.904912e+001 -1.004912e+001  1.283874e+000
      vertex  3.095088e+001 -1.004912e+001  1.283874e+000
      vertex  2.917291e+001 -1.017291e+001  1.121833e+000
    endloop
  endfacet
  facet normal  2.748811e-006  7.946509e-001 -6.070668e-001
    outer loop
      vertex  2.917291e+001 -1.017291e+001  1.121833e+000
      vertex  3.095088e+001 -1.004912e+001  1.283874e+000
      vertex  3.082709e+001 -1.017291e+001  1.121833e+000
    endloop
  endfacet
  facet normal  1.207406e-006  3.490477e-001 -9.371049e-001
    outer loop
      vertex  2.917291e+001 -1.017291e+001  1.121833e+000
      vertex  3.082709e+001 -1.017291e+001  1.121833e+000
      vertex  2.950000e+001 -1.050000e+001  1.000000e+000
    endloop
  endfacet
  facet normal  0.000000e+000  3.490521e-001 -9.371034e-001
    outer loop
      vertex  2.950000e+001 -1.050000e+001  1.000000e+000
      vertex  3.082709e+001 -1.017291e+001  1.121833e+000
      vertex  3.050000e+001 -1.050000e+001  1.000000e+000
    endloop
  endfacet
  facet normal  3.490521e-001  0.000000e+000 -9.371033e-001
    outer loop
      vertex  3.050000e+001 -2.950000e+001  1.000000e+000
      vertex  3.050000e+001 -1.050000e+001  1.000000e+000
      vertex  3.082709e+001 -2.982709e+001  1.121833e+000
    endloop
  endfacet
  facet normal  3.490468e-001 -1.016202e-007 -9.371052e-001
    outer loop
      vertex  3.082709e+001 -2.982709e+001  1.121833e+000
      vertex  3.050000e+001 -1.050000e+001  1.000000e+000
      vertex  3.082709e+001 -1.017291e+001  1.121833e+000
    endloop
  endfacet
  facet normal  7.946518e-001 -2.313520e-007 -6.070656e-001
    outer loop
      vertex  3.082709e+001 -2.982709e+001  1.121833e+000
      vertex  3.082709e+001 -1.017291e+001  1.121833e+000
      vertex  3.095088e+001 -2.995088e+001  1.283874e+000
    endloop
  endfacet
  facet normal  7.946654e-001  0.000000e+000 -6.070477e-001
    outer loop
      vertex  3.095088e+001 -2.995088e+001  1.283874e+000
      vertex  3.082709e+001 -1.017291e+001  1.121833e+000
      vertex  3.095088e+001 -1.004912e+001  1.283874e+000
    endloop
  endfacet
  facet normal  9.751288e-001  0.000000e+000 -2.216389e-001
    outer loop
      vertex  3.095088e+001 -2.995088e+001  1.283874e+000
      vertex  3.095088e+001 -1.004912e+001  1.283874e+000
      vertex  3.100000e+001 -3.000000e+001  1.500000e+000
    endloop
  endfacet
  facet normal  9.751289e-001  0.000000e+000 -2.216389e-001
    outer loop
      vertex  3.100000e+001 -3.000000e+001  1.500000e+000
      vertex  3.095088e+001 -1.004912e+001  1.283874e+000
      vertex  3.100000e+001 -1.000000e+001  1.500000e+000
    endloop
  endfacet
  facet normal  0.000000e+000 -9.751288e-001 -2.216389e-001
    outer loop
      vertex  3.100000e+001 -3.000000e+001  1.500000e+000
      vertex  2.900000e+001 -3.000000e+001  1.500000e+000
      vertex  3.095088e+001 -2.995088e+001  1.283874e+000
    endloop
  endfacet
  facet normal  -0.000000e+000 -9.751288e-001 -2.216389e-001
    outer loop
      vertex  3.095088e+001 -2.995088e+001  1.283874e+000
      vertex  2.900000e+001 -3.000000e+001  1.500000e+000
      vertex  2.904912e+001 -2.995088e+001  1.283874e+000
    endloop
  endfacet
  facet normal  0.000000e+000 -7.946655e-001 -6.070477e-001
    outer loop
      vertex  3.095088e+001 -2.995088e+001  1.283874e+000
      vertex  2.904912e+001 -2.995088e+001  1.283874e+000
      vertex  3.082709e+001 -2.982709e+001  1.121833e+000
    endloop
  endfacet
  facet normal -2.748811e-006 -7.946509e-001 -6.070668e-001
    outer loop
      vertex  3.082709e+001 -2.982709e+001  1.121833e+000
      vertex  2.904912e+001 -2.995088e+001  1.283874e+000
      vertex  2.917291e+001 -2.982709e+001  1.121833e+000
    endloop
  endfacet
  facet normal -1.207406e-006 -3.490477e-001 -9.371049e-001
    outer loop
      vertex  3.082709e+001 -2.982709e+001  1.121833e+000
      vertex  2.917291e+001 -2.982709e+001  1.121833e+000
      vertex  3.050000e+001 -2.950000e+001  1.000000e+000
    endloop
  endfacet
  facet normal  -0.000000e+000 -3.490521e-001 -9.371034e-001
    outer loop
      vertex  3.050000e+001 -2.950000e+001  1.000000e+000
      vertex  2.917291e+001 -2.982709e+001  1.121833e+000
      vertex  2.950000e+001 -2.950000e+001  1.000000e+000
    endloop
  endfacet
  facet normal -9.999999e-001  0.000000e+000  0.000000e+000
    outer loop
      vertex  1.170000e+002 -3.000000e+001  3.000000e+000
      vertex  1.170000e+002 -4.300000e+001  3.000000e+000
      vertex  1.170000e+002 -4.300000e+001  7.845299e+000
    endloop
  endfacet
  facet normal -1.000000e+000  0.000000e+000  0.000000e+000
    outer loop
      vertex  1.170000e+002 -3.000000e+001  3.000000e+000
      vertex  1.170000e+002 -4.300000e+001  7.845299e+000
      vertex  1.170000e+002 -1.000000e+001  3.000000e+000
    endloop
  endfacet
  facet normal -1.000000e+000  -0.000000e+000  -0.000000e+000
    outer loop
      vertex  1.170000e+002 -3.000000e+001  3.000000e+000
      vertex  1.170000e+002 -1.000000e+001  3.000000e+000
      vertex  1.170000e+002 -1.000000e+001  1.500000e+000
    endloop
  endfacet
  facet normal -1.000000e+000  0.000000e+000  0.000000e+000
    outer loop
      vertex  1.170000e+002 -3.000000e+001  3.000000e+000
      vertex  1.170000e+002 -1.000000e+001  1.500000e+000
      vertex  1.170000e+002 -3.000000e+001  1.500000e+000
    endloop
  endfacet
  facet normal -1.000000e+000  -0.000000e+000  0.000000e+000
    outer loop
      vertex  1.170000e+002 -2.894882e+000  3.100000e+001
      vertex  1.170000e+002  3.000000e+000  3.100000e+001
      vertex  1.170000e+002 -4.300000e+001  7.845299e+000
    endloop
  endfacet
  facet normal -1.000000e+000  0.000000e+000  0.000000e+000
    outer loop
      vertex  1.170000e+002 -4.300000e+001  7.845299e+000
      vertex  1.170000e+002  3.000000e+000  3.100000e+001
      vertex  1.170000e+002  3.000000e+000  3.000000e+000
    endloop
  endfacet
  facet normal -9.999999e-001  0.000000e+000  0.000000e+000
    outer loop
      vertex  1.170000e+002 -4.300000e+001  7.845299e+000
      vertex  1.170000e+002  3.000000e+000  3.000000e+000
      vertex  1.170000e+002 -1.000000e+001  3.000000e+000
    endloop
  endfacet
  facet normal  1.000000e+000  0.000000e+000  0.000000e+000
    outer loop
      vertex  1.190000e+002 -1.000000e+001  1.500000e+000
      vertex  1.190000e+002 -1.000000e+001  3.000000e+000
      vertex  1.190000e+002 -3.000000e+001  1.500000e+000
    endloop
  endfacet
  facet normal  1.000000e+000  0.000000e+000  0.000000e+000
    outer loop
      vertex  1.190000e+002 -3.000000e+001  1.500000e+000
      vertex  1.190000e+002 -1.000000e+001  3.000000e+000
      vertex  1.190000e+002 -2.894882e+000  3.100000e+001
    endloop
  endfacet
  facet normal  1.000000e+000  0.000000e+000  0.000000e+000
    outer loop
      vertex  1.190000e+002 -3.000000e+001  1.500000e+000
      vertex  1.190000e+002 -2.894882e+000  3.100000e+001
      vertex  1.190000e+002 -3.000000e+001  3.000000e+000
    endloop
  endfacet
  facet normal  1.000000e+000  0.000000e+000  -0.000000e+000
    outer loop
      vertex  1.190000e+002 -3.000000e+001  3.000000e+000
      vertex  1.190000e+002 -2.894882e+000  3.100000e+001
      vertex  1.190000e+002 -4.300000e+001  7.845299e+000
    endloop
  endfacet
  facet normal  9.999999e-001  0.000000e+000  0.000000e+000
    outer loop
      vertex  1.190000e+002 -3.000000e+001  3.000000e+000
      vertex  1.190000e+002 -4.300000e+001  7.845299e+000
      vertex  1.190000e+002 -4.300000e+001  3.000000e+000
    endloop
  endfacet
  facet normal  1.000000e+000  0.000000e+000  0.000000e+000
    outer loop
      vertex  1.190000e+002 -2.894882e+000  3.100000e+001
      vertex  1.190000e+002 -1.000000e+001  3.000000e+000
      vertex  1.190000e+002  3.000000e+000  3.100000e+001
    endloop
  endfacet
  facet normal  1.000000e+000  0.000000e+000  0.000000e+000
    outer loop
      vertex  1.190000e+002  3.000000e+000  3.100000e+001
      vertex  1.190000e+002 -1.000000e+001  3.000000e+000
      vertex  1.190000e+002  3.000000e+000  3.000000e+000
    endloop
  endfacet
  facet normal  0.000000e+000  0.000000e+000 -1.000000e+000
    outer loop
      vertex  1.175000e+002 -2.950000e+001  1.000000e+000
      vertex  1.175000e+002 -1.050000e+001  1.000000e+000
      vertex  1.185000e+002 -2.950000e+001  1.000000e+000
    endloop
  endfacet
  facet normal  0.000000e+000  0.000000e+000 -1.000000e+000
    outer loop
      vertex  1.185000e+002 -2.950000e+001  1.000000e+000
      vertex  1.175000e+002 -1.050000e+001  1.000000e+000
      vertex  1.185000e+002 -1.050000e+001  1.000000e+000
    endloop
  endfacet
  facet normal  0.000000e+000 -1.000000e+000  -0.000000e+000
    outer loop
      vertex  1.190000e+002 -3.000000e+001  1.500000e+000
      vertex  1.190000e+002 -3.000000e+001  3.000000e+000
      vertex  1.170000e+002 -3.000000e+001  1.500000e+000
    endloop
  endfacet
  facet normal  0.000000e+000 -1.000000e+000  0.000000e+000
    outer loop
      vertex  1.170000e+002 -3.000000e+001  1.500000e+000
      vertex  1.190000e+002 -3.000000e+001  3.000000e+000
      vertex  1.170000e+002 -3.000000e+001  3.000000e+000
    endloop
  endfacet
  facet normal  0.000000e+000  1.000000e+000  0.000000e+000
    outer loop
      vertex  1.170000e+002 -1.000000e+001  1.500000e+000
      vertex  1.170000e+002 -1.000000e+001  3.000000e+000
      vertex  1.190000e+002 -1.000000e+001  1.500000e+000
    endloop
  endfacet
  facet normal  0.000000e+000  1.000000e+000  -0.000000e+000
    outer loop
      vertex  1.190000e+002 -1.000000e+001  1.500000e+000
      vertex  1.170000e+002 -1.000000e+001  3.000000e+000
      vertex  1.190000e+002 -1.000000e+001  3.000000e+000
    endloop
  endfacet
  facet normal -3.490521e-001  0.000000e+000 -9.371033e-001
    outer loop
      vertex  1.175000e+002 -1.050000e+001  1.000000e+000
      vertex  1.175000e+002 -2.950000e+001  1.000000e+000
      vertex  1.171729e+002 -1.017291e+001  1.121833e+000
    endloop
  endfacet
  facet normal -3.490450e-001  1.354929e-007 -9.371059e-001
    outer loop
      vertex  1.171729e+002 -1.017291e+001  1.121833e+000
      vertex  1.175000e+002 -2.950000e+001  1.000000e+000
      vertex  1.171729e+002 -2.982709e+001  1.121833e+000
    endloop
  endfacet
  facet normal -7.946562e-001  3.084711e-007 -6.070597e-001
    outer loop
      vertex  1.171729e+002 -1.017291e+001  1.121833e+000
      vertex  1.171729e+002 -2.982709e+001  1.121833e+000
      vertex  1.170491e+002 -1.004912e+001  1.283874e+000
    endloop
  endfacet
  facet normal -7.946745e-001  -0.000000e+000 -6.070359e-001
    outer loop
      vertex  1.170491e+002 -1.004912e+001  1.283874e+000
      vertex  1.171729e+002 -2.982709e+001  1.121833e+000
      vertex  1.170491e+002 -2.995088e+001  1.283874e+000
    endloop
  endfacet
  facet normal -9.751270e-001  0.000000e+000 -2.216471e-001
    outer loop
      vertex  1.170491e+002 -1.004912e+001  1.283874e+000
      vertex  1.170491e+002 -2.995088e+001  1.283874e+000
      vertex  1.170000e+002 -1.000000e+001  1.500000e+000
    endloop
  endfacet
  facet normal -9.751270e-001  -0.000000e+000 -2.216471e-001
    outer loop
      vertex  1.170000e+002 -1.000000e+001  1.500000e+000
      vertex  1.170491e+002 -2.995088e+001  1.283874e+000
      vertex  1.170000e+002 -3.000000e+001  1.500000e+000
    endloop
  endfacet
  facet normal  0.000000e+000  9.751288e-001 -2.216389e-001
    outer loop
      vertex  1.170000e+002 -1.000000e+001  1.500000e+000
      vertex  1.190000e+002 -1.000000e+001  1.500000e+000
      vertex  1.170491e+002 -1.004912e+001  1.283874e+000
    endloop
  endfacet
  facet normal  0.000000e+000  9.751288e-001 -2.216389e-001
    outer loop
      vertex  1.170491e+002 -1.004912e+001  1.283874e+000
      vertex  1.190000e+002 -1.000000e+001  1.500000e+000
      vertex  1.189509e+002 -1.004912e+001  1.283874e+000
    endloop
  endfacet
  facet normal  0.000000e+000  7.946653e-001 -6.070477e-001
    outer loop
      vertex  1.170491e+002 -1.004912e+001  1.283874e+000
      vertex  1.189509e+002 -1.004912e+001  1.283874e+000
      vertex  1.171729e+002 -1.017291e+001  1.121833e+000
    endloop
  endfacet
  facet normal  2.748807e-006  7.946509e-001 -6.070668e-001
    outer loop
      vertex  1.171729e+002 -1.017291e+001  1.121833e+000
      vertex  1.189509e+002 -1.004912e+001  1.283874e+000
      vertex  1.188271e+002 -1.017291e+001  1.121833e+000
    endloop
  endfacet
  facet normal  1.207405e-006  3.490478e-001 -9.371050e-001
    outer loop
      vertex  1.171729e+002 -1.017291e+001  1.121833e+000
      vertex  1.188271e+002 -1.017291e+001  1.121833e+000
      vertex  1.175000e+002 -1.050000e+001  1.000000e+000
    endloop
  endfacet
  facet normal  0.000000e+000  3.490521e-001 -9.371034e-001
    outer loop
      vertex  1.175000e+002 -1.050000e+001  1.000000e+000
      vertex  1.188271e+002 -1.017291e+001  1.121833e+000
      vertex  1.185000e+002 -1.050000e+001  1.000000e+000
    endloop
  endfacet
  facet normal  3.490521e-001  0.000000e+000 -9.371033e-001
    outer loop
      vertex  1.185000e+002 -2.950000e+001  1.000000e+000
      vertex  1.185000e+002 -1.050000e+001  1.000000e+000
      vertex  1.188271e+002 -2.982709e+001  1.121833e+000
    endloop
  endfacet
  facet normal  3.490450e-001 -1.354929e-007 -9.371059e-001
    outer loop
      vertex  1.188271e+002 -2.982709e+001  1.121833e+000
      vertex  1.185000e+002 -1.050000e+001  1.000000e+000
      vertex  1.188271e+002 -1.017291e+001  1.121833e+000
    endloop
  endfacet
  facet normal  7.946562e-001 -3.084711e-007 -6.070597e-001
    outer loop
      vertex  1.188271e+002 -2.982709e+001  1.121833e+000
      vertex  1.188271e+002 -1.017291e+001  1.121833e+000
      vertex  1.189509e+002 -2.995088e+001  1.283874e+000
    endloop
  endfacet
  facet normal  7.946745e-001  0.000000e+000 -6.070359e-001
    outer loop
      vertex  1.189509e+002 -2.995088e+001  1.283874e+000
      vertex  1.188271e+002 -1.017291e+001  1.121833e+000
      vertex  1.189509e+002 -1.004912e+001  1.283874e+000
    endloop
  endfacet
  facet normal  9.751270e-001  0.000000e+000 -2.216471e-001
    outer loop
      vertex  1.189509e+002 -2.995088e+001  1.283874e+000
      vertex  1.189509e+002 -1.004912e+001  1.283874e+000
      vertex  1.190000e+002 -3.000000e+001  1.500000e+000
    endloop
  endfacet
  facet normal  9.751270e-001  0.000000e+000 -2.216471e-001
    outer loop
      vertex  1.190000e+002 -3.000000e+001  1.500000e+000
      vertex  1.189509e+002 -1.004912e+001  1.283874e+000
      vertex  1.190000e+002 -1.000000e+001  1.500000e+000
    endloop
  endfacet
  facet normal  0.000000e+000 -9.751288e-001 -2.216389e-001
    outer loop
      vertex  1.190000e+002 -3.000000e+001  1.500000e+000
      vertex  1.170000e+002 -3.000000e+001  1.500000e+000
      vertex  1.189509e+002 -2.995088e+001  1.283874e+000
    endloop
  endfacet
  facet normal  -0.000000e+000 -9.751288e-001 -2.216389e-001
    outer loop
      vertex  1.189509e+002 -2.995088e+001  1.283874e+000
      vertex  1.170000e+002 -3.000000e+001  1.500000e+000
      vertex  1.170491e+002 -2.995088e+001  1.283874e+000
    endloop
  endfacet
  facet normal  0.000000e+000 -7.946653e-001 -6.070477e-001
    outer loop
      vertex  1.189509e+002 -2.995088e+001  1.283874e+000
      vertex  1.170491e+002 -2.995088e+001  1.283874e+000
      vertex  1.188271e+002 -2.982709e+001  1.121833e+000
    endloop
  endfacet
  facet normal -2.748807e-006 -7.946509e-001 -6.070668e-001
    outer loop
      vertex  1.188271e+002 -2.982709e+001  1.121833e+000
      vertex  1.170491e+002 -2.995088e+001  1.283874e+000
      vertex  1.171729e+002 -2.982709e+001  1.121833e+000
    endloop
  endfacet
  facet normal -1.207405e-006 -3.490478e-001 -9.371050e-001
    outer loop
      vertex  1.188271e+002 -2.982709e+001  1.121833e+000
      vertex  1.171729e+002 -2.982709e+001  1.121833e+000
      vertex  1.185000e+002 -2.950000e+001  1.000000e+000
    endloop
  endfacet
  facet normal  -0.000000e+000 -3.490521e-001 -9.371034e-001
    outer loop
      vertex  1.185000e+002 -2.950000e+001  1.000000e+000
      vertex  1.171729e+002 -2.982709e+001  1.121833e+000
      vertex  1.175000e+002 -2.950000e+001  1.000000e+000
    endloop
  endfacet
  facet normal  0.000000e+000  0.000000e+000 -9.999999e-001
    outer loop
      vertex  2.958579e+001 -4.441422e+001  3.000000e+000
      vertex  2.900000e+001 -4.300000e+001  3.000000e+000
      vertex  3.100000e+001 -4.300000e+001  3.000000e+000
    endloop
  endfacet
  facet normal  0.000000e+000  -0.000000e+000 -9.999999e-001
    outer loop
      vertex  2.958579e+001 -4.441422e+001  3.000000e+000
      vertex  3.100000e+001 -4.300000e+001  3.000000e+000
      vertex  1.170000e+002 -4.300000e+001  3.000000e+000
    endloop
  endfacet
  facet normal  0.000000e+000  -0.000000e+000 -9.999999e-001
    outer loop
      vertex  2.958579e+001 -4.441422e+001  3.000000e+000
      vertex  1.170000e+002 -4.300000e+001  3.000000e+000
      vertex  1.190000e+002 -4.300000e+001  3.000000e+000
    endloop
  endfacet
  facet normal  0.000000e+000  0.000000e+000 -1.000000e+000
    outer loop
      vertex  2.958579e+001 -4.441422e+001  3.000000e+000
      vertex  1.190000e+002 -4.300000e+001  3.000000e+000
      vertex  1.184142e+002 -4.441422e+001  3.000000e+000
    endloop
  endfacet
  facet normal  -0.000000e+000  0.000000e+000 -1.000000e+000
    outer loop
      vertex  2.958579e+001 -4.441422e+001  3.000000e+000
      vertex  1.184142e+002 -4.441422e+001  3.000000e+000
      vertex  1.170000e+002 -4.500000e+001  3.000000e+000
    endloop
  endfacet
  facet normal  0.000000e+000  0.000000e+000 -1.000000e+000
    outer loop
      vertex  2.958579e+001 -4.441422e+001  3.000000e+000
      vertex  1.170000e+002 -4.500000e+001  3.000000e+000
      vertex  3.100000e+001 -4.500000e+001  3.000000e+000
    endloop
  endfacet
  facet normal  0.000000e+000  0.000000e+000 -1.000000e+000
    outer loop
      vertex  1.170000e+002 -4.300000e+001  3.000000e+000
      vertex  1.170000e+002 -3.000000e+001  3.000000e+000
      vertex  1.190000e+002 -4.300000e+001  3.000000e+000
    endloop
  endfacet
  facet normal  0.000000e+000  0.000000e+000 -1.000000e+000
    outer loop
      vertex  1.190000e+002 -4.300000e+001  3.000000e+000
      vertex  1.170000e+002 -3.000000e+001  3.000000e+000
      vertex  1.190000e+002 -3.000000e+001  3.000000e+000
    endloop
  endfacet
  facet normal  0.000000e+000  0.000000e+000 -1.000000e+000
    outer loop
      vertex  2.900000e+001 -4.300000e+001  3.000000e+000
      vertex  2.900000e+001 -3.000000e+001  3.000000e+000
      vertex  3.100000e+001 -4.300000e+001  3.000000e+000
    endloop
  endfacet
  facet normal  0.000000e+000  0.000000e+000 -1.000000e+000
    outer loop
      vertex  3.100000e+001 -4.300000e+001  3.000000e+000
      vertex  2.900000e+001 -3.000000e+001  3.000000e+000
      vertex  3.100000e+001 -3.000000e+001  3.000000e+000
    endloop
  endfacet
  facet normal  0.000000e+000  0.000000e+000 -9.999999e-001
    outer loop
      vertex  1.184142e+002  4.414214e+000  3.000000e+000
      vertex  1.190000e+002  3.000000e+000  3.000000e+000
      vertex  1.170000e+002  3.000000e+000  3.000000e+000
    endloop
  endfacet
  facet normal  0.000000e+000  0.000000e+000 -1.000000e+000
    outer loop
      vertex  1.184142e+002  4.414214e+000  3.000000e+000
      vertex  1.170000e+002  3.000000e+000  3.000000e+000
      vertex  3.100000e+001  3.000000e+000  3.000000e+000
    endloop
  endfacet
  facet normal  0.000000e+000  0.000000e+000 -9.999999e-001
    outer loop
      vertex  1.184142e+002  4.414214e+000  3.000000e+000
      vertex  3.100000e+001  3.000000e+000  3.000000e+000
      vertex  2.900000e+001  3.000000e+000  3.000000e+000
    endloop
  endfacet
  facet normal  0.000000e+000  0.000000e+000 -1.000000e+000
    outer loop
      vertex  1.184142e+002  4.414214e+000  3.000000e+000
      vertex  2.900000e+001  3.000000e+000  3.000000e+000
      vertex  2.958579e+001  4.414214e+000  3.000000e+000
    endloop
  endfacet
  facet normal  0.000000e+000  0.000000e+000 -1.000000e+000
    outer loop
      vertex  1.184142e+002  4.414214e+000  3.000000e+000
      vertex  2.958579e+001  4.414214e+000  3.000000e+000
      vertex  3.100000e+001  5.000000e+000  3.000000e+000
    endloop
  endfacet
  facet normal  0.000000e+000  0.000000e+000 -1.000000e+000
    outer loop
      vertex  1.184142e+002  4.414214e+000  3.000000e+000
      vertex  3.100000e+001  5.000000e+000  3.000000e+000
      vertex  1.170000e+002  5.000000e+000  3.000000e+000
    endloop
  endfacet
  facet normal  0.000000e+000  0.000000e+000 -1.000000e+000
    outer loop
      vertex  2.900000e+001 -1.000000e+001  3.000000e+000
      vertex  2.900000e+001  3.000000e+000  3.000000e+000
      vertex  3.100000e+001 -1.000000e+001  3.000000e+000
    endloop
  endfacet
  facet normal  0.000000e+000  0.000000e+000 -1.000000e+000
    outer loop
      vertex  3.100000e+001 -1.000000e+001  3.000000e+000
      vertex  2.900000e+001  3.000000e+000  3.000000e+000
      vertex  3.100000e+001  3.000000e+000  3.000000e+000
    endloop
  endfacet
  facet normal  0.000000e+000  0.000000e+000 -1.000000e+000
    outer loop
      vertex  1.170000e+002 -1.000000e+001  3.000000e+000
      vertex  1.170000e+002  3.000000e+000  3.000000e+000
      vertex  1.190000e+002 -1.000000e+001  3.000000e+000
    endloop
  endfacet
  facet normal  0.000000e+000  0.000000e+000 -1.000000e+000
    outer loop
      vertex  1.190000e+002 -1.000000e+001  3.000000e+000
      vertex  1.170000e+002  3.000000e+000  3.000000e+000
      vertex  1.190000e+002  3.000000e+000  3.000000e+000
    endloop
  endfacet
  facet normal  3.826830e-001  9.238797e-001  0.000000e+000
    outer loop
      vertex  1.170000e+002  5.000000e+000  3.000000e+000
      vertex  1.170000e+002  5.000000e+000  3.100000e+001
      vertex  1.184142e+002  4.414214e+000  3.000000e+000
    endloop
  endfacet
  facet normal  3.826830e-001  9.238797e-001  -0.000000e+000
    outer loop
      vertex  1.184142e+002  4.414214e+000  3.000000e+000
      vertex  1.170000e+002  5.000000e+000  3.100000e+001
      vertex  1.184142e+002  4.414214e+000  3.100000e+001
    endloop
  endfacet
  facet normal  9.238799e-001  3.826825e-001  0.000000e+000
    outer loop
      vertex  1.184142e+002  4.414214e+000  3.000000e+000
      vertex  1.184142e+002  4.414214e+000  3.100000e+001
      vertex  1.190000e+002  3.000000e+000  3.000000e+000
    endloop
  endfacet
  facet normal  9.238799e-001  3.826825e-001  -0.000000e+000
    outer loop
      vertex  1.190000e+002  3.000000e+000  3.000000e+000
      vertex  1.184142e+002  4.414214e+000  3.100000e+001
      vertex  1.190000e+002  3.000000e+000  3.100000e+001
    endloop
  endfacet
  facet normal  0.000000e+000  1.000000e+000  0.000000e+000
    outer loop
      vertex  1.170000e+002  5.000000e+000  3.000000e+000
      vertex  3.100000e+001  5.000000e+000  3.000000e+000
      vertex  1.170000e+002  5.000000e+000  3.100000e+001
    endloop
  endfacet
  facet normal  0.000000e+000  1.000000e+000  0.000000e+000
    outer loop
      vertex  1.170000e+002  5.000000e+000  3.100000e+001
      vertex  3.100000e+001  5.000000e+000  3.000000e+000
      vertex  3.100000e+001  5.000000e+000  3.100000e+001
    endloop
  endfacet
  facet normal -9.238794e-001  3.826836e-001  0.000000e+000
    outer loop
      vertex  2.900000e+001  3.000000e+000  3.000000e+000
      vertex  2.900000e+001  3.000000e+000  3.100000e+001
      vertex  2.958579e+001  4.414214e+000  3.000000e+000
    endloop
  endfacet
  facet normal -9.238794e-001  3.826836e-001  0.000000e+000
    outer loop
      vertex  2.958579e+001  4.414214e+000  3.000000e+000
      vertex  2.900000e+001  3.000000e+000  3.100000e+001
      vertex  2.958579e+001  4.414214e+000  3.100000e+001
    endloop
  endfacet
  facet normal -3.826835e-001  9.238795e-001  0.000000e+000
    outer loop
      vertex  2.958579e+001  4.414214e+000  3.000000e+000
      vertex  2.958579e+001  4.414214e+000  3.100000e+001
      vertex  3.100000e+001  5.000000e+000  3.000000e+000
    endloop
  endfacet
  facet normal -3.826835e-001  9.238795e-001  0.000000e+000
    outer loop
      vertex  3.100000e+001  5.000000e+000  3.000000e+000
      vertex  2.958579e+001  4.414214e+000  3.100000e+001
      vertex  3.100000e+001  5.000000e+000  3.100000e+001
    endloop
  endfacet
  facet normal  9.238800e-001 -3.826822e-001  0.000000e+000
    outer loop
      vertex  1.190000e+002 -4.300000e+001  3.000000e+000
      vertex  1.190000e+002 -4.300000e+001  7.845299e+000
      vertex  1.184142e+002 -4.441422e+001  3.000000e+000
    endloop
  endfacet
  facet normal  9.238800e-001 -3.826822e-001  0.000000e+000
    outer loop
      vertex  1.184142e+002 -4.441422e+001  3.000000e+000
      vertex  1.190000e+002 -4.300000e+001  7.845299e+000
      vertex  1.184142e+002 -4.441422e+001  7.845299e+000
    endloop
  endfacet
  facet normal  3.826822e-001 -9.238800e-001  0.000000e+000
    outer loop
      vertex  1.184142e+002 -4.441422e+001  3.000000e+000
      vertex  1.184142e+002 -4.441422e+001  7.845299e+000
      vertex  1.170000e+002 -4.500000e+001  3.000000e+000
    endloop
  endfacet
  facet normal  3.826822e-001 -9.238800e-001  0.000000e+000
    outer loop
      vertex  1.170000e+002 -4.500000e+001  3.000000e+000
      vertex  1.184142e+002 -4.441422e+001  7.845299e+000
      vertex  1.170000e+002 -4.500000e+001  7.845299e+000
    endloop
  endfacet
  facet normal -3.826827e-001 -9.238798e-001  -0.000000e+000
    outer loop
      vertex  3.100000e+001 -4.500000e+001  3.000000e+000
      vertex  3.100000e+001 -4.500000e+001  7.845299e+000
      vertex  2.958579e+001 -4.441422e+001  3.000000e+000
    endloop
  endfacet
  facet normal -3.826827e-001 -9.238798e-001  0.000000e+000
    outer loop
      vertex  2.958579e+001 -4.441422e+001  3.000000e+000
      vertex  3.100000e+001 -4.500000e+001  7.845299e+000
      vertex  2.958579e+001 -4.441422e+001  7.845299e+000
    endloop
  endfacet
  facet normal -9.238796e-001 -3.826833e-001  -0.000000e+000
    outer loop
      vertex  2.958579e+001 -4.441422e+001  3.000000e+000
      vertex  2.958579e+001 -4.441422e+001  7.845299e+000
      vertex  2.900000e+001 -4.300000e+001  3.000000e+000
    endloop
  endfacet
  facet normal -9.238796e-001 -3.826833e-001  0.000000e+000
    outer loop
      vertex  2.900000e+001 -4.300000e+001  3.000000e+000
      vertex  2.958579e+001 -4.441422e+001  7.845299e+000
      vertex  2.900000e+001 -4.300000e+001  7.845299e+000
    endloop
  endfacet
  facet normal  0.000000e+000 -9.999999e-001  0.000000e+000
    outer loop
      vertex  3.100000e+001 -4.500000e+001  3.000000e+000
      vertex  1.170000e+002 -4.500000e+001  3.000000e+000
      vertex  3.100000e+001 -4.500000e+001  7.845299e+000
    endloop
  endfacet
  facet normal  0.000000e+000 -9.999999e-001  0.000000e+000
    outer loop
      vertex  3.100000e+001 -4.500000e+001  7.845299e+000
      vertex  1.170000e+002 -4.500000e+001  3.000000e+000
      vertex  1.170000e+002 -4.500000e+001  7.845299e+000
    endloop
  endfacet
  facet normal  0.000000e+000  9.999999e-001  0.000000e+000
    outer loop
      vertex  1.170000e+002 -4.300000e+001  3.000000e+000
      vertex  3.100000e+001 -4.300000e+001  3.000000e+000
      vertex  1.170000e+002 -4.300000e+001  7.845299e+000
    endloop
  endfacet
  facet normal  0.000000e+000  9.999999e-001  0.000000e+000
    outer loop
      vertex  1.170000e+002 -4.300000e+001  7.845299e+000
      vertex  3.100000e+001 -4.300000e+001  3.000000e+000
      vertex  3.100000e+001 -4.300000e+001  7.845299e+000
    endloop
  endfacet
  facet normal  0.000000e+000 -1.000000e+000  0.000000e+000
    outer loop
      vertex  3.100000e+001  3.000000e+000  3.000000e+000
      vertex  1.170000e+002  3.000000e+000  3.000000e+000
      vertex  3.100000e+001  3.000000e+000  3.100000e+001
    endloop
  endfacet
  facet normal  0.000000e+000 -1.000000e+000  0.000000e+000
    outer loop
      vertex  3.100000e+001  3.000000e+000  3.100000e+001
      vertex  1.170000e+002  3.000000e+000  3.000000e+000
      vertex  1.170000e+002  3.000000e+000  3.100000e+001
    endloop
  endfacet
  facet normal  0.000000e+000  0.000000e+000  9.999999e-001
    outer loop
      vertex  3.100000e+001 -2.894882e+000  3.300000e+001
      vertex  1.170000e+002 -2.894882e+000  3.300000e+001
      vertex  3.100000e+001  3.000000e+000  3.300000e+001
    endloop
  endfacet
  facet normal  -0.000000e+000  0.000000e+000  9.999999e-001
    outer loop
      vertex  3.100000e+001  3.000000e+000  3.300000e+001
      vertex  1.170000e+002 -2.894882e+000  3.300000e+001
      vertex  1.170000e+002  3.000000e+000  3.300000e+001
    endloop
  endfacet
  facet normal -9.238797e-001 -1.913415e-001  3.314132e-001
    outer loop
      vertex  2.900000e+001 -2.894882e+000  3.100000e+001
      vertex  2.900000e+001 -4.300000e+001  7.845299e+000
      vertex  2.958579e+001 -3.601989e+000  3.222475e+001
    endloop
  endfacet
  facet normal -9.238797e-001 -1.913415e-001  3.314132e-001
    outer loop
      vertex  2.958579e+001 -3.601989e+000  3.222475e+001
      vertex  2.900000e+001 -4.300000e+001  7.845299e+000
      vertex  2.958579e+001 -4.370711e+001  9.070045e+000
    endloop
  endfacet
  facet normal -3.826823e-001 -4.619400e-001  8.001035e-001
    outer loop
      vertex  2.958579e+001 -3.601989e+000  3.222475e+001
      vertex  2.958579e+001 -4.370711e+001  9.070045e+000
      vertex  3.100000e+001 -3.894882e+000  3.273205e+001
    endloop
  endfacet
  facet normal -3.826823e-001 -4.619400e-001  8.001035e-001
    outer loop
      vertex  3.100000e+001 -3.894882e+000  3.273205e+001
      vertex  2.958579e+001 -4.370711e+001  9.070045e+000
      vertex  3.100000e+001 -4.400000e+001  9.577351e+000
    endloop
  endfacet
  facet normal  0.000000e+000 -5.000001e-001  8.660254e-001
    outer loop
      vertex  3.100000e+001 -3.894882e+000  3.273205e+001
      vertex  1.090000e+002 -1.122501e+001  2.850000e+001
      vertex  1.170000e+002 -3.894882e+000  3.273205e+001
    endloop
  endfacet
  facet normal -1.986822e-007 -5.000000e-001  8.660254e-001
    outer loop
      vertex  1.170000e+002 -3.894882e+000  3.273205e+001
      vertex  1.090000e+002 -1.122501e+001  2.850000e+001
      vertex  1.090000e+002 -3.200962e+001  1.650000e+001
    endloop
  endfacet
  facet normal  4.118707e-008 -5.000000e-001  8.660254e-001
    outer loop
      vertex  1.170000e+002 -3.894882e+000  3.273205e+001
      vertex  1.090000e+002 -3.200962e+001  1.650000e+001
      vertex  1.170000e+002 -4.400000e+001  9.577351e+000
    endloop
  endfacet
  facet normal  0.000000e+000 -5.000001e-001  8.660253e-001
    outer loop
      vertex  1.090000e+002 -1.122501e+001  2.850000e+001
      vertex  3.100000e+001 -3.894882e+000  3.273205e+001
      vertex  3.750000e+001 -1.122501e+001  2.850000e+001
    endloop
  endfacet
  facet normal  1.520753e-007 -5.000000e-001  8.660254e-001
    outer loop
      vertex  3.750000e+001 -1.122501e+001  2.850000e+001
      vertex  3.100000e+001 -3.894882e+000  3.273205e+001
      vertex  3.100000e+001 -4.400000e+001  9.577351e+000
    endloop
  endfacet
  facet normal -1.956255e-007 -5.000000e-001  8.660254e-001
    outer loop
      vertex  3.750000e+001 -1.122501e+001  2.850000e+001
      vertex  3.100000e+001 -4.400000e+001  9.577351e+000
      vertex  3.750000e+001 -3.200962e+001  1.650000e+001
    endloop
  endfacet
  facet normal  0.000000e+000 -5.000001e-001  8.660253e-001
    outer loop
      vertex  3.750000e+001 -3.200962e+001  1.650000e+001
      vertex  3.100000e+001 -4.400000e+001  9.577351e+000
      vertex  1.170000e+002 -4.400000e+001  9.577351e+000
    endloop
  endfacet
  facet normal  0.000000e+000 -5.000001e-001  8.660254e-001
    outer loop
      vertex  3.750000e+001 -3.200962e+001  1.650000e+001
      vertex  1.170000e+002 -4.400000e+001  9.577351e+000
      vertex  1.090000e+002 -3.200962e+001  1.650000e+001
    endloop
  endfacet
  facet normal  3.826826e-001 -4.619400e-001  8.001034e-001
    outer loop
      vertex  1.170000e+002 -3.894882e+000  3.273205e+001
      vertex  1.170000e+002 -4.400000e+001  9.577351e+000
      vertex  1.184142e+002 -3.601989e+000  3.222475e+001
    endloop
  endfacet
  facet normal  3.826826e-001 -4.619400e-001  8.001034e-001
    outer loop
      vertex  1.184142e+002 -3.601989e+000  3.222475e+001
      vertex  1.170000e+002 -4.400000e+001  9.577351e+000
      vertex  1.184142e+002 -4.370711e+001  9.070045e+000
    endloop
  endfacet
  facet normal  9.238800e-001 -1.913411e-001  3.314125e-001
    outer loop
      vertex  1.184142e+002 -3.601989e+000  3.222475e+001
      vertex  1.184142e+002 -4.370711e+001  9.070045e+000
      vertex  1.190000e+002 -2.894882e+000  3.100000e+001
    endloop
  endfacet
  facet normal  9.238800e-001 -1.913411e-001  3.314125e-001
    outer loop
      vertex  1.190000e+002 -2.894882e+000  3.100000e+001
      vertex  1.184142e+002 -4.370711e+001  9.070045e+000
      vertex  1.190000e+002 -4.300000e+001  7.845299e+000
    endloop
  endfacet
  facet normal -3.779637e-001  1.565576e-001  9.124873e-001
    outer loop
      vertex  3.100000e+001  3.000000e+000  3.300000e+001
      vertex  3.000000e+001  4.000000e+000  3.241422e+001
      vertex  2.958579e+001  3.000000e+000  3.241422e+001
    endloop
  endfacet
  facet normal -1.565577e-001  3.779636e-001  9.124873e-001
    outer loop
      vertex  3.100000e+001  3.000000e+000  3.300000e+001
      vertex  3.100000e+001  4.414214e+000  3.241422e+001
      vertex  3.000000e+001  4.000000e+000  3.241422e+001
    endloop
  endfacet
  facet normal -3.574069e-001  8.628563e-001  3.574063e-001
    outer loop
      vertex  3.100000e+001  4.414214e+000  3.241422e+001
      vertex  3.100000e+001  5.000000e+000  3.100000e+001
      vertex  3.000000e+001  4.000000e+000  3.241422e+001
    endloop
  endfacet
  facet normal -3.574068e-001  8.628563e-001  3.574064e-001
    outer loop
      vertex  3.000000e+001  4.000000e+000  3.241422e+001
      vertex  3.100000e+001  5.000000e+000  3.100000e+001
      vertex  2.958579e+001  4.414214e+000  3.100000e+001
    endloop
  endfacet
  facet normal -8.628565e-001  3.574065e-001  3.574061e-001
    outer loop
      vertex  3.000000e+001  4.000000e+000  3.241422e+001
      vertex  2.958579e+001  4.414214e+000  3.100000e+001
      vertex  2.958579e+001  3.000000e+000  3.241422e+001
    endloop
  endfacet
  facet normal -8.628561e-001  3.574069e-001  3.574066e-001
    outer loop
      vertex  2.958579e+001  3.000000e+000  3.241422e+001
      vertex  2.958579e+001  4.414214e+000  3.100000e+001
      vertex  2.900000e+001  3.000000e+000  3.100000e+001
    endloop
  endfacet
  facet normal  0.000000e+000  3.826826e-001  9.238799e-001
    outer loop
      vertex  3.100000e+001  3.000000e+000  3.300000e+001
      vertex  1.170000e+002  3.000000e+000  3.300000e+001
      vertex  3.100000e+001  4.414214e+000  3.241422e+001
    endloop
  endfacet
  facet normal  -0.000000e+000  3.826826e-001  9.238799e-001
    outer loop
      vertex  3.100000e+001  4.414214e+000  3.241422e+001
      vertex  1.170000e+002  3.000000e+000  3.300000e+001
      vertex  1.170000e+002  4.414214e+000  3.241422e+001
    endloop
  endfacet
  facet normal  0.000000e+000  9.238797e-001  3.826830e-001
    outer loop
      vertex  3.100000e+001  4.414214e+000  3.241422e+001
      vertex  1.170000e+002  4.414214e+000  3.241422e+001
      vertex  3.100000e+001  5.000000e+000  3.100000e+001
    endloop
  endfacet
  facet normal  -0.000000e+000  9.238797e-001  3.826830e-001
    outer loop
      vertex  3.100000e+001  5.000000e+000  3.100000e+001
      vertex  1.170000e+002  4.414214e+000  3.241422e+001
      vertex  1.170000e+002  5.000000e+000  3.100000e+001
    endloop
  endfacet
  facet normal  1.565577e-001  3.779636e-001  9.124873e-001
    outer loop
      vertex  1.170000e+002  3.000000e+000  3.300000e+001
      vertex  1.180000e+002  4.000000e+000  3.241422e+001
      vertex  1.170000e+002  4.414214e+000  3.241422e+001
    endloop
  endfacet
  facet normal  3.779633e-001  1.565581e-001  9.124874e-001
    outer loop
      vertex  1.170000e+002  3.000000e+000  3.300000e+001
      vertex  1.184142e+002  3.000000e+000  3.241422e+001
      vertex  1.180000e+002  4.000000e+000  3.241422e+001
    endloop
  endfacet
  facet normal  8.628561e-001  3.574080e-001  3.574054e-001
    outer loop
      vertex  1.184142e+002  3.000000e+000  3.241422e+001
      vertex  1.190000e+002  3.000000e+000  3.100000e+001
      vertex  1.180000e+002  4.000000e+000  3.241422e+001
    endloop
  endfacet
  facet normal  8.628564e-001  3.574059e-001  3.574071e-001
    outer loop
      vertex  1.180000e+002  4.000000e+000  3.241422e+001
      vertex  1.190000e+002  3.000000e+000  3.100000e+001
      vertex  1.184142e+002  4.414214e+000  3.100000e+001
    endloop
  endfacet
  facet normal  3.574068e-001  8.628561e-001  3.574068e-001
    outer loop
      vertex  1.180000e+002  4.000000e+000  3.241422e+001
      vertex  1.184142e+002  4.414214e+000  3.100000e+001
      vertex  1.170000e+002  4.414214e+000  3.241422e+001
    endloop
  endfacet
  facet normal  3.574064e-001  8.628565e-001  3.574064e-001
    outer loop
      vertex  1.170000e+002  4.414214e+000  3.241422e+001
      vertex  1.184142e+002  4.414214e+000  3.100000e+001
      vertex  1.170000e+002  5.000000e+000  3.100000e+001
    endloop
  endfacet
  facet normal  3.826822e-001  -0.000000e+000  9.238800e-001
    outer loop
      vertex  1.170000e+002  3.000000e+000  3.300000e+001
      vertex  1.170000e+002 -2.894882e+000  3.300000e+001
      vertex  1.184142e+002  3.000000e+000  3.241422e+001
    endloop
  endfacet
  facet normal  3.826822e-001  0.000000e+000  9.238800e-001
    outer loop
      vertex  1.184142e+002  3.000000e+000  3.241422e+001
      vertex  1.170000e+002 -2.894882e+000  3.300000e+001
      vertex  1.184142e+002 -2.894882e+000  3.241422e+001
    endloop
  endfacet
  facet normal  9.238800e-001  -0.000000e+000  3.826822e-001
    outer loop
      vertex  1.184142e+002  3.000000e+000  3.241422e+001
      vertex  1.184142e+002 -2.894882e+000  3.241422e+001
      vertex  1.190000e+002  3.000000e+000  3.100000e+001
    endloop
  endfacet
  facet normal  9.238800e-001  0.000000e+000  3.826822e-001
    outer loop
      vertex  1.190000e+002  3.000000e+000  3.100000e+001
      vertex  1.184142e+002 -2.894882e+000  3.241422e+001
      vertex  1.190000e+002 -2.894882e+000  3.100000e+001
    endloop
  endfacet
  facet normal  3.714692e-001 -2.402989e-001  8.968093e-001
    outer loop
      vertex  1.170000e+002 -2.894882e+000  3.300000e+001
      vertex  1.184142e+002 -3.601989e+000  3.222475e+001
      vertex  1.184142e+002 -2.894882e+000  3.241422e+001
    endloop
  endfacet
  facet normal  3.714695e-001 -2.402984e-001  8.968093e-001
    outer loop
      vertex  1.170000e+002 -2.894882e+000  3.300000e+001
      vertex  1.170000e+002 -3.894882e+000  3.273205e+001
      vertex  1.184142e+002 -3.601989e+000  3.222475e+001
    endloop
  endfacet
  facet normal  9.190611e-001 -1.020044e-001  3.806862e-001
    outer loop
      vertex  1.190000e+002 -2.894882e+000  3.100000e+001
      vertex  1.184142e+002 -2.894882e+000  3.241422e+001
      vertex  1.184142e+002 -3.601989e+000  3.222475e+001
    endloop
  endfacet
  facet normal  0.000000e+000 -2.588181e-001  9.659261e-001
    outer loop
      vertex  3.100000e+001 -3.894882e+000  3.273205e+001
      vertex  1.170000e+002 -3.894882e+000  3.273205e+001
      vertex  3.100000e+001 -2.894882e+000  3.300000e+001
    endloop
  endfacet
  facet normal  0.000000e+000 -2.588181e-001  9.659261e-001
    outer loop
      vertex  3.100000e+001 -2.894882e+000  3.300000e+001
      vertex  1.170000e+002 -3.894882e+000  3.273205e+001
      vertex  1.170000e+002 -2.894882e+000  3.300000e+001
    endloop
  endfacet
  facet normal -3.714699e-001 -2.402984e-001  8.968092e-001
    outer loop
      vertex  3.100000e+001 -2.894882e+000  3.300000e+001
      vertex  2.958579e+001 -3.601989e+000  3.222475e+001
      vertex  3.100000e+001 -3.894882e+000  3.273205e+001
    endloop
  endfacet
  facet normal -3.714697e-001 -2.402989e-001  8.968092e-001
    outer loop
      vertex  3.100000e+001 -2.894882e+000  3.300000e+001
      vertex  2.958579e+001 -2.894882e+000  3.241422e+001
      vertex  2.958579e+001 -3.601989e+000  3.222475e+001
    endloop
  endfacet
  facet normal -9.190606e-001 -1.020047e-001  3.806872e-001
    outer loop
      vertex  2.900000e+001 -2.894882e+000  3.100000e+001
      vertex  2.958579e+001 -3.601989e+000  3.222475e+001
      vertex  2.958579e+001 -2.894882e+000  3.241422e+001
    endloop
  endfacet
  facet normal -3.826827e-001  0.000000e+000  9.238798e-001
    outer loop
      vertex  3.100000e+001 -2.894882e+000  3.300000e+001
      vertex  3.100000e+001  3.000000e+000  3.300000e+001
      vertex  2.958579e+001 -2.894882e+000  3.241422e+001
    endloop
  endfacet
  facet normal -3.826827e-001  0.000000e+000  9.238798e-001
    outer loop
      vertex  2.958579e+001 -2.894882e+000  3.241422e+001
      vertex  3.100000e+001  3.000000e+000  3.300000e+001
      vertex  2.958579e+001  3.000000e+000  3.241422e+001
    endloop
  endfacet
  facet normal -9.238797e-001  0.000000e+000  3.826833e-001
    outer loop
      vertex  2.958579e+001 -2.894882e+000  3.241422e+001
      vertex  2.958579e+001  3.000000e+000  3.241422e+001
      vertex  2.900000e+001 -2.894882e+000  3.100000e+001
    endloop
  endfacet
  facet normal -9.238797e-001  0.000000e+000  3.826833e-001
    outer loop
      vertex  2.900000e+001 -2.894882e+000  3.100000e+001
      vertex  2.958579e+001  3.000000e+000  3.241422e+001
      vertex  2.900000e+001  3.000000e+000  3.100000e+001
    endloop
  endfacet
  facet normal -3.779638e-001 -9.124873e-001  1.565575e-001
    outer loop
      vertex  3.100000e+001 -4.500000e+001  7.845299e+000
      vertex  3.000000e+001 -4.441422e+001  8.845300e+000
      vertex  2.958579e+001 -4.441422e+001  7.845299e+000
    endloop
  endfacet
  facet normal -7.700768e-001 -5.524818e-001  3.189758e-001
    outer loop
      vertex  2.958579e+001 -4.370711e+001  9.070045e+000
      vertex  2.958579e+001 -4.441422e+001  7.845299e+000
      vertex  3.000000e+001 -4.441422e+001  8.845300e+000
    endloop
  endfacet
  facet normal -9.021232e-001 -3.736715e-001  2.157395e-001
    outer loop
      vertex  2.900000e+001 -4.300000e+001  7.845299e+000
      vertex  2.958579e+001 -4.441422e+001  7.845299e+000
      vertex  2.958579e+001 -4.370711e+001  9.070045e+000
    endloop
  endfacet
  facet normal -3.714703e-001 -6.565092e-001  6.565101e-001
    outer loop
      vertex  3.100000e+001 -4.400000e+001  9.577351e+000
      vertex  2.958579e+001 -4.370711e+001  9.070045e+000
      vertex  3.100000e+001 -4.473205e+001  8.845300e+000
    endloop
  endfacet
  facet normal -1.148609e-001 -3.613832e-001  9.253157e-001
    outer loop
      vertex  3.100000e+001 -4.473205e+001  8.845300e+000
      vertex  2.958579e+001 -4.370711e+001  9.070045e+000
      vertex  3.000000e+001 -4.441422e+001  8.845300e+000
    endloop
  endfacet
  facet normal -2.934872e-001 -9.233897e-001  2.474204e-001
    outer loop
      vertex  3.100000e+001 -4.473205e+001  8.845300e+000
      vertex  3.000000e+001 -4.441422e+001  8.845300e+000
      vertex  3.100000e+001 -4.500000e+001  7.845299e+000
    endloop
  endfacet
  facet normal  0.000000e+000 -7.071064e-001  7.071073e-001
    outer loop
      vertex  1.170000e+002 -4.400000e+001  9.577351e+000
      vertex  3.100000e+001 -4.400000e+001  9.577351e+000
      vertex  1.170000e+002 -4.473205e+001  8.845300e+000
    endloop
  endfacet
  facet normal  0.000000e+000 -7.071064e-001  7.071073e-001
    outer loop
      vertex  1.170000e+002 -4.473205e+001  8.845300e+000
      vertex  3.100000e+001 -4.400000e+001  9.577351e+000
      vertex  3.100000e+001 -4.473205e+001  8.845300e+000
    endloop
  endfacet
  facet normal  0.000000e+000 -9.659261e-001  2.588180e-001
    outer loop
      vertex  1.170000e+002 -4.473205e+001  8.845300e+000
      vertex  3.100000e+001 -4.473205e+001  8.845300e+000
      vertex  1.170000e+002 -4.500000e+001  7.845299e+000
    endloop
  endfacet
  facet normal  0.000000e+000 -9.659261e-001  2.588180e-001
    outer loop
      vertex  1.170000e+002 -4.500000e+001  7.845299e+000
      vertex  3.100000e+001 -4.473205e+001  8.845300e+000
      vertex  3.100000e+001 -4.500000e+001  7.845299e+000
    endloop
  endfacet
  facet normal  2.934872e-001 -9.233897e-001  2.474204e-001
    outer loop
      vertex  1.170000e+002 -4.500000e+001  7.845299e+000
      vertex  1.180000e+002 -4.441422e+001  8.845300e+000
      vertex  1.170000e+002 -4.473205e+001  8.845300e+000
    endloop
  endfacet
  facet normal  3.779633e-001 -9.124874e-001  1.565580e-001
    outer loop
      vertex  1.170000e+002 -4.500000e+001  7.845299e+000
      vertex  1.184142e+002 -4.441422e+001  7.845299e+000
      vertex  1.180000e+002 -4.441422e+001  8.845300e+000
    endloop
  endfacet
  facet normal  8.628563e-001 -3.574055e-001  3.574079e-001
    outer loop
      vertex  1.184142e+002 -4.441422e+001  7.845299e+000
      vertex  1.190000e+002 -4.300000e+001  7.845299e+000
      vertex  1.180000e+002 -4.441422e+001  8.845300e+000
    endloop
  endfacet
  facet normal  8.443557e-001 -5.263789e-001  9.994272e-002
    outer loop
      vertex  1.180000e+002 -4.441422e+001  8.845300e+000
      vertex  1.190000e+002 -4.300000e+001  7.845299e+000
      vertex  1.184142e+002 -4.370711e+001  9.070045e+000
    endloop
  endfacet
  facet normal  1.148610e-001 -3.613835e-001  9.253156e-001
    outer loop
      vertex  1.180000e+002 -4.441422e+001  8.845300e+000
      vertex  1.184142e+002 -4.370711e+001  9.070045e+000
      vertex  1.170000e+002 -4.473205e+001  8.845300e+000
    endloop
  endfacet
  facet normal  3.714698e-001 -6.565093e-001  6.565102e-001
    outer loop
      vertex  1.170000e+002 -4.473205e+001  8.845300e+000
      vertex  1.184142e+002 -4.370711e+001  9.070045e+000
      vertex  1.170000e+002 -4.400000e+001  9.577351e+000
    endloop
  endfacet
  facet normal  4.118707e-008  5.000000e-001 -8.660254e-001
    outer loop
      vertex  1.170000e+002 -4.300000e+001  7.845299e+000
      vertex  1.090000e+002 -3.100962e+001  1.476795e+001
      vertex  1.170000e+002 -2.894882e+000  3.100000e+001
    endloop
  endfacet
  facet normal -1.192093e-007  5.000001e-001 -8.660254e-001
    outer loop
      vertex  1.170000e+002 -2.894882e+000  3.100000e+001
      vertex  1.090000e+002 -3.100962e+001  1.476795e+001
      vertex  1.090000e+002 -1.022501e+001  2.676795e+001
    endloop
  endfacet
  facet normal  0.000000e+000  4.999999e-001 -8.660254e-001
    outer loop
      vertex  1.170000e+002 -2.894882e+000  3.100000e+001
      vertex  1.090000e+002 -1.022501e+001  2.676795e+001
      vertex  3.100000e+001 -2.894882e+000  3.100000e+001
    endloop
  endfacet
  facet normal  0.000000e+000  4.999999e-001 -8.660254e-001
    outer loop
      vertex  3.100000e+001 -2.894882e+000  3.100000e+001
      vertex  1.090000e+002 -1.022501e+001  2.676795e+001
      vertex  3.750000e+001 -1.022501e+001  2.676795e+001
    endloop
  endfacet
  facet normal  1.013836e-007  5.000000e-001 -8.660254e-001
    outer loop
      vertex  3.100000e+001 -2.894882e+000  3.100000e+001
      vertex  3.750000e+001 -1.022501e+001  2.676795e+001
      vertex  3.100000e+001 -4.300000e+001  7.845299e+000
    endloop
  endfacet
  facet normal -9.781276e-008  5.000001e-001 -8.660254e-001
    outer loop
      vertex  3.100000e+001 -4.300000e+001  7.845299e+000
      vertex  3.750000e+001 -1.022501e+001  2.676795e+001
      vertex  3.750000e+001 -3.100962e+001  1.476795e+001
    endloop
  endfacet
  facet normal  0.000000e+000  5.000000e-001 -8.660253e-001
    outer loop
      vertex  3.100000e+001 -4.300000e+001  7.845299e+000
      vertex  3.750000e+001 -3.100962e+001  1.476795e+001
      vertex  1.170000e+002 -4.300000e+001  7.845299e+000
    endloop
  endfacet
  facet normal  0.000000e+000  5.000000e-001 -8.660254e-001
    outer loop
      vertex  1.170000e+002 -4.300000e+001  7.845299e+000
      vertex  3.750000e+001 -3.100962e+001  1.476795e+001
      vertex  1.090000e+002 -3.100962e+001  1.476795e+001
    endloop
  endfacet
  facet normal  0.000000e+000 -8.660253e-001 -5.000002e-001
    outer loop
      vertex  3.750000e+001 -1.122501e+001  2.850000e+001
      vertex  3.750000e+001 -1.022501e+001  2.676795e+001
      vertex  1.090000e+002 -1.122501e+001  2.850000e+001
    endloop
  endfacet
  facet normal  0.000000e+000 -8.660253e-001 -5.000002e-001
    outer loop
      vertex  1.090000e+002 -1.122501e+001  2.850000e+001
      vertex  3.750000e+001 -1.022501e+001  2.676795e+001
      vertex  1.090000e+002 -1.022501e+001  2.676795e+001
    endloop
  endfacet
  facet normal -1.000000e+000  0.000000e+000  0.000000e+000
    outer loop
      vertex  1.090000e+002 -3.200962e+001  1.650000e+001
      vertex  1.090000e+002 -1.122501e+001  2.850000e+001
      vertex  1.090000e+002 -3.100962e+001  1.476795e+001
    endloop
  endfacet
  facet normal -1.000000e+000  0.000000e+000  0.000000e+000
    outer loop
      vertex  1.090000e+002 -3.100962e+001  1.476795e+001
      vertex  1.090000e+002 -1.122501e+001  2.850000e+001
      vertex  1.090000e+002 -1.022501e+001  2.676795e+001
    endloop
  endfacet
  facet normal  0.000000e+000  8.660251e-001  5.000008e-001
    outer loop
      vertex  1.090000e+002 -3.200962e+001  1.650000e+001
      vertex  1.090000e+002 -3.100962e+001  1.476795e+001
      vertex  3.750000e+001 -3.200962e+001  1.650000e+001
    endloop
  endfacet
  facet normal  0.000000e+000  8.660251e-001  5.000008e-001
    outer loop
      vertex  3.750000e+001 -3.200962e+001  1.650000e+001
      vertex  1.090000e+002 -3.100962e+001  1.476795e+001
      vertex  3.750000e+001 -3.100962e+001  1.476795e+001
    endloop
  endfacet
  facet normal  1.000000e+000  0.000000e+000  0.000000e+000
    outer loop
      vertex  3.750000e+001 -1.122501e+001  2.850000e+001
      vertex  3.750000e+001 -3.200962e+001  1.650000e+001
      vertex  3.750000e+001 -1.022501e+001  2.676795e+001
    endloop
  endfacet
  facet normal  1.000000e+000  0.000000e+000  0.000000e+000
    outer loop
      vertex  3.750000e+001 -1.022501e+001  2.676795e+001
      vertex  3.750000e+001 -3.200962e+001  1.650000e+001
      vertex  3.750000e+001 -3.100962e+001  1.476795e+001
    endloop
  endfacet
  facet normal  0.000000e+000  0.000000e+000 -9.999999e-001
    outer loop
      vertex  1.170000e+002  3.000000e+000  3.100000e+001
      vertex  1.170000e+002 -2.894882e+000  3.100000e+001
      vertex  3.100000e+001  3.000000e+000  3.100000e+001
    endloop
  endfacet
  facet normal  0.000000e+000  0.000000e+000 -9.999999e-001
    outer loop
      vertex  3.100000e+001  3.000000e+000  3.100000e+001
      vertex  1.170000e+002 -2.894882e+000  3.100000e+001
      vertex  3.100000e+001 -2.894882e+000  3.100000e+001
    endloop
  endfacet
endsolid CATIA STL
