solid CATIA STL
  facet normal  5.000001e-001 -8.660253e-001  0.000000e+000
    outer loop
      vertex -1.275000e+001 -2.370096e+001 -3.000000e+000
      vertex -1.500000e+000 -1.720577e+001 -3.000000e+000
      vertex -1.275000e+001 -2.370096e+001  3.000000e+000
    endloop
  endfacet
  facet normal  5.000001e-001 -8.660253e-001  0.000000e+000
    outer loop
      vertex -1.275000e+001 -2.370096e+001  3.000000e+000
      vertex -1.500000e+000 -1.720577e+001 -3.000000e+000
      vertex -1.500000e+000 -1.720577e+001  3.000000e+000
    endloop
  endfacet
  facet normal -1.000000e+000  0.000000e+000  0.000000e+000
    outer loop
      vertex  0.000000e+000 -1.807180e+001  3.000000e+000
      vertex  0.000000e+000 -1.807180e+001 -3.000000e+000
      vertex  0.000000e+000 -6.100000e+001 -3.000000e+000
    endloop
  endfacet
  facet normal -1.000000e+000  0.000000e+000  0.000000e+000
    outer loop
      vertex  0.000000e+000 -1.807180e+001  3.000000e+000
      vertex  0.000000e+000 -6.100000e+001 -3.000000e+000
      vertex  0.000000e+000 -6.170711e+001 -2.707107e+000
    endloop
  endfacet
  facet normal -1.000000e+000  0.000000e+000  0.000000e+000
    outer loop
      vertex  0.000000e+000 -1.807180e+001  3.000000e+000
      vertex  0.000000e+000 -6.170711e+001 -2.707107e+000
      vertex  0.000000e+000 -6.200000e+001 -2.000000e+000
    endloop
  endfacet
  facet normal -1.000000e+000 -4.043773e-016  3.552714e-015
    outer loop
      vertex  0.000000e+000 -1.807180e+001  3.000000e+000
      vertex  0.000000e+000 -6.200000e+001 -2.000000e+000
      vertex  7.105427e-015 -6.200000e+001  0.000000e+000
    endloop
  endfacet
  facet normal -1.000000e+000  0.000000e+000 -2.368476e-015
    outer loop
      vertex  0.000000e+000 -1.807180e+001  3.000000e+000
      vertex  7.105427e-015 -6.200000e+001  0.000000e+000
      vertex  0.000000e+000 -6.400000e+001  3.000000e+000
    endloop
  endfacet
  facet normal -1.000000e+000  2.368476e-015  0.000000e+000
    outer loop
      vertex  7.105427e-015 -6.200000e+001  0.000000e+000
      vertex  0.000000e+000 -6.500000e+001  0.000000e+000
      vertex  0.000000e+000 -6.500000e+001  2.000000e+000
    endloop
  endfacet
  facet normal -1.000000e+000  1.855966e-015 -7.687644e-016
    outer loop
      vertex  7.105427e-015 -6.200000e+001  0.000000e+000
      vertex  0.000000e+000 -6.500000e+001  2.000000e+000
      vertex  0.000000e+000 -6.470711e+001  2.707107e+000
    endloop
  endfacet
  facet normal -1.000000e+000  7.687652e-016 -1.855966e-015
    outer loop
      vertex  7.105427e-015 -6.200000e+001  0.000000e+000
      vertex  0.000000e+000 -6.470711e+001  2.707107e+000
      vertex  0.000000e+000 -6.400000e+001  3.000000e+000
    endloop
  endfacet
  facet normal  0.000000e+000  0.000000e+000  1.000000e+000
    outer loop
      vertex -1.500000e+000 -1.720577e+001  3.000000e+000
      vertex -8.263518e-001 -1.708699e+001  3.000000e+000
      vertex -1.500000e+001  2.240192e+001  3.000000e+000
    endloop
  endfacet
  facet normal  0.000000e+000  0.000000e+000  1.000000e+000
    outer loop
      vertex -1.275000e+001 -2.370096e+001  3.000000e+000
      vertex -1.500000e+000 -1.720577e+001  3.000000e+000
      vertex -1.500000e+001  2.240192e+001  3.000000e+000
    endloop
  endfacet
  facet normal  0.000000e+000  0.000000e+000  1.000000e+000
    outer loop
      vertex -1.275000e+001 -2.370096e+001  3.000000e+000
      vertex -1.500000e+001  2.240192e+001  3.000000e+000
      vertex -1.500000e+001 -2.240192e+001  3.000000e+000
    endloop
  endfacet
  facet normal  0.000000e+000  0.000000e+000  9.999999e-001
    outer loop
      vertex -1.275000e+001 -2.370096e+001  3.000000e+000
      vertex -1.500000e+001 -2.240192e+001  3.000000e+000
      vertex -1.464907e+001 -2.336611e+001  3.000000e+000
    endloop
  endfacet
  facet normal  0.000000e+000  0.000000e+000  1.000000e+000
    outer loop
      vertex -1.275000e+001 -2.370096e+001  3.000000e+000
      vertex -1.464907e+001 -2.336611e+001  3.000000e+000
      vertex -1.376047e+001 -2.387914e+001  3.000000e+000
    endloop
  endfacet
  facet normal  -0.000000e+000  0.000000e+000  9.999999e-001
    outer loop
      vertex  1.240000e+002  6.400000e+001  3.000000e+000
      vertex  0.000000e+000  6.400000e+001  3.000000e+000
      vertex  0.000000e+000  1.807180e+001  3.000000e+000
    endloop
  endfacet
  facet normal  -0.000000e+000  0.000000e+000  1.000000e+000
    outer loop
      vertex  1.240000e+002  6.400000e+001  3.000000e+000
      vertex  0.000000e+000  1.807180e+001  3.000000e+000
      vertex  0.000000e+000 -1.807180e+001  3.000000e+000
    endloop
  endfacet
  facet normal  -0.000000e+000  0.000000e+000  9.999999e-001
    outer loop
      vertex  1.240000e+002  6.400000e+001  3.000000e+000
      vertex  0.000000e+000 -1.807180e+001  3.000000e+000
      vertex  0.000000e+000 -6.400000e+001  3.000000e+000
    endloop
  endfacet
  facet normal  0.000000e+000  0.000000e+000  1.000000e+000
    outer loop
      vertex  1.240000e+002  6.400000e+001  3.000000e+000
      vertex  0.000000e+000 -6.400000e+001  3.000000e+000
      vertex  1.240000e+002 -6.400000e+001  3.000000e+000
    endloop
  endfacet
  facet normal  0.000000e+000  0.000000e+000  1.000000e+000
    outer loop
      vertex  0.000000e+000 -1.807180e+001  3.000000e+000
      vertex  0.000000e+000  1.807180e+001  3.000000e+000
      vertex -2.339556e-001  1.742901e+001  3.000000e+000
    endloop
  endfacet
  facet normal  0.000000e+000  0.000000e+000  1.000000e+000
    outer loop
      vertex  0.000000e+000 -1.807180e+001  3.000000e+000
      vertex -2.339556e-001  1.742901e+001  3.000000e+000
      vertex -8.263518e-001  1.708699e+001  3.000000e+000
    endloop
  endfacet
  facet normal  0.000000e+000  0.000000e+000  1.000000e+000
    outer loop
      vertex  0.000000e+000 -1.807180e+001  3.000000e+000
      vertex -8.263518e-001  1.708699e+001  3.000000e+000
      vertex -2.339556e-001 -1.742901e+001  3.000000e+000
    endloop
  endfacet
  facet normal  0.000000e+000  0.000000e+000  1.000000e+000
    outer loop
      vertex -1.376047e+001  2.387914e+001  3.000000e+000
      vertex -1.464907e+001  2.336611e+001  3.000000e+000
      vertex -1.275000e+001  2.370096e+001  3.000000e+000
    endloop
  endfacet
  facet normal  0.000000e+000  0.000000e+000  9.999999e-001
    outer loop
      vertex -1.275000e+001  2.370096e+001  3.000000e+000
      vertex -1.464907e+001  2.336611e+001  3.000000e+000
      vertex -1.500000e+001  2.240192e+001  3.000000e+000
    endloop
  endfacet
  facet normal  -0.000000e+000  0.000000e+000  1.000000e+000
    outer loop
      vertex -1.275000e+001  2.370096e+001  3.000000e+000
      vertex -1.500000e+001  2.240192e+001  3.000000e+000
      vertex -1.500000e+000  1.720577e+001  3.000000e+000
    endloop
  endfacet
  facet normal  0.000000e+000  0.000000e+000  9.999999e-001
    outer loop
      vertex -1.500000e+000  1.720577e+001  3.000000e+000
      vertex -1.500000e+001  2.240192e+001  3.000000e+000
      vertex -8.263518e-001 -1.708699e+001  3.000000e+000
    endloop
  endfacet
  facet normal  0.000000e+000  -0.000000e+000  1.000000e+000
    outer loop
      vertex -1.500000e+000  1.720577e+001  3.000000e+000
      vertex -8.263518e-001 -1.708699e+001  3.000000e+000
      vertex -8.263518e-001  1.708699e+001  3.000000e+000
    endloop
  endfacet
  facet normal  0.000000e+000  0.000000e+000  1.000000e+000
    outer loop
      vertex -8.263518e-001  1.708699e+001  3.000000e+000
      vertex -8.263518e-001 -1.708699e+001  3.000000e+000
      vertex -2.339556e-001 -1.742901e+001  3.000000e+000
    endloop
  endfacet
  facet normal  -0.000000e+000  0.000000e+000 -1.000000e+000
    outer loop
      vertex -1.500000e+001  2.240192e+001 -3.000000e+000
      vertex -8.263518e-001 -1.708699e+001 -3.000000e+000
      vertex -1.500000e+000 -1.720577e+001 -3.000000e+000
    endloop
  endfacet
  facet normal  0.000000e+000  0.000000e+000 -1.000000e+000
    outer loop
      vertex -1.275000e+001 -2.370096e+001 -3.000000e+000
      vertex -1.376047e+001 -2.387914e+001 -3.000000e+000
      vertex -1.464907e+001 -2.336611e+001 -3.000000e+000
    endloop
  endfacet
  facet normal  0.000000e+000  0.000000e+000 -9.999999e-001
    outer loop
      vertex -1.275000e+001 -2.370096e+001 -3.000000e+000
      vertex -1.464907e+001 -2.336611e+001 -3.000000e+000
      vertex -1.500000e+001 -2.240192e+001 -3.000000e+000
    endloop
  endfacet
  facet normal  0.000000e+000  0.000000e+000 -1.000000e+000
    outer loop
      vertex -1.275000e+001 -2.370096e+001 -3.000000e+000
      vertex -1.500000e+001 -2.240192e+001 -3.000000e+000
      vertex -1.500000e+001  2.240192e+001 -3.000000e+000
    endloop
  endfacet
  facet normal  0.000000e+000  0.000000e+000 -1.000000e+000
    outer loop
      vertex -1.275000e+001 -2.370096e+001 -3.000000e+000
      vertex -1.500000e+001  2.240192e+001 -3.000000e+000
      vertex -1.500000e+000 -1.720577e+001 -3.000000e+000
    endloop
  endfacet
  facet normal  0.000000e+000  0.000000e+000 -1.000000e+000
    outer loop
      vertex  1.210000e+002  6.100000e+001 -3.000000e+000
      vertex  1.210000e+002 -6.100000e+001 -3.000000e+000
      vertex  0.000000e+000 -6.100000e+001 -3.000000e+000
    endloop
  endfacet
  facet normal  0.000000e+000  0.000000e+000 -1.000000e+000
    outer loop
      vertex  1.210000e+002  6.100000e+001 -3.000000e+000
      vertex  0.000000e+000 -6.100000e+001 -3.000000e+000
      vertex  0.000000e+000 -1.807180e+001 -3.000000e+000
    endloop
  endfacet
  facet normal  0.000000e+000  0.000000e+000 -1.000000e+000
    outer loop
      vertex  1.210000e+002  6.100000e+001 -3.000000e+000
      vertex  0.000000e+000 -1.807180e+001 -3.000000e+000
      vertex  0.000000e+000  1.807180e+001 -3.000000e+000
    endloop
  endfacet
  facet normal  0.000000e+000  0.000000e+000 -1.000000e+000
    outer loop
      vertex  1.210000e+002  6.100000e+001 -3.000000e+000
      vertex  0.000000e+000  1.807180e+001 -3.000000e+000
      vertex  0.000000e+000  6.100000e+001 -3.000000e+000
    endloop
  endfacet
  facet normal  0.000000e+000  0.000000e+000 -1.000000e+000
    outer loop
      vertex  0.000000e+000 -1.807180e+001 -3.000000e+000
      vertex -2.339556e-001 -1.742901e+001 -3.000000e+000
      vertex -8.263518e-001  1.708699e+001 -3.000000e+000
    endloop
  endfacet
  facet normal  0.000000e+000  0.000000e+000 -1.000000e+000
    outer loop
      vertex  0.000000e+000 -1.807180e+001 -3.000000e+000
      vertex -8.263518e-001  1.708699e+001 -3.000000e+000
      vertex -2.339556e-001  1.742901e+001 -3.000000e+000
    endloop
  endfacet
  facet normal  0.000000e+000  0.000000e+000 -1.000000e+000
    outer loop
      vertex  0.000000e+000 -1.807180e+001 -3.000000e+000
      vertex -2.339556e-001  1.742901e+001 -3.000000e+000
      vertex  0.000000e+000  1.807180e+001 -3.000000e+000
    endloop
  endfacet
  facet normal  0.000000e+000  0.000000e+000 -1.000000e+000
    outer loop
      vertex -1.275000e+001  2.370096e+001 -3.000000e+000
      vertex -1.464907e+001  2.336611e+001 -3.000000e+000
      vertex -1.376047e+001  2.387914e+001 -3.000000e+000
    endloop
  endfacet
  facet normal  0.000000e+000  0.000000e+000 -9.999999e-001
    outer loop
      vertex -1.464907e+001  2.336611e+001 -3.000000e+000
      vertex -1.275000e+001  2.370096e+001 -3.000000e+000
      vertex -1.500000e+001  2.240192e+001 -3.000000e+000
    endloop
  endfacet
  facet normal  0.000000e+000  0.000000e+000 -1.000000e+000
    outer loop
      vertex -1.500000e+001  2.240192e+001 -3.000000e+000
      vertex -1.275000e+001  2.370096e+001 -3.000000e+000
      vertex -1.500000e+000  1.720577e+001 -3.000000e+000
    endloop
  endfacet
  facet normal  -0.000000e+000  -0.000000e+000 -9.999999e-001
    outer loop
      vertex -1.500000e+001  2.240192e+001 -3.000000e+000
      vertex -1.500000e+000  1.720577e+001 -3.000000e+000
      vertex -8.263518e-001 -1.708699e+001 -3.000000e+000
    endloop
  endfacet
  facet normal  0.000000e+000  0.000000e+000 -1.000000e+000
    outer loop
      vertex -8.263518e-001 -1.708699e+001 -3.000000e+000
      vertex -1.500000e+000  1.720577e+001 -3.000000e+000
      vertex -8.263518e-001  1.708699e+001 -3.000000e+000
    endloop
  endfacet
  facet normal  0.000000e+000  0.000000e+000 -1.000000e+000
    outer loop
      vertex -8.263518e-001 -1.708699e+001 -3.000000e+000
      vertex -8.263518e-001  1.708699e+001 -3.000000e+000
      vertex -2.339556e-001 -1.742901e+001 -3.000000e+000
    endloop
  endfacet
  facet normal -9.396927e-001 -3.420200e-001  0.000000e+000
    outer loop
      vertex -2.339556e-001 -1.742901e+001  3.000000e+000
      vertex  0.000000e+000 -1.807180e+001 -3.000000e+000
      vertex  0.000000e+000 -1.807180e+001  3.000000e+000
    endloop
  endfacet
  facet normal -9.396927e-001 -3.420200e-001  -0.000000e+000
    outer loop
      vertex  0.000000e+000 -1.807180e+001 -3.000000e+000
      vertex -2.339556e-001 -1.742901e+001  3.000000e+000
      vertex -2.339556e-001 -1.742901e+001 -3.000000e+000
    endloop
  endfacet
  facet normal -4.999999e-001 -8.660255e-001  0.000000e+000
    outer loop
      vertex -2.339556e-001 -1.742901e+001 -3.000000e+000
      vertex -2.339556e-001 -1.742901e+001  3.000000e+000
      vertex -8.263518e-001 -1.708699e+001  3.000000e+000
    endloop
  endfacet
  facet normal -4.999999e-001 -8.660255e-001  -0.000000e+000
    outer loop
      vertex -2.339556e-001 -1.742901e+001 -3.000000e+000
      vertex -8.263518e-001 -1.708699e+001  3.000000e+000
      vertex -8.263518e-001 -1.708699e+001 -3.000000e+000
    endloop
  endfacet
  facet normal  1.736477e-001 -9.848079e-001  0.000000e+000
    outer loop
      vertex -8.263518e-001 -1.708699e+001 -3.000000e+000
      vertex -8.263518e-001 -1.708699e+001  3.000000e+000
      vertex -1.500000e+000 -1.720577e+001  3.000000e+000
    endloop
  endfacet
  facet normal  1.736477e-001 -9.848079e-001  0.000000e+000
    outer loop
      vertex -8.263518e-001 -1.708699e+001 -3.000000e+000
      vertex -1.500000e+000 -1.720577e+001  3.000000e+000
      vertex -1.500000e+000 -1.720577e+001 -3.000000e+000
    endloop
  endfacet
  facet normal  5.000001e-001  8.660253e-001  0.000000e+000
    outer loop
      vertex -1.500000e+000  1.720577e+001 -3.000000e+000
      vertex -1.275000e+001  2.370096e+001 -3.000000e+000
      vertex -1.500000e+000  1.720577e+001  3.000000e+000
    endloop
  endfacet
  facet normal  5.000001e-001  8.660253e-001  0.000000e+000
    outer loop
      vertex -1.500000e+000  1.720577e+001  3.000000e+000
      vertex -1.275000e+001  2.370096e+001 -3.000000e+000
      vertex -1.275000e+001  2.370096e+001  3.000000e+000
    endloop
  endfacet
  facet normal -1.000000e+000 -1.617509e-016  0.000000e+000
    outer loop
      vertex  0.000000e+000  1.807180e+001  3.000000e+000
      vertex -7.105427e-015  6.200000e+001  0.000000e+000
      vertex  0.000000e+000  1.807180e+001 -3.000000e+000
    endloop
  endfacet
  facet normal -1.000000e+000  0.000000e+000 -2.368476e-015
    outer loop
      vertex  0.000000e+000  1.807180e+001 -3.000000e+000
      vertex -7.105427e-015  6.200000e+001  0.000000e+000
      vertex  0.000000e+000  6.100000e+001 -3.000000e+000
    endloop
  endfacet
  facet normal -1.000000e+000  3.552714e-015 -3.552714e-015
    outer loop
      vertex -7.105427e-015  6.200000e+001  0.000000e+000
      vertex  0.000000e+000  6.200000e+001 -2.000000e+000
      vertex  0.000000e+000  6.100000e+001 -3.000000e+000
    endloop
  endfacet
  facet normal -1.000000e+000  0.000000e+000  0.000000e+000
    outer loop
      vertex  0.000000e+000  6.100000e+001 -3.000000e+000
      vertex  0.000000e+000  6.200000e+001 -2.000000e+000
      vertex  0.000000e+000  6.170711e+001 -2.707107e+000
    endloop
  endfacet
  facet normal -1.000000e+000  0.000000e+000  2.368476e-015
    outer loop
      vertex  0.000000e+000  1.807180e+001  3.000000e+000
      vertex  0.000000e+000  6.400000e+001  3.000000e+000
      vertex -7.105427e-015  6.200000e+001  0.000000e+000
    endloop
  endfacet
  facet normal -1.000000e+000  2.368476e-015  7.894919e-016
    outer loop
      vertex -7.105427e-015  6.200000e+001  0.000000e+000
      vertex  0.000000e+000  6.400000e+001  3.000000e+000
      vertex  0.000000e+000  6.500000e+001  0.000000e+000
    endloop
  endfacet
  facet normal -9.999999e-001  -0.000000e+000  -0.000000e+000
    outer loop
      vertex  0.000000e+000  6.400000e+001  3.000000e+000
      vertex  0.000000e+000  6.470711e+001  2.707107e+000
      vertex  0.000000e+000  6.500000e+001  0.000000e+000
    endloop
  endfacet
  facet normal -1.000000e+000  0.000000e+000  0.000000e+000
    outer loop
      vertex  0.000000e+000  6.500000e+001  0.000000e+000
      vertex  0.000000e+000  6.470711e+001  2.707107e+000
      vertex  0.000000e+000  6.500000e+001  2.000000e+000
    endloop
  endfacet
  facet normal  1.736477e-001  9.848079e-001  -0.000000e+000
    outer loop
      vertex -8.263518e-001  1.708699e+001  3.000000e+000
      vertex -1.500000e+000  1.720577e+001 -3.000000e+000
      vertex -1.500000e+000  1.720577e+001  3.000000e+000
    endloop
  endfacet
  facet normal  1.736477e-001  9.848079e-001  0.000000e+000
    outer loop
      vertex -1.500000e+000  1.720577e+001 -3.000000e+000
      vertex -8.263518e-001  1.708699e+001  3.000000e+000
      vertex -8.263518e-001  1.708699e+001 -3.000000e+000
    endloop
  endfacet
  facet normal -4.999999e-001  8.660255e-001  0.000000e+000
    outer loop
      vertex -8.263518e-001  1.708699e+001 -3.000000e+000
      vertex -8.263518e-001  1.708699e+001  3.000000e+000
      vertex -2.339556e-001  1.742901e+001  3.000000e+000
    endloop
  endfacet
  facet normal -4.999999e-001  8.660255e-001  0.000000e+000
    outer loop
      vertex -8.263518e-001  1.708699e+001 -3.000000e+000
      vertex -2.339556e-001  1.742901e+001  3.000000e+000
      vertex -2.339556e-001  1.742901e+001 -3.000000e+000
    endloop
  endfacet
  facet normal -9.396927e-001  3.420200e-001  0.000000e+000
    outer loop
      vertex -2.339556e-001  1.742901e+001 -3.000000e+000
      vertex -2.339556e-001  1.742901e+001  3.000000e+000
      vertex  0.000000e+000  1.807180e+001  3.000000e+000
    endloop
  endfacet
  facet normal -9.396927e-001  3.420200e-001  0.000000e+000
    outer loop
      vertex -2.339556e-001  1.742901e+001 -3.000000e+000
      vertex  0.000000e+000  1.807180e+001  3.000000e+000
      vertex  0.000000e+000  1.807180e+001 -3.000000e+000
    endloop
  endfacet
  facet normal -1.000000e+000  0.000000e+000  0.000000e+000
    outer loop
      vertex -1.500000e+001  2.240192e+001 -3.000000e+000
      vertex -1.500000e+001 -2.240192e+001 -3.000000e+000
      vertex -1.500000e+001  2.240192e+001  3.000000e+000
    endloop
  endfacet
  facet normal -1.000000e+000  -0.000000e+000  0.000000e+000
    outer loop
      vertex -1.500000e+001  2.240192e+001  3.000000e+000
      vertex -1.500000e+001 -2.240192e+001 -3.000000e+000
      vertex -1.500000e+001 -2.240192e+001  3.000000e+000
    endloop
  endfacet
  facet normal  1.736477e-001  9.848079e-001  -0.000000e+000
    outer loop
      vertex -1.275000e+001  2.370096e+001  3.000000e+000
      vertex -1.275000e+001  2.370096e+001 -3.000000e+000
      vertex -1.376047e+001  2.387914e+001  3.000000e+000
    endloop
  endfacet
  facet normal  1.736477e-001  9.848079e-001  0.000000e+000
    outer loop
      vertex -1.376047e+001  2.387914e+001  3.000000e+000
      vertex -1.275000e+001  2.370096e+001 -3.000000e+000
      vertex -1.376047e+001  2.387914e+001 -3.000000e+000
    endloop
  endfacet
  facet normal -4.999991e-001  8.660259e-001  0.000000e+000
    outer loop
      vertex -1.376047e+001  2.387914e+001  3.000000e+000
      vertex -1.376047e+001  2.387914e+001 -3.000000e+000
      vertex -1.464907e+001  2.336611e+001  3.000000e+000
    endloop
  endfacet
  facet normal -4.999991e-001  8.660259e-001  0.000000e+000
    outer loop
      vertex -1.464907e+001  2.336611e+001  3.000000e+000
      vertex -1.376047e+001  2.387914e+001 -3.000000e+000
      vertex -1.464907e+001  2.336611e+001 -3.000000e+000
    endloop
  endfacet
  facet normal -9.396929e-001  3.420198e-001  0.000000e+000
    outer loop
      vertex -1.464907e+001  2.336611e+001  3.000000e+000
      vertex -1.464907e+001  2.336611e+001 -3.000000e+000
      vertex -1.500000e+001  2.240192e+001  3.000000e+000
    endloop
  endfacet
  facet normal -9.396929e-001  3.420198e-001  0.000000e+000
    outer loop
      vertex -1.500000e+001  2.240192e+001  3.000000e+000
      vertex -1.464907e+001  2.336611e+001 -3.000000e+000
      vertex -1.500000e+001  2.240192e+001 -3.000000e+000
    endloop
  endfacet
  facet normal -9.396929e-001 -3.420198e-001  0.000000e+000
    outer loop
      vertex -1.500000e+001 -2.240192e+001  3.000000e+000
      vertex -1.500000e+001 -2.240192e+001 -3.000000e+000
      vertex -1.464907e+001 -2.336611e+001  3.000000e+000
    endloop
  endfacet
  facet normal -9.396929e-001 -3.420198e-001  -0.000000e+000
    outer loop
      vertex -1.464907e+001 -2.336611e+001  3.000000e+000
      vertex -1.500000e+001 -2.240192e+001 -3.000000e+000
      vertex -1.464907e+001 -2.336611e+001 -3.000000e+000
    endloop
  endfacet
  facet normal -4.999991e-001 -8.660259e-001  0.000000e+000
    outer loop
      vertex -1.464907e+001 -2.336611e+001  3.000000e+000
      vertex -1.464907e+001 -2.336611e+001 -3.000000e+000
      vertex -1.376047e+001 -2.387914e+001  3.000000e+000
    endloop
  endfacet
  facet normal -4.999991e-001 -8.660259e-001  -0.000000e+000
    outer loop
      vertex -1.376047e+001 -2.387914e+001  3.000000e+000
      vertex -1.464907e+001 -2.336611e+001 -3.000000e+000
      vertex -1.376047e+001 -2.387914e+001 -3.000000e+000
    endloop
  endfacet
  facet normal  1.736477e-001 -9.848079e-001  0.000000e+000
    outer loop
      vertex -1.376047e+001 -2.387914e+001  3.000000e+000
      vertex -1.376047e+001 -2.387914e+001 -3.000000e+000
      vertex -1.275000e+001 -2.370096e+001  3.000000e+000
    endloop
  endfacet
  facet normal  1.736477e-001 -9.848079e-001  0.000000e+000
    outer loop
      vertex -1.275000e+001 -2.370096e+001  3.000000e+000
      vertex -1.376047e+001 -2.387914e+001 -3.000000e+000
      vertex -1.275000e+001 -2.370096e+001 -3.000000e+000
    endloop
  endfacet
  facet normal  0.000000e+000 -1.000000e+000  0.000000e+000
    outer loop
      vertex  1.240000e+002 -6.500000e+001  2.000000e+000
      vertex  0.000000e+000 -6.500000e+001  2.000000e+000
      vertex  1.240000e+002 -6.500000e+001  0.000000e+000
    endloop
  endfacet
  facet normal  0.000000e+000 -1.000000e+000  0.000000e+000
    outer loop
      vertex  1.240000e+002 -6.500000e+001  0.000000e+000
      vertex  0.000000e+000 -6.500000e+001  2.000000e+000
      vertex  0.000000e+000 -6.500000e+001  0.000000e+000
    endloop
  endfacet
  facet normal  0.000000e+000  1.000000e+000  0.000000e+000
    outer loop
      vertex  0.000000e+000  6.500000e+001  2.000000e+000
      vertex  1.240000e+002  6.500000e+001  2.000000e+000
      vertex  0.000000e+000  6.500000e+001  0.000000e+000
    endloop
  endfacet
  facet normal  0.000000e+000  1.000000e+000  0.000000e+000
    outer loop
      vertex  0.000000e+000  6.500000e+001  0.000000e+000
      vertex  1.240000e+002  6.500000e+001  2.000000e+000
      vertex  1.240000e+002  6.500000e+001  0.000000e+000
    endloop
  endfacet
  facet normal  0.000000e+000  3.826830e-001  9.238796e-001
    outer loop
      vertex  0.000000e+000  6.400000e+001  3.000000e+000
      vertex  1.240000e+002  6.400000e+001  3.000000e+000
      vertex  0.000000e+000  6.470711e+001  2.707107e+000
    endloop
  endfacet
  facet normal  -0.000000e+000  3.826830e-001  9.238796e-001
    outer loop
      vertex  0.000000e+000  6.470711e+001  2.707107e+000
      vertex  1.240000e+002  6.400000e+001  3.000000e+000
      vertex  1.240000e+002  6.470711e+001  2.707107e+000
    endloop
  endfacet
  facet normal  0.000000e+000  9.238799e-001  3.826826e-001
    outer loop
      vertex  0.000000e+000  6.470711e+001  2.707107e+000
      vertex  1.240000e+002  6.470711e+001  2.707107e+000
      vertex  0.000000e+000  6.500000e+001  2.000000e+000
    endloop
  endfacet
  facet normal  -0.000000e+000  9.238799e-001  3.826826e-001
    outer loop
      vertex  0.000000e+000  6.500000e+001  2.000000e+000
      vertex  1.240000e+002  6.470711e+001  2.707107e+000
      vertex  1.240000e+002  6.500000e+001  2.000000e+000
    endloop
  endfacet
  facet normal  0.000000e+000 -3.826830e-001  9.238796e-001
    outer loop
      vertex  1.240000e+002 -6.400000e+001  3.000000e+000
      vertex  0.000000e+000 -6.400000e+001  3.000000e+000
      vertex  1.240000e+002 -6.470711e+001  2.707107e+000
    endloop
  endfacet
  facet normal  0.000000e+000 -3.826830e-001  9.238796e-001
    outer loop
      vertex  1.240000e+002 -6.470711e+001  2.707107e+000
      vertex  0.000000e+000 -6.400000e+001  3.000000e+000
      vertex  0.000000e+000 -6.470711e+001  2.707107e+000
    endloop
  endfacet
  facet normal  0.000000e+000 -9.238799e-001  3.826826e-001
    outer loop
      vertex  1.240000e+002 -6.470711e+001  2.707107e+000
      vertex  0.000000e+000 -6.470711e+001  2.707107e+000
      vertex  1.240000e+002 -6.500000e+001  2.000000e+000
    endloop
  endfacet
  facet normal  0.000000e+000 -9.238799e-001  3.826826e-001
    outer loop
      vertex  1.240000e+002 -6.500000e+001  2.000000e+000
      vertex  0.000000e+000 -6.470711e+001  2.707107e+000
      vertex  0.000000e+000 -6.500000e+001  2.000000e+000
    endloop
  endfacet
  facet normal  -0.000000e+000  0.000000e+000 -9.999999e-001
    outer loop
      vertex  1.250000e+002 -6.400000e+001  0.000000e+000
      vertex  1.247071e+002 -6.470711e+001  0.000000e+000
      vertex  1.240000e+002 -6.500000e+001  0.000000e+000
    endloop
  endfacet
  facet normal  0.000000e+000  0.000000e+000 -1.000000e+000
    outer loop
      vertex  1.250000e+002 -6.400000e+001  0.000000e+000
      vertex  1.240000e+002 -6.500000e+001  0.000000e+000
      vertex  0.000000e+000 -6.500000e+001  0.000000e+000
    endloop
  endfacet
  facet normal  0.000000e+000  0.000000e+000 -1.000000e+000
    outer loop
      vertex  1.250000e+002 -6.400000e+001  0.000000e+000
      vertex  0.000000e+000 -6.500000e+001  0.000000e+000
      vertex  7.105427e-015 -6.200000e+001  0.000000e+000
    endloop
  endfacet
  facet normal  0.000000e+000  0.000000e+000 -9.999999e-001
    outer loop
      vertex  1.250000e+002 -6.400000e+001  0.000000e+000
      vertex  7.105427e-015 -6.200000e+001  0.000000e+000
      vertex  1.210000e+002 -6.200000e+001  0.000000e+000
    endloop
  endfacet
  facet normal  0.000000e+000  0.000000e+000 -1.000000e+000
    outer loop
      vertex  1.250000e+002 -6.400000e+001  0.000000e+000
      vertex  1.210000e+002 -6.200000e+001  0.000000e+000
      vertex  1.217071e+002 -6.170711e+001  0.000000e+000
    endloop
  endfacet
  facet normal  0.000000e+000  0.000000e+000 -1.000000e+000
    outer loop
      vertex  1.250000e+002 -6.400000e+001  0.000000e+000
      vertex  1.217071e+002 -6.170711e+001  0.000000e+000
      vertex  1.220000e+002 -6.100000e+001  0.000000e+000
    endloop
  endfacet
  facet normal  0.000000e+000  0.000000e+000 -1.000000e+000
    outer loop
      vertex  1.250000e+002 -6.400000e+001  0.000000e+000
      vertex  1.220000e+002 -6.100000e+001  0.000000e+000
      vertex  1.220000e+002  6.100000e+001  0.000000e+000
    endloop
  endfacet
  facet normal  0.000000e+000  0.000000e+000 -1.000000e+000
    outer loop
      vertex  1.250000e+002 -6.400000e+001  0.000000e+000
      vertex  1.220000e+002  6.100000e+001  0.000000e+000
      vertex  1.250000e+002  6.400000e+001  0.000000e+000
    endloop
  endfacet
  facet normal  0.000000e+000  0.000000e+000 -1.000000e+000
    outer loop
      vertex  1.250000e+002  6.400000e+001  0.000000e+000
      vertex  1.220000e+002  6.100000e+001  0.000000e+000
      vertex  1.217071e+002  6.170711e+001  0.000000e+000
    endloop
  endfacet
  facet normal  0.000000e+000  0.000000e+000 -1.000000e+000
    outer loop
      vertex  1.250000e+002  6.400000e+001  0.000000e+000
      vertex  1.217071e+002  6.170711e+001  0.000000e+000
      vertex  1.210000e+002  6.200000e+001  0.000000e+000
    endloop
  endfacet
  facet normal  0.000000e+000  0.000000e+000 -9.999999e-001
    outer loop
      vertex  1.250000e+002  6.400000e+001  0.000000e+000
      vertex  1.210000e+002  6.200000e+001  0.000000e+000
      vertex -7.105427e-015  6.200000e+001  0.000000e+000
    endloop
  endfacet
  facet normal  0.000000e+000  -0.000000e+000 -1.000000e+000
    outer loop
      vertex -7.105427e-015  6.200000e+001  0.000000e+000
      vertex  0.000000e+000  6.500000e+001  0.000000e+000
      vertex  1.240000e+002  6.500000e+001  0.000000e+000
    endloop
  endfacet
  facet normal  0.000000e+000  -0.000000e+000 -1.000000e+000
    outer loop
      vertex -7.105427e-015  6.200000e+001  0.000000e+000
      vertex  1.240000e+002  6.500000e+001  0.000000e+000
      vertex  1.247071e+002  6.470711e+001  0.000000e+000
    endloop
  endfacet
  facet normal  0.000000e+000  -0.000000e+000 -9.999999e-001
    outer loop
      vertex -7.105427e-015  6.200000e+001  0.000000e+000
      vertex  1.247071e+002  6.470711e+001  0.000000e+000
      vertex  1.250000e+002  6.400000e+001  0.000000e+000
    endloop
  endfacet
  facet normal  0.000000e+000  9.999999e-001  0.000000e+000
    outer loop
      vertex  0.000000e+000  6.200000e+001 -2.000000e+000
      vertex -7.105427e-015  6.200000e+001  0.000000e+000
      vertex  1.210000e+002  6.200000e+001 -2.000000e+000
    endloop
  endfacet
  facet normal  0.000000e+000  9.999999e-001  -0.000000e+000
    outer loop
      vertex  1.210000e+002  6.200000e+001 -2.000000e+000
      vertex -7.105427e-015  6.200000e+001  0.000000e+000
      vertex  1.210000e+002  6.200000e+001  0.000000e+000
    endloop
  endfacet
  facet normal  0.000000e+000 -9.999999e-001  -0.000000e+000
    outer loop
      vertex  1.210000e+002 -6.200000e+001 -2.000000e+000
      vertex  1.210000e+002 -6.200000e+001  0.000000e+000
      vertex  0.000000e+000 -6.200000e+001 -2.000000e+000
    endloop
  endfacet
  facet normal  0.000000e+000 -9.999999e-001  0.000000e+000
    outer loop
      vertex  0.000000e+000 -6.200000e+001 -2.000000e+000
      vertex  1.210000e+002 -6.200000e+001  0.000000e+000
      vertex  7.105427e-015 -6.200000e+001  0.000000e+000
    endloop
  endfacet
  facet normal  0.000000e+000  9.238799e-001 -3.826826e-001
    outer loop
      vertex  0.000000e+000  6.200000e+001 -2.000000e+000
      vertex  1.210000e+002  6.200000e+001 -2.000000e+000
      vertex  0.000000e+000  6.170711e+001 -2.707107e+000
    endloop
  endfacet
  facet normal  0.000000e+000  9.238799e-001 -3.826826e-001
    outer loop
      vertex  0.000000e+000  6.170711e+001 -2.707107e+000
      vertex  1.210000e+002  6.200000e+001 -2.000000e+000
      vertex  1.210000e+002  6.170711e+001 -2.707107e+000
    endloop
  endfacet
  facet normal  0.000000e+000  3.826830e-001 -9.238797e-001
    outer loop
      vertex  0.000000e+000  6.170711e+001 -2.707107e+000
      vertex  1.210000e+002  6.170711e+001 -2.707107e+000
      vertex  0.000000e+000  6.100000e+001 -3.000000e+000
    endloop
  endfacet
  facet normal  0.000000e+000  3.826830e-001 -9.238797e-001
    outer loop
      vertex  0.000000e+000  6.100000e+001 -3.000000e+000
      vertex  1.210000e+002  6.170711e+001 -2.707107e+000
      vertex  1.210000e+002  6.100000e+001 -3.000000e+000
    endloop
  endfacet
  facet normal  0.000000e+000 -9.238799e-001 -3.826826e-001
    outer loop
      vertex  1.210000e+002 -6.200000e+001 -2.000000e+000
      vertex  0.000000e+000 -6.200000e+001 -2.000000e+000
      vertex  1.210000e+002 -6.170711e+001 -2.707107e+000
    endloop
  endfacet
  facet normal  -0.000000e+000 -9.238799e-001 -3.826826e-001
    outer loop
      vertex  1.210000e+002 -6.170711e+001 -2.707107e+000
      vertex  0.000000e+000 -6.200000e+001 -2.000000e+000
      vertex  0.000000e+000 -6.170711e+001 -2.707107e+000
    endloop
  endfacet
  facet normal  0.000000e+000 -3.826830e-001 -9.238797e-001
    outer loop
      vertex  1.210000e+002 -6.170711e+001 -2.707107e+000
      vertex  0.000000e+000 -6.170711e+001 -2.707107e+000
      vertex  1.210000e+002 -6.100000e+001 -3.000000e+000
    endloop
  endfacet
  facet normal  -0.000000e+000 -3.826830e-001 -9.238797e-001
    outer loop
      vertex  1.210000e+002 -6.100000e+001 -3.000000e+000
      vertex  0.000000e+000 -6.170711e+001 -2.707107e+000
      vertex  0.000000e+000 -6.100000e+001 -3.000000e+000
    endloop
  endfacet
  facet normal  3.826822e-001 -9.238800e-001  0.000000e+000
    outer loop
      vertex  1.210000e+002 -6.200000e+001  0.000000e+000
      vertex  1.210000e+002 -6.200000e+001 -2.000000e+000
      vertex  1.217071e+002 -6.170711e+001  0.000000e+000
    endloop
  endfacet
  facet normal  3.826822e-001 -9.238800e-001  0.000000e+000
    outer loop
      vertex  1.217071e+002 -6.170711e+001  0.000000e+000
      vertex  1.210000e+002 -6.200000e+001 -2.000000e+000
      vertex  1.217071e+002 -6.170711e+001 -2.000000e+000
    endloop
  endfacet
  facet normal  9.238800e-001 -3.826822e-001  0.000000e+000
    outer loop
      vertex  1.217071e+002 -6.170711e+001  0.000000e+000
      vertex  1.217071e+002 -6.170711e+001 -2.000000e+000
      vertex  1.220000e+002 -6.100000e+001  0.000000e+000
    endloop
  endfacet
  facet normal  9.238800e-001 -3.826822e-001  0.000000e+000
    outer loop
      vertex  1.220000e+002 -6.100000e+001  0.000000e+000
      vertex  1.217071e+002 -6.170711e+001 -2.000000e+000
      vertex  1.220000e+002 -6.100000e+001 -2.000000e+000
    endloop
  endfacet
  facet normal  9.999999e-001  0.000000e+000  0.000000e+000
    outer loop
      vertex  1.220000e+002  6.100000e+001 -2.000000e+000
      vertex  1.220000e+002  6.100000e+001  0.000000e+000
      vertex  1.220000e+002 -6.100000e+001 -2.000000e+000
    endloop
  endfacet
  facet normal  9.999999e-001  0.000000e+000  0.000000e+000
    outer loop
      vertex  1.220000e+002 -6.100000e+001 -2.000000e+000
      vertex  1.220000e+002  6.100000e+001  0.000000e+000
      vertex  1.220000e+002 -6.100000e+001  0.000000e+000
    endloop
  endfacet
  facet normal  9.238800e-001  3.826822e-001  -0.000000e+000
    outer loop
      vertex  1.220000e+002  6.100000e+001  0.000000e+000
      vertex  1.220000e+002  6.100000e+001 -2.000000e+000
      vertex  1.217071e+002  6.170711e+001  0.000000e+000
    endloop
  endfacet
  facet normal  9.238800e-001  3.826822e-001  0.000000e+000
    outer loop
      vertex  1.217071e+002  6.170711e+001  0.000000e+000
      vertex  1.220000e+002  6.100000e+001 -2.000000e+000
      vertex  1.217071e+002  6.170711e+001 -2.000000e+000
    endloop
  endfacet
  facet normal  3.826822e-001  9.238800e-001  -0.000000e+000
    outer loop
      vertex  1.217071e+002  6.170711e+001  0.000000e+000
      vertex  1.217071e+002  6.170711e+001 -2.000000e+000
      vertex  1.210000e+002  6.200000e+001  0.000000e+000
    endloop
  endfacet
  facet normal  3.826822e-001  9.238800e-001  0.000000e+000
    outer loop
      vertex  1.210000e+002  6.200000e+001  0.000000e+000
      vertex  1.217071e+002  6.170711e+001 -2.000000e+000
      vertex  1.210000e+002  6.200000e+001 -2.000000e+000
    endloop
  endfacet
  facet normal  3.779640e-001  1.565584e-001 -9.124871e-001
    outer loop
      vertex  1.210000e+002  6.100000e+001 -3.000000e+000
      vertex  1.215000e+002  6.150000e+001 -2.707107e+000
      vertex  1.217071e+002  6.100000e+001 -2.707107e+000
    endloop
  endfacet
  facet normal  1.565584e-001  3.779640e-001 -9.124871e-001
    outer loop
      vertex  1.210000e+002  6.100000e+001 -3.000000e+000
      vertex  1.210000e+002  6.170711e+001 -2.707107e+000
      vertex  1.215000e+002  6.150000e+001 -2.707107e+000
    endloop
  endfacet
  facet normal  3.574080e-001  8.628561e-001 -3.574058e-001
    outer loop
      vertex  1.210000e+002  6.170711e+001 -2.707107e+000
      vertex  1.210000e+002  6.200000e+001 -2.000000e+000
      vertex  1.215000e+002  6.150000e+001 -2.707107e+000
    endloop
  endfacet
  facet normal  3.574055e-001  8.628563e-001 -3.574077e-001
    outer loop
      vertex  1.215000e+002  6.150000e+001 -2.707107e+000
      vertex  1.210000e+002  6.200000e+001 -2.000000e+000
      vertex  1.217071e+002  6.170711e+001 -2.000000e+000
    endloop
  endfacet
  facet normal  8.628554e-001  3.574077e-001 -3.574080e-001
    outer loop
      vertex  1.215000e+002  6.150000e+001 -2.707107e+000
      vertex  1.217071e+002  6.170711e+001 -2.000000e+000
      vertex  1.217071e+002  6.100000e+001 -2.707107e+000
    endloop
  endfacet
  facet normal  8.628569e-001  3.574057e-001 -3.574060e-001
    outer loop
      vertex  1.217071e+002  6.100000e+001 -2.707107e+000
      vertex  1.217071e+002  6.170711e+001 -2.000000e+000
      vertex  1.220000e+002  6.100000e+001 -2.000000e+000
    endloop
  endfacet
  facet normal  9.238800e-001  0.000000e+000 -3.826826e-001
    outer loop
      vertex  1.220000e+002  6.100000e+001 -2.000000e+000
      vertex  1.220000e+002 -6.100000e+001 -2.000000e+000
      vertex  1.217071e+002  6.100000e+001 -2.707107e+000
    endloop
  endfacet
  facet normal  9.238800e-001  0.000000e+000 -3.826826e-001
    outer loop
      vertex  1.217071e+002  6.100000e+001 -2.707107e+000
      vertex  1.220000e+002 -6.100000e+001 -2.000000e+000
      vertex  1.217071e+002 -6.100000e+001 -2.707107e+000
    endloop
  endfacet
  facet normal  3.826830e-001  0.000000e+000 -9.238797e-001
    outer loop
      vertex  1.217071e+002  6.100000e+001 -2.707107e+000
      vertex  1.217071e+002 -6.100000e+001 -2.707107e+000
      vertex  1.210000e+002  6.100000e+001 -3.000000e+000
    endloop
  endfacet
  facet normal  3.826830e-001  0.000000e+000 -9.238797e-001
    outer loop
      vertex  1.210000e+002  6.100000e+001 -3.000000e+000
      vertex  1.217071e+002 -6.100000e+001 -2.707107e+000
      vertex  1.210000e+002 -6.100000e+001 -3.000000e+000
    endloop
  endfacet
  facet normal  1.565584e-001 -3.779640e-001 -9.124871e-001
    outer loop
      vertex  1.210000e+002 -6.100000e+001 -3.000000e+000
      vertex  1.215000e+002 -6.150000e+001 -2.707107e+000
      vertex  1.210000e+002 -6.170711e+001 -2.707107e+000
    endloop
  endfacet
  facet normal  3.779640e-001 -1.565584e-001 -9.124871e-001
    outer loop
      vertex  1.210000e+002 -6.100000e+001 -3.000000e+000
      vertex  1.217071e+002 -6.100000e+001 -2.707107e+000
      vertex  1.215000e+002 -6.150000e+001 -2.707107e+000
    endloop
  endfacet
  facet normal  8.628561e-001 -3.574080e-001 -3.574058e-001
    outer loop
      vertex  1.217071e+002 -6.100000e+001 -2.707107e+000
      vertex  1.220000e+002 -6.100000e+001 -2.000000e+000
      vertex  1.215000e+002 -6.150000e+001 -2.707107e+000
    endloop
  endfacet
  facet normal  8.628563e-001 -3.574055e-001 -3.574077e-001
    outer loop
      vertex  1.215000e+002 -6.150000e+001 -2.707107e+000
      vertex  1.220000e+002 -6.100000e+001 -2.000000e+000
      vertex  1.217071e+002 -6.170711e+001 -2.000000e+000
    endloop
  endfacet
  facet normal  3.574077e-001 -8.628554e-001 -3.574080e-001
    outer loop
      vertex  1.215000e+002 -6.150000e+001 -2.707107e+000
      vertex  1.217071e+002 -6.170711e+001 -2.000000e+000
      vertex  1.210000e+002 -6.170711e+001 -2.707107e+000
    endloop
  endfacet
  facet normal  3.574057e-001 -8.628569e-001 -3.574060e-001
    outer loop
      vertex  1.210000e+002 -6.170711e+001 -2.707107e+000
      vertex  1.217071e+002 -6.170711e+001 -2.000000e+000
      vertex  1.210000e+002 -6.200000e+001 -2.000000e+000
    endloop
  endfacet
  facet normal  1.000000e+000  -0.000000e+000  0.000000e+000
    outer loop
      vertex  1.250000e+002  6.400000e+001  2.000000e+000
      vertex  1.250000e+002 -6.400000e+001  2.000000e+000
      vertex  1.250000e+002  6.400000e+001  0.000000e+000
    endloop
  endfacet
  facet normal  1.000000e+000  0.000000e+000  0.000000e+000
    outer loop
      vertex  1.250000e+002  6.400000e+001  0.000000e+000
      vertex  1.250000e+002 -6.400000e+001  2.000000e+000
      vertex  1.250000e+002 -6.400000e+001  0.000000e+000
    endloop
  endfacet
  facet normal  9.238800e-001 -3.826822e-001  0.000000e+000
    outer loop
      vertex  1.250000e+002 -6.400000e+001  0.000000e+000
      vertex  1.250000e+002 -6.400000e+001  2.000000e+000
      vertex  1.247071e+002 -6.470711e+001  0.000000e+000
    endloop
  endfacet
  facet normal  9.238800e-001 -3.826822e-001  0.000000e+000
    outer loop
      vertex  1.247071e+002 -6.470711e+001  0.000000e+000
      vertex  1.250000e+002 -6.400000e+001  2.000000e+000
      vertex  1.247071e+002 -6.470711e+001  2.000000e+000
    endloop
  endfacet
  facet normal  3.826822e-001 -9.238800e-001  0.000000e+000
    outer loop
      vertex  1.247071e+002 -6.470711e+001  0.000000e+000
      vertex  1.247071e+002 -6.470711e+001  2.000000e+000
      vertex  1.240000e+002 -6.500000e+001  0.000000e+000
    endloop
  endfacet
  facet normal  3.826822e-001 -9.238800e-001  0.000000e+000
    outer loop
      vertex  1.240000e+002 -6.500000e+001  0.000000e+000
      vertex  1.247071e+002 -6.470711e+001  2.000000e+000
      vertex  1.240000e+002 -6.500000e+001  2.000000e+000
    endloop
  endfacet
  facet normal  3.826822e-001  9.238800e-001  0.000000e+000
    outer loop
      vertex  1.240000e+002  6.500000e+001  0.000000e+000
      vertex  1.240000e+002  6.500000e+001  2.000000e+000
      vertex  1.247071e+002  6.470711e+001  0.000000e+000
    endloop
  endfacet
  facet normal  3.826822e-001  9.238800e-001  -0.000000e+000
    outer loop
      vertex  1.247071e+002  6.470711e+001  0.000000e+000
      vertex  1.240000e+002  6.500000e+001  2.000000e+000
      vertex  1.247071e+002  6.470711e+001  2.000000e+000
    endloop
  endfacet
  facet normal  9.238800e-001  3.826822e-001  0.000000e+000
    outer loop
      vertex  1.247071e+002  6.470711e+001  0.000000e+000
      vertex  1.247071e+002  6.470711e+001  2.000000e+000
      vertex  1.250000e+002  6.400000e+001  0.000000e+000
    endloop
  endfacet
  facet normal  9.238800e-001  3.826822e-001  -0.000000e+000
    outer loop
      vertex  1.250000e+002  6.400000e+001  0.000000e+000
      vertex  1.247071e+002  6.470711e+001  2.000000e+000
      vertex  1.250000e+002  6.400000e+001  2.000000e+000
    endloop
  endfacet
  facet normal  9.124873e-001  1.565577e-001  3.779636e-001
    outer loop
      vertex  1.250000e+002  6.400000e+001  2.000000e+000
      vertex  1.247071e+002  6.450000e+001  2.500000e+000
      vertex  1.247071e+002  6.400000e+001  2.707107e+000
    endloop
  endfacet
  facet normal  9.124874e-001  3.779633e-001  1.565581e-001
    outer loop
      vertex  1.250000e+002  6.400000e+001  2.000000e+000
      vertex  1.247071e+002  6.470711e+001  2.000000e+000
      vertex  1.247071e+002  6.450000e+001  2.500000e+000
    endloop
  endfacet
  facet normal  3.574054e-001  8.628561e-001  3.574080e-001
    outer loop
      vertex  1.247071e+002  6.470711e+001  2.000000e+000
      vertex  1.240000e+002  6.500000e+001  2.000000e+000
      vertex  1.247071e+002  6.450000e+001  2.500000e+000
    endloop
  endfacet
  facet normal  3.574071e-001  8.628564e-001  3.574059e-001
    outer loop
      vertex  1.247071e+002  6.450000e+001  2.500000e+000
      vertex  1.240000e+002  6.500000e+001  2.000000e+000
      vertex  1.240000e+002  6.470711e+001  2.707107e+000
    endloop
  endfacet
  facet normal  3.574068e-001  3.574068e-001  8.628561e-001
    outer loop
      vertex  1.247071e+002  6.450000e+001  2.500000e+000
      vertex  1.240000e+002  6.470711e+001  2.707107e+000
      vertex  1.247071e+002  6.400000e+001  2.707107e+000
    endloop
  endfacet
  facet normal  3.574064e-001  3.574064e-001  8.628565e-001
    outer loop
      vertex  1.247071e+002  6.400000e+001  2.707107e+000
      vertex  1.240000e+002  6.470711e+001  2.707107e+000
      vertex  1.240000e+002  6.400000e+001  3.000000e+000
    endloop
  endfacet
  facet normal  3.826830e-001  -0.000000e+000  9.238796e-001
    outer loop
      vertex  1.240000e+002  6.400000e+001  3.000000e+000
      vertex  1.240000e+002 -6.400000e+001  3.000000e+000
      vertex  1.247071e+002  6.400000e+001  2.707107e+000
    endloop
  endfacet
  facet normal  3.826830e-001  0.000000e+000  9.238796e-001
    outer loop
      vertex  1.247071e+002  6.400000e+001  2.707107e+000
      vertex  1.240000e+002 -6.400000e+001  3.000000e+000
      vertex  1.247071e+002 -6.400000e+001  2.707107e+000
    endloop
  endfacet
  facet normal  9.238799e-001  -0.000000e+000  3.826826e-001
    outer loop
      vertex  1.247071e+002  6.400000e+001  2.707107e+000
      vertex  1.247071e+002 -6.400000e+001  2.707107e+000
      vertex  1.250000e+002  6.400000e+001  2.000000e+000
    endloop
  endfacet
  facet normal  9.238799e-001  0.000000e+000  3.826826e-001
    outer loop
      vertex  1.250000e+002  6.400000e+001  2.000000e+000
      vertex  1.247071e+002 -6.400000e+001  2.707107e+000
      vertex  1.250000e+002 -6.400000e+001  2.000000e+000
    endloop
  endfacet
  facet normal  9.124874e-001 -3.779633e-001  1.565581e-001
    outer loop
      vertex  1.250000e+002 -6.400000e+001  2.000000e+000
      vertex  1.247071e+002 -6.450000e+001  2.500000e+000
      vertex  1.247071e+002 -6.470711e+001  2.000000e+000
    endloop
  endfacet
  facet normal  9.124873e-001 -1.565577e-001  3.779636e-001
    outer loop
      vertex  1.250000e+002 -6.400000e+001  2.000000e+000
      vertex  1.247071e+002 -6.400000e+001  2.707107e+000
      vertex  1.247071e+002 -6.450000e+001  2.500000e+000
    endloop
  endfacet
  facet normal  3.574063e-001 -3.574069e-001  8.628563e-001
    outer loop
      vertex  1.247071e+002 -6.400000e+001  2.707107e+000
      vertex  1.240000e+002 -6.400000e+001  3.000000e+000
      vertex  1.247071e+002 -6.450000e+001  2.500000e+000
    endloop
  endfacet
  facet normal  3.574067e-001 -3.574064e-001  8.628563e-001
    outer loop
      vertex  1.247071e+002 -6.450000e+001  2.500000e+000
      vertex  1.240000e+002 -6.400000e+001  3.000000e+000
      vertex  1.240000e+002 -6.470711e+001  2.707107e+000
    endloop
  endfacet
  facet normal  3.574074e-001 -8.628555e-001  3.574077e-001
    outer loop
      vertex  1.247071e+002 -6.450000e+001  2.500000e+000
      vertex  1.240000e+002 -6.470711e+001  2.707107e+000
      vertex  1.247071e+002 -6.470711e+001  2.000000e+000
    endloop
  endfacet
  facet normal  3.574057e-001 -8.628569e-001  3.574060e-001
    outer loop
      vertex  1.247071e+002 -6.470711e+001  2.000000e+000
      vertex  1.240000e+002 -6.470711e+001  2.707107e+000
      vertex  1.240000e+002 -6.500000e+001  2.000000e+000
    endloop
  endfacet
endsolid CATIA STL
