solid CATIA STL
  facet normal  -0.000000e+000  0.000000e+000  1.000000e+000
    outer loop
      vertex  1.240000e+002  6.400000e+001  3.000000e+000
      vertex  1.124938e+002  6.085832e-001  3.000000e+000
      vertex  1.136941e+002 -8.815243e-001  3.000000e+000
    endloop
  endfacet
  facet normal  0.000000e+000  -0.000000e+000  1.000000e+000
    outer loop
      vertex  1.165000e+002 -9.500000e+000  3.000000e+000
      vertex  1.195000e+002 -9.500000e+000  3.000000e+000
      vertex  1.240000e+002  6.400000e+001  3.000000e+000
    endloop
  endfacet
  facet normal  0.000000e+000  0.000000e+000  1.000000e+000
    outer loop
      vertex  1.165000e+002 -9.500000e+000  3.000000e+000
      vertex  1.240000e+002  6.400000e+001  3.000000e+000
      vertex  1.136941e+002 -8.815243e-001  3.000000e+000
    endloop
  endfacet
  facet normal  0.000000e+000  0.000000e+000  1.000000e+000
    outer loop
      vertex  1.165000e+002 -9.500000e+000  3.000000e+000
      vertex  1.136941e+002 -8.815243e-001  3.000000e+000
      vertex  1.134891e+002 -2.783937e+000  3.000000e+000
    endloop
  endfacet
  facet normal  0.000000e+000  0.000000e+000  1.000000e+000
    outer loop
      vertex  1.165000e+002 -9.500000e+000  3.000000e+000
      vertex  1.134891e+002 -2.783937e+000  3.000000e+000
      vertex  1.119990e+002 -3.984247e+000  3.000000e+000
    endloop
  endfacet
  facet normal  0.000000e+000  0.000000e+000  1.000000e+000
    outer loop
      vertex  4.000000e+001 -6.400000e+001  3.000000e+000
      vertex  1.240000e+002 -6.400000e+001  3.000000e+000
      vertex  1.195000e+002 -3.050000e+001  3.000000e+000
    endloop
  endfacet
  facet normal  0.000000e+000  0.000000e+000  1.000000e+000
    outer loop
      vertex  4.000000e+001 -6.400000e+001  3.000000e+000
      vertex  1.195000e+002 -3.050000e+001  3.000000e+000
      vertex  1.165000e+002 -3.050000e+001  3.000000e+000
    endloop
  endfacet
  facet normal  0.000000e+000  -0.000000e+000  1.000000e+000
    outer loop
      vertex  4.000000e+001 -6.400000e+001  3.000000e+000
      vertex  1.165000e+002 -3.050000e+001  3.000000e+000
      vertex  1.165000e+002 -9.500000e+000  3.000000e+000
    endloop
  endfacet
  facet normal  0.000000e+000  0.000000e+000  1.000000e+000
    outer loop
      vertex  4.000000e+001 -6.400000e+001  3.000000e+000
      vertex  1.165000e+002 -9.500000e+000  3.000000e+000
      vertex  1.119990e+002 -3.984247e+000  3.000000e+000
    endloop
  endfacet
  facet normal  0.000000e+000  0.000000e+000  1.000000e+000
    outer loop
      vertex  4.000000e+001 -6.400000e+001  3.000000e+000
      vertex  1.119990e+002 -3.984247e+000  3.000000e+000
      vertex  1.100966e+002 -3.779330e+000  3.000000e+000
    endloop
  endfacet
  facet normal  0.000000e+000  0.000000e+000  1.000000e+000
    outer loop
      vertex  4.000000e+001 -6.400000e+001  3.000000e+000
      vertex  1.100966e+002 -3.779330e+000  3.000000e+000
      vertex  5.500000e+001 -3.500000e+001  3.000000e+000
    endloop
  endfacet
  facet normal  0.000000e+000  0.000000e+000  1.000000e+000
    outer loop
      vertex  4.000000e+001 -6.400000e+001  3.000000e+000
      vertex  5.500000e+001 -3.500000e+001  3.000000e+000
      vertex  4.310940e+001 -2.707293e+001  3.000000e+000
    endloop
  endfacet
  facet normal  0.000000e+000  0.000000e+000  1.000000e+000
    outer loop
      vertex  4.000000e+001 -6.400000e+001  3.000000e+000
      vertex  4.310940e+001 -2.707293e+001  3.000000e+000
      vertex  4.000000e+001 -2.873703e+001  3.000000e+000
    endloop
  endfacet
  facet normal  -0.000000e+000  -0.000000e+000  9.999999e-001
    outer loop
      vertex  4.000000e+001  6.400000e+001  3.000000e+000
      vertex  5.500000e+001  3.500000e+001  3.000000e+000
      vertex  1.105913e+002  8.135009e-001  3.000000e+000
    endloop
  endfacet
  facet normal  -0.000000e+000  -0.000000e+000  1.000000e+000
    outer loop
      vertex  4.000000e+001  6.400000e+001  3.000000e+000
      vertex  1.105913e+002  8.135009e-001  3.000000e+000
      vertex  1.124938e+002  6.085832e-001  3.000000e+000
    endloop
  endfacet
  facet normal  0.000000e+000  -0.000000e+000  1.000000e+000
    outer loop
      vertex  4.000000e+001  6.400000e+001  3.000000e+000
      vertex  1.124938e+002  6.085832e-001  3.000000e+000
      vertex  1.240000e+002  6.400000e+001  3.000000e+000
    endloop
  endfacet
  facet normal  0.000000e+000  0.000000e+000  1.000000e+000
    outer loop
      vertex  5.500000e+001 -3.500000e+001  3.000000e+000
      vertex  1.100966e+002 -3.779330e+000  3.000000e+000
      vertex  1.088963e+002 -2.289222e+000  3.000000e+000
    endloop
  endfacet
  facet normal  0.000000e+000  -0.000000e+000  1.000000e+000
    outer loop
      vertex  5.500000e+001 -3.500000e+001  3.000000e+000
      vertex  1.088963e+002 -2.289222e+000  3.000000e+000
      vertex  1.091012e+002 -3.868093e-001  3.000000e+000
    endloop
  endfacet
  facet normal  0.000000e+000  -0.000000e+000  1.000000e+000
    outer loop
      vertex  5.500000e+001 -3.500000e+001  3.000000e+000
      vertex  1.091012e+002 -3.868093e-001  3.000000e+000
      vertex  1.105913e+002  8.135009e-001  3.000000e+000
    endloop
  endfacet
  facet normal  0.000000e+000  0.000000e+000  1.000000e+000
    outer loop
      vertex  5.500000e+001 -3.500000e+001  3.000000e+000
      vertex  1.105913e+002  8.135009e-001  3.000000e+000
      vertex  5.500000e+001  3.500000e+001  3.000000e+000
    endloop
  endfacet
  facet normal  0.000000e+000  0.000000e+000  1.000000e+000
    outer loop
      vertex  5.500000e+001  3.500000e+001  3.000000e+000
      vertex  4.000000e+001  6.400000e+001  3.000000e+000
      vertex  4.310940e+001  2.707293e+001  3.000000e+000
    endloop
  endfacet
  facet normal  0.000000e+000  0.000000e+000  1.000000e+000
    outer loop
      vertex  4.310940e+001  2.707293e+001  3.000000e+000
      vertex  4.000000e+001  6.400000e+001  3.000000e+000
      vertex  4.000000e+001  2.873703e+001  3.000000e+000
    endloop
  endfacet
  facet normal  0.000000e+000  0.000000e+000  1.000000e+000
    outer loop
      vertex  4.310940e+001  2.707293e+001  3.000000e+000
      vertex  4.000000e+001  2.873703e+001  3.000000e+000
      vertex  4.173756e+001  2.675433e+001  3.000000e+000
    endloop
  endfacet
  facet normal  0.000000e+000  0.000000e+000  1.000000e+000
    outer loop
      vertex  4.173756e+001  2.675433e+001  3.000000e+000
      vertex  4.000000e+001  2.873703e+001  3.000000e+000
      vertex  4.049586e+001  2.741887e+001  3.000000e+000
    endloop
  endfacet
  facet normal  0.000000e+000  0.000000e+000  1.000000e+000
    outer loop
      vertex  4.049586e+001 -2.741887e+001  3.000000e+000
      vertex  4.000000e+001 -2.873703e+001  3.000000e+000
      vertex  4.173756e+001 -2.675433e+001  3.000000e+000
    endloop
  endfacet
  facet normal  0.000000e+000  0.000000e+000  1.000000e+000
    outer loop
      vertex  4.173756e+001 -2.675433e+001  3.000000e+000
      vertex  4.000000e+001 -2.873703e+001  3.000000e+000
      vertex  4.310940e+001 -2.707293e+001  3.000000e+000
    endloop
  endfacet
  facet normal  0.000000e+000  0.000000e+000  9.999999e-001
    outer loop
      vertex  1.195000e+002 -9.500000e+000  3.000000e+000
      vertex  1.195000e+002 -3.050000e+001  3.000000e+000
      vertex  1.240000e+002  6.400000e+001  3.000000e+000
    endloop
  endfacet
  facet normal  0.000000e+000  0.000000e+000  1.000000e+000
    outer loop
      vertex  1.240000e+002  6.400000e+001  3.000000e+000
      vertex  1.195000e+002 -3.050000e+001  3.000000e+000
      vertex  1.240000e+002 -6.400000e+001  3.000000e+000
    endloop
  endfacet
  facet normal  0.000000e+000  0.000000e+000 -1.000000e+000
    outer loop
      vertex  1.136941e+002 -8.815243e-001 -3.000000e+000
      vertex  1.170000e+002 -1.000000e+001 -3.000000e+000
      vertex  1.134891e+002 -2.783937e+000 -3.000000e+000
    endloop
  endfacet
  facet normal  0.000000e+000  0.000000e+000 -1.000000e+000
    outer loop
      vertex  1.170000e+002 -1.000000e+001 -3.000000e+000
      vertex  1.119990e+002 -3.984247e+000 -3.000000e+000
      vertex  1.134891e+002 -2.783937e+000 -3.000000e+000
    endloop
  endfacet
  facet normal  0.000000e+000  0.000000e+000 -9.999999e-001
    outer loop
      vertex  1.210000e+002  6.100000e+001 -3.000000e+000
      vertex  1.210000e+002 -6.100000e+001 -3.000000e+000
      vertex  1.190000e+002 -3.000000e+001 -3.000000e+000
    endloop
  endfacet
  facet normal  0.000000e+000  0.000000e+000 -1.000000e+000
    outer loop
      vertex  1.210000e+002  6.100000e+001 -3.000000e+000
      vertex  1.190000e+002 -3.000000e+001 -3.000000e+000
      vertex  1.190000e+002 -1.000000e+001 -3.000000e+000
    endloop
  endfacet
  facet normal  0.000000e+000  0.000000e+000 -1.000000e+000
    outer loop
      vertex  1.210000e+002  6.100000e+001 -3.000000e+000
      vertex  1.190000e+002 -1.000000e+001 -3.000000e+000
      vertex  1.170000e+002 -1.000000e+001 -3.000000e+000
    endloop
  endfacet
  facet normal  0.000000e+000  0.000000e+000 -1.000000e+000
    outer loop
      vertex  1.210000e+002  6.100000e+001 -3.000000e+000
      vertex  1.170000e+002 -1.000000e+001 -3.000000e+000
      vertex  1.136941e+002 -8.815243e-001 -3.000000e+000
    endloop
  endfacet
  facet normal  0.000000e+000  0.000000e+000 -1.000000e+000
    outer loop
      vertex  1.210000e+002  6.100000e+001 -3.000000e+000
      vertex  1.136941e+002 -8.815243e-001 -3.000000e+000
      vertex  1.124938e+002  6.085832e-001 -3.000000e+000
    endloop
  endfacet
  facet normal  0.000000e+000  0.000000e+000 -1.000000e+000
    outer loop
      vertex  1.210000e+002  6.100000e+001 -3.000000e+000
      vertex  1.124938e+002  6.085832e-001 -3.000000e+000
      vertex  4.000000e+001  6.100000e+001 -3.000000e+000
    endloop
  endfacet
  facet normal  0.000000e+000  0.000000e+000 -1.000000e+000
    outer loop
      vertex  4.000000e+001 -6.100000e+001 -3.000000e+000
      vertex  4.000000e+001 -2.873703e+001 -3.000000e+000
      vertex  4.310940e+001 -2.707293e+001 -3.000000e+000
    endloop
  endfacet
  facet normal  0.000000e+000  -0.000000e+000 -9.999999e-001
    outer loop
      vertex  4.000000e+001 -6.100000e+001 -3.000000e+000
      vertex  4.310940e+001 -2.707293e+001 -3.000000e+000
      vertex  5.500000e+001 -3.500000e+001 -3.000000e+000
    endloop
  endfacet
  facet normal  0.000000e+000  -0.000000e+000 -1.000000e+000
    outer loop
      vertex  4.000000e+001 -6.100000e+001 -3.000000e+000
      vertex  5.500000e+001 -3.500000e+001 -3.000000e+000
      vertex  1.100966e+002 -3.779330e+000 -3.000000e+000
    endloop
  endfacet
  facet normal  0.000000e+000  -0.000000e+000 -1.000000e+000
    outer loop
      vertex  4.000000e+001 -6.100000e+001 -3.000000e+000
      vertex  1.100966e+002 -3.779330e+000 -3.000000e+000
      vertex  1.119990e+002 -3.984247e+000 -3.000000e+000
    endloop
  endfacet
  facet normal  0.000000e+000  -0.000000e+000 -1.000000e+000
    outer loop
      vertex  4.000000e+001 -6.100000e+001 -3.000000e+000
      vertex  1.119990e+002 -3.984247e+000 -3.000000e+000
      vertex  1.170000e+002 -1.000000e+001 -3.000000e+000
    endloop
  endfacet
  facet normal  0.000000e+000  -0.000000e+000 -1.000000e+000
    outer loop
      vertex  4.000000e+001 -6.100000e+001 -3.000000e+000
      vertex  1.170000e+002 -1.000000e+001 -3.000000e+000
      vertex  1.170000e+002 -3.000000e+001 -3.000000e+000
    endloop
  endfacet
  facet normal  0.000000e+000  -0.000000e+000 -1.000000e+000
    outer loop
      vertex  4.000000e+001 -6.100000e+001 -3.000000e+000
      vertex  1.170000e+002 -3.000000e+001 -3.000000e+000
      vertex  1.190000e+002 -3.000000e+001 -3.000000e+000
    endloop
  endfacet
  facet normal  0.000000e+000  -0.000000e+000 -1.000000e+000
    outer loop
      vertex  4.000000e+001 -6.100000e+001 -3.000000e+000
      vertex  1.190000e+002 -3.000000e+001 -3.000000e+000
      vertex  1.210000e+002 -6.100000e+001 -3.000000e+000
    endloop
  endfacet
  facet normal  0.000000e+000  0.000000e+000 -1.000000e+000
    outer loop
      vertex  5.500000e+001 -3.500000e+001 -3.000000e+000
      vertex  5.500000e+001  3.500000e+001 -3.000000e+000
      vertex  1.105913e+002  8.135009e-001 -3.000000e+000
    endloop
  endfacet
  facet normal  0.000000e+000  0.000000e+000 -1.000000e+000
    outer loop
      vertex  5.500000e+001 -3.500000e+001 -3.000000e+000
      vertex  1.105913e+002  8.135009e-001 -3.000000e+000
      vertex  1.091012e+002 -3.868093e-001 -3.000000e+000
    endloop
  endfacet
  facet normal  0.000000e+000  0.000000e+000 -1.000000e+000
    outer loop
      vertex  5.500000e+001 -3.500000e+001 -3.000000e+000
      vertex  1.091012e+002 -3.868093e-001 -3.000000e+000
      vertex  1.088963e+002 -2.289222e+000 -3.000000e+000
    endloop
  endfacet
  facet normal  0.000000e+000  -0.000000e+000 -1.000000e+000
    outer loop
      vertex  5.500000e+001 -3.500000e+001 -3.000000e+000
      vertex  1.088963e+002 -2.289222e+000 -3.000000e+000
      vertex  1.100966e+002 -3.779330e+000 -3.000000e+000
    endloop
  endfacet
  facet normal  0.000000e+000  0.000000e+000 -1.000000e+000
    outer loop
      vertex  5.500000e+001  3.500000e+001 -3.000000e+000
      vertex  1.124938e+002  6.085832e-001 -3.000000e+000
      vertex  1.105913e+002  8.135009e-001 -3.000000e+000
    endloop
  endfacet
  facet normal  0.000000e+000  0.000000e+000 -1.000000e+000
    outer loop
      vertex  1.124938e+002  6.085832e-001 -3.000000e+000
      vertex  5.500000e+001  3.500000e+001 -3.000000e+000
      vertex  4.000000e+001  6.100000e+001 -3.000000e+000
    endloop
  endfacet
  facet normal  0.000000e+000  0.000000e+000 -9.999999e-001
    outer loop
      vertex  4.000000e+001  6.100000e+001 -3.000000e+000
      vertex  5.500000e+001  3.500000e+001 -3.000000e+000
      vertex  4.310940e+001  2.707293e+001 -3.000000e+000
    endloop
  endfacet
  facet normal  0.000000e+000  0.000000e+000 -1.000000e+000
    outer loop
      vertex  4.000000e+001  6.100000e+001 -3.000000e+000
      vertex  4.310940e+001  2.707293e+001 -3.000000e+000
      vertex  4.000000e+001  2.873703e+001 -3.000000e+000
    endloop
  endfacet
  facet normal  0.000000e+000  0.000000e+000 -1.000000e+000
    outer loop
      vertex  4.000000e+001  2.873703e+001 -3.000000e+000
      vertex  4.310940e+001  2.707293e+001 -3.000000e+000
      vertex  4.173756e+001  2.675433e+001 -3.000000e+000
    endloop
  endfacet
  facet normal  0.000000e+000  0.000000e+000 -1.000000e+000
    outer loop
      vertex  4.000000e+001  2.873703e+001 -3.000000e+000
      vertex  4.173756e+001  2.675433e+001 -3.000000e+000
      vertex  4.049586e+001  2.741887e+001 -3.000000e+000
    endloop
  endfacet
  facet normal  0.000000e+000  0.000000e+000 -1.000000e+000
    outer loop
      vertex  4.049586e+001 -2.741887e+001 -3.000000e+000
      vertex  4.173756e+001 -2.675433e+001 -3.000000e+000
      vertex  4.000000e+001 -2.873703e+001 -3.000000e+000
    endloop
  endfacet
  facet normal  0.000000e+000  0.000000e+000 -1.000000e+000
    outer loop
      vertex  4.000000e+001 -2.873703e+001 -3.000000e+000
      vertex  4.173756e+001 -2.675433e+001 -3.000000e+000
      vertex  4.310940e+001 -2.707293e+001 -3.000000e+000
    endloop
  endfacet
  facet normal -1.000000e+000  0.000000e+000  0.000000e+000
    outer loop
      vertex  4.000000e+001 -2.873703e+001  3.000000e+000
      vertex  4.000000e+001 -2.873703e+001 -3.000000e+000
      vertex  4.000000e+001 -6.100000e+001 -3.000000e+000
    endloop
  endfacet
  facet normal -1.000000e+000  0.000000e+000  0.000000e+000
    outer loop
      vertex  4.000000e+001 -2.873703e+001  3.000000e+000
      vertex  4.000000e+001 -6.100000e+001 -3.000000e+000
      vertex  4.000000e+001 -6.170711e+001 -2.707107e+000
    endloop
  endfacet
  facet normal -1.000000e+000  0.000000e+000  0.000000e+000
    outer loop
      vertex  4.000000e+001 -2.873703e+001  3.000000e+000
      vertex  4.000000e+001 -6.170711e+001 -2.707107e+000
      vertex  4.000000e+001 -6.200000e+001 -2.000000e+000
    endloop
  endfacet
  facet normal -1.000000e+000  0.000000e+000  0.000000e+000
    outer loop
      vertex  4.000000e+001 -2.873703e+001  3.000000e+000
      vertex  4.000000e+001 -6.200000e+001 -2.000000e+000
      vertex  4.000000e+001 -6.200000e+001  0.000000e+000
    endloop
  endfacet
  facet normal -1.000000e+000  0.000000e+000  0.000000e+000
    outer loop
      vertex  4.000000e+001 -6.500000e+001  2.000000e+000
      vertex  4.000000e+001 -6.470711e+001  2.707107e+000
      vertex  4.000000e+001 -6.500000e+001  0.000000e+000
    endloop
  endfacet
  facet normal -1.000000e+000  0.000000e+000  0.000000e+000
    outer loop
      vertex  4.000000e+001 -6.500000e+001  0.000000e+000
      vertex  4.000000e+001 -6.470711e+001  2.707107e+000
      vertex  4.000000e+001 -6.200000e+001  0.000000e+000
    endloop
  endfacet
  facet normal -1.000000e+000  0.000000e+000  -0.000000e+000
    outer loop
      vertex  4.000000e+001 -6.470711e+001  2.707107e+000
      vertex  4.000000e+001 -6.400000e+001  3.000000e+000
      vertex  4.000000e+001 -6.200000e+001  0.000000e+000
    endloop
  endfacet
  facet normal -1.000000e+000  0.000000e+000  0.000000e+000
    outer loop
      vertex  4.000000e+001 -6.200000e+001  0.000000e+000
      vertex  4.000000e+001 -6.400000e+001  3.000000e+000
      vertex  4.000000e+001 -2.873703e+001  3.000000e+000
    endloop
  endfacet
  facet normal  5.547002e-001  8.320502e-001  0.000000e+000
    outer loop
      vertex  4.310940e+001 -2.707293e+001 -3.000000e+000
      vertex  4.310940e+001 -2.707293e+001  3.000000e+000
      vertex  5.500000e+001 -3.500000e+001 -3.000000e+000
    endloop
  endfacet
  facet normal  5.547002e-001  8.320502e-001  -0.000000e+000
    outer loop
      vertex  5.500000e+001 -3.500000e+001 -3.000000e+000
      vertex  4.310940e+001 -2.707293e+001  3.000000e+000
      vertex  5.500000e+001 -3.500000e+001  3.000000e+000
    endloop
  endfacet
  facet normal  2.262261e-001  9.740748e-001  -0.000000e+000
    outer loop
      vertex  4.310940e+001 -2.707293e+001  3.000000e+000
      vertex  4.310940e+001 -2.707293e+001 -3.000000e+000
      vertex  4.173756e+001 -2.675433e+001  3.000000e+000
    endloop
  endfacet
  facet normal  2.262261e-001  9.740748e-001  0.000000e+000
    outer loop
      vertex  4.173756e+001 -2.675433e+001  3.000000e+000
      vertex  4.310940e+001 -2.707293e+001 -3.000000e+000
      vertex  4.173756e+001 -2.675433e+001 -3.000000e+000
    endloop
  endfacet
  facet normal -4.718579e-001  8.816746e-001  0.000000e+000
    outer loop
      vertex  4.173756e+001 -2.675433e+001  3.000000e+000
      vertex  4.173756e+001 -2.675433e+001 -3.000000e+000
      vertex  4.049586e+001 -2.741887e+001  3.000000e+000
    endloop
  endfacet
  facet normal -4.718579e-001  8.816746e-001  0.000000e+000
    outer loop
      vertex  4.049586e+001 -2.741887e+001  3.000000e+000
      vertex  4.173756e+001 -2.675433e+001 -3.000000e+000
      vertex  4.049586e+001 -2.741887e+001 -3.000000e+000
    endloop
  endfacet
  facet normal -9.359672e-001  3.520872e-001  0.000000e+000
    outer loop
      vertex  4.049586e+001 -2.741887e+001  3.000000e+000
      vertex  4.049586e+001 -2.741887e+001 -3.000000e+000
      vertex  4.000000e+001 -2.873703e+001  3.000000e+000
    endloop
  endfacet
  facet normal -9.359672e-001  3.520872e-001  0.000000e+000
    outer loop
      vertex  4.000000e+001 -2.873703e+001  3.000000e+000
      vertex  4.049586e+001 -2.741887e+001 -3.000000e+000
      vertex  4.000000e+001 -2.873703e+001 -3.000000e+000
    endloop
  endfacet
  facet normal  5.547002e-001 -8.320502e-001  0.000000e+000
    outer loop
      vertex  4.310940e+001  2.707293e+001 -3.000000e+000
      vertex  5.500000e+001  3.500000e+001 -3.000000e+000
      vertex  4.310940e+001  2.707293e+001  3.000000e+000
    endloop
  endfacet
  facet normal  5.547002e-001 -8.320502e-001  0.000000e+000
    outer loop
      vertex  4.310940e+001  2.707293e+001  3.000000e+000
      vertex  5.500000e+001  3.500000e+001 -3.000000e+000
      vertex  5.500000e+001  3.500000e+001  3.000000e+000
    endloop
  endfacet
  facet normal -9.999999e-001  -0.000000e+000  0.000000e+000
    outer loop
      vertex  4.000000e+001  2.873703e+001  3.000000e+000
      vertex  4.000000e+001  6.200000e+001  0.000000e+000
      vertex  4.000000e+001  2.873703e+001 -3.000000e+000
    endloop
  endfacet
  facet normal -1.000000e+000  0.000000e+000  0.000000e+000
    outer loop
      vertex  4.000000e+001  2.873703e+001 -3.000000e+000
      vertex  4.000000e+001  6.200000e+001  0.000000e+000
      vertex  4.000000e+001  6.100000e+001 -3.000000e+000
    endloop
  endfacet
  facet normal -1.000000e+000  -0.000000e+000  0.000000e+000
    outer loop
      vertex  4.000000e+001  6.200000e+001  0.000000e+000
      vertex  4.000000e+001  6.200000e+001 -2.000000e+000
      vertex  4.000000e+001  6.100000e+001 -3.000000e+000
    endloop
  endfacet
  facet normal -1.000000e+000  0.000000e+000  0.000000e+000
    outer loop
      vertex  4.000000e+001  6.100000e+001 -3.000000e+000
      vertex  4.000000e+001  6.200000e+001 -2.000000e+000
      vertex  4.000000e+001  6.170711e+001 -2.707107e+000
    endloop
  endfacet
  facet normal -1.000000e+000  -0.000000e+000  0.000000e+000
    outer loop
      vertex  4.000000e+001  2.873703e+001  3.000000e+000
      vertex  4.000000e+001  6.400000e+001  3.000000e+000
      vertex  4.000000e+001  6.200000e+001  0.000000e+000
    endloop
  endfacet
  facet normal -1.000000e+000  0.000000e+000  0.000000e+000
    outer loop
      vertex  4.000000e+001  6.200000e+001  0.000000e+000
      vertex  4.000000e+001  6.400000e+001  3.000000e+000
      vertex  4.000000e+001  6.500000e+001  0.000000e+000
    endloop
  endfacet
  facet normal -9.999999e-001  -0.000000e+000  -0.000000e+000
    outer loop
      vertex  4.000000e+001  6.400000e+001  3.000000e+000
      vertex  4.000000e+001  6.470711e+001  2.707107e+000
      vertex  4.000000e+001  6.500000e+001  0.000000e+000
    endloop
  endfacet
  facet normal -1.000000e+000  0.000000e+000  0.000000e+000
    outer loop
      vertex  4.000000e+001  6.500000e+001  0.000000e+000
      vertex  4.000000e+001  6.470711e+001  2.707107e+000
      vertex  4.000000e+001  6.500000e+001  2.000000e+000
    endloop
  endfacet
  facet normal -9.359672e-001 -3.520872e-001  0.000000e+000
    outer loop
      vertex  4.000000e+001  2.873703e+001  3.000000e+000
      vertex  4.000000e+001  2.873703e+001 -3.000000e+000
      vertex  4.049586e+001  2.741887e+001  3.000000e+000
    endloop
  endfacet
  facet normal -9.359672e-001 -3.520872e-001  -0.000000e+000
    outer loop
      vertex  4.049586e+001  2.741887e+001  3.000000e+000
      vertex  4.000000e+001  2.873703e+001 -3.000000e+000
      vertex  4.049586e+001  2.741887e+001 -3.000000e+000
    endloop
  endfacet
  facet normal -4.718579e-001 -8.816746e-001  0.000000e+000
    outer loop
      vertex  4.049586e+001  2.741887e+001  3.000000e+000
      vertex  4.049586e+001  2.741887e+001 -3.000000e+000
      vertex  4.173756e+001  2.675433e+001  3.000000e+000
    endloop
  endfacet
  facet normal -4.718579e-001 -8.816746e-001  -0.000000e+000
    outer loop
      vertex  4.173756e+001  2.675433e+001  3.000000e+000
      vertex  4.049586e+001  2.741887e+001 -3.000000e+000
      vertex  4.173756e+001  2.675433e+001 -3.000000e+000
    endloop
  endfacet
  facet normal  2.262261e-001 -9.740748e-001  0.000000e+000
    outer loop
      vertex  4.173756e+001  2.675433e+001  3.000000e+000
      vertex  4.173756e+001  2.675433e+001 -3.000000e+000
      vertex  4.310940e+001  2.707293e+001  3.000000e+000
    endloop
  endfacet
  facet normal  2.262261e-001 -9.740748e-001  0.000000e+000
    outer loop
      vertex  4.310940e+001  2.707293e+001  3.000000e+000
      vertex  4.173756e+001  2.675433e+001 -3.000000e+000
      vertex  4.310940e+001  2.707293e+001 -3.000000e+000
    endloop
  endfacet
  facet normal  0.000000e+000  3.826831e-001  9.238797e-001
    outer loop
      vertex  4.000000e+001  6.400000e+001  3.000000e+000
      vertex  1.240000e+002  6.400000e+001  3.000000e+000
      vertex  4.000000e+001  6.470711e+001  2.707107e+000
    endloop
  endfacet
  facet normal  -0.000000e+000  3.826831e-001  9.238797e-001
    outer loop
      vertex  4.000000e+001  6.470711e+001  2.707107e+000
      vertex  1.240000e+002  6.400000e+001  3.000000e+000
      vertex  1.240000e+002  6.470711e+001  2.707107e+000
    endloop
  endfacet
  facet normal  0.000000e+000  9.238799e-001  3.826826e-001
    outer loop
      vertex  4.000000e+001  6.470711e+001  2.707107e+000
      vertex  1.240000e+002  6.470711e+001  2.707107e+000
      vertex  4.000000e+001  6.500000e+001  2.000000e+000
    endloop
  endfacet
  facet normal  -0.000000e+000  9.238799e-001  3.826826e-001
    outer loop
      vertex  4.000000e+001  6.500000e+001  2.000000e+000
      vertex  1.240000e+002  6.470711e+001  2.707107e+000
      vertex  1.240000e+002  6.500000e+001  2.000000e+000
    endloop
  endfacet
  facet normal  0.000000e+000 -3.826831e-001  9.238797e-001
    outer loop
      vertex  1.240000e+002 -6.400000e+001  3.000000e+000
      vertex  4.000000e+001 -6.400000e+001  3.000000e+000
      vertex  1.240000e+002 -6.470711e+001  2.707107e+000
    endloop
  endfacet
  facet normal  0.000000e+000 -3.826831e-001  9.238797e-001
    outer loop
      vertex  1.240000e+002 -6.470711e+001  2.707107e+000
      vertex  4.000000e+001 -6.400000e+001  3.000000e+000
      vertex  4.000000e+001 -6.470711e+001  2.707107e+000
    endloop
  endfacet
  facet normal  0.000000e+000 -9.238799e-001  3.826826e-001
    outer loop
      vertex  1.240000e+002 -6.470711e+001  2.707107e+000
      vertex  4.000000e+001 -6.470711e+001  2.707107e+000
      vertex  1.240000e+002 -6.500000e+001  2.000000e+000
    endloop
  endfacet
  facet normal  0.000000e+000 -9.238799e-001  3.826826e-001
    outer loop
      vertex  1.240000e+002 -6.500000e+001  2.000000e+000
      vertex  4.000000e+001 -6.470711e+001  2.707107e+000
      vertex  4.000000e+001 -6.500000e+001  2.000000e+000
    endloop
  endfacet
  facet normal  0.000000e+000  1.000000e+000  0.000000e+000
    outer loop
      vertex  4.000000e+001  6.500000e+001  2.000000e+000
      vertex  1.240000e+002  6.500000e+001  2.000000e+000
      vertex  4.000000e+001  6.500000e+001  0.000000e+000
    endloop
  endfacet
  facet normal  0.000000e+000  1.000000e+000  0.000000e+000
    outer loop
      vertex  4.000000e+001  6.500000e+001  0.000000e+000
      vertex  1.240000e+002  6.500000e+001  2.000000e+000
      vertex  1.240000e+002  6.500000e+001  0.000000e+000
    endloop
  endfacet
  facet normal  0.000000e+000 -1.000000e+000  0.000000e+000
    outer loop
      vertex  1.240000e+002 -6.500000e+001  2.000000e+000
      vertex  4.000000e+001 -6.500000e+001  2.000000e+000
      vertex  1.240000e+002 -6.500000e+001  0.000000e+000
    endloop
  endfacet
  facet normal  0.000000e+000 -1.000000e+000  0.000000e+000
    outer loop
      vertex  1.240000e+002 -6.500000e+001  0.000000e+000
      vertex  4.000000e+001 -6.500000e+001  2.000000e+000
      vertex  4.000000e+001 -6.500000e+001  0.000000e+000
    endloop
  endfacet
  facet normal  -0.000000e+000  0.000000e+000 -9.999999e-001
    outer loop
      vertex  1.250000e+002 -6.400000e+001  0.000000e+000
      vertex  1.247071e+002 -6.470711e+001  0.000000e+000
      vertex  1.240000e+002 -6.500000e+001  0.000000e+000
    endloop
  endfacet
  facet normal  0.000000e+000  0.000000e+000 -1.000000e+000
    outer loop
      vertex  1.250000e+002 -6.400000e+001  0.000000e+000
      vertex  1.240000e+002 -6.500000e+001  0.000000e+000
      vertex  4.000000e+001 -6.500000e+001  0.000000e+000
    endloop
  endfacet
  facet normal  0.000000e+000  0.000000e+000 -1.000000e+000
    outer loop
      vertex  1.250000e+002 -6.400000e+001  0.000000e+000
      vertex  4.000000e+001 -6.500000e+001  0.000000e+000
      vertex  4.000000e+001 -6.200000e+001  0.000000e+000
    endloop
  endfacet
  facet normal  0.000000e+000  0.000000e+000 -1.000000e+000
    outer loop
      vertex  1.250000e+002 -6.400000e+001  0.000000e+000
      vertex  4.000000e+001 -6.200000e+001  0.000000e+000
      vertex  1.210000e+002 -6.200000e+001  0.000000e+000
    endloop
  endfacet
  facet normal  0.000000e+000  0.000000e+000 -1.000000e+000
    outer loop
      vertex  1.250000e+002 -6.400000e+001  0.000000e+000
      vertex  1.210000e+002 -6.200000e+001  0.000000e+000
      vertex  1.217071e+002 -6.170711e+001  0.000000e+000
    endloop
  endfacet
  facet normal  0.000000e+000  0.000000e+000 -1.000000e+000
    outer loop
      vertex  1.250000e+002 -6.400000e+001  0.000000e+000
      vertex  1.217071e+002 -6.170711e+001  0.000000e+000
      vertex  1.220000e+002 -6.100000e+001  0.000000e+000
    endloop
  endfacet
  facet normal  0.000000e+000  0.000000e+000 -1.000000e+000
    outer loop
      vertex  1.250000e+002 -6.400000e+001  0.000000e+000
      vertex  1.220000e+002 -6.100000e+001  0.000000e+000
      vertex  1.220000e+002  6.100000e+001  0.000000e+000
    endloop
  endfacet
  facet normal  0.000000e+000  0.000000e+000 -1.000000e+000
    outer loop
      vertex  1.250000e+002 -6.400000e+001  0.000000e+000
      vertex  1.220000e+002  6.100000e+001  0.000000e+000
      vertex  1.250000e+002  6.400000e+001  0.000000e+000
    endloop
  endfacet
  facet normal  0.000000e+000  0.000000e+000 -1.000000e+000
    outer loop
      vertex  1.250000e+002  6.400000e+001  0.000000e+000
      vertex  1.220000e+002  6.100000e+001  0.000000e+000
      vertex  1.217071e+002  6.170711e+001  0.000000e+000
    endloop
  endfacet
  facet normal  0.000000e+000  0.000000e+000 -1.000000e+000
    outer loop
      vertex  1.250000e+002  6.400000e+001  0.000000e+000
      vertex  1.217071e+002  6.170711e+001  0.000000e+000
      vertex  1.210000e+002  6.200000e+001  0.000000e+000
    endloop
  endfacet
  facet normal  0.000000e+000  0.000000e+000 -1.000000e+000
    outer loop
      vertex  1.250000e+002  6.400000e+001  0.000000e+000
      vertex  1.210000e+002  6.200000e+001  0.000000e+000
      vertex  4.000000e+001  6.200000e+001  0.000000e+000
    endloop
  endfacet
  facet normal  0.000000e+000  0.000000e+000 -1.000000e+000
    outer loop
      vertex  4.000000e+001  6.200000e+001  0.000000e+000
      vertex  4.000000e+001  6.500000e+001  0.000000e+000
      vertex  1.240000e+002  6.500000e+001  0.000000e+000
    endloop
  endfacet
  facet normal  0.000000e+000  -0.000000e+000 -1.000000e+000
    outer loop
      vertex  4.000000e+001  6.200000e+001  0.000000e+000
      vertex  1.240000e+002  6.500000e+001  0.000000e+000
      vertex  1.247071e+002  6.470711e+001  0.000000e+000
    endloop
  endfacet
  facet normal  0.000000e+000  -0.000000e+000 -1.000000e+000
    outer loop
      vertex  4.000000e+001  6.200000e+001  0.000000e+000
      vertex  1.247071e+002  6.470711e+001  0.000000e+000
      vertex  1.250000e+002  6.400000e+001  0.000000e+000
    endloop
  endfacet
  facet normal  0.000000e+000  1.000000e+000  0.000000e+000
    outer loop
      vertex  4.000000e+001  6.200000e+001 -2.000000e+000
      vertex  4.000000e+001  6.200000e+001  0.000000e+000
      vertex  1.210000e+002  6.200000e+001 -2.000000e+000
    endloop
  endfacet
  facet normal  0.000000e+000  1.000000e+000  -0.000000e+000
    outer loop
      vertex  1.210000e+002  6.200000e+001 -2.000000e+000
      vertex  4.000000e+001  6.200000e+001  0.000000e+000
      vertex  1.210000e+002  6.200000e+001  0.000000e+000
    endloop
  endfacet
  facet normal  0.000000e+000 -1.000000e+000  -0.000000e+000
    outer loop
      vertex  1.210000e+002 -6.200000e+001 -2.000000e+000
      vertex  1.210000e+002 -6.200000e+001  0.000000e+000
      vertex  4.000000e+001 -6.200000e+001 -2.000000e+000
    endloop
  endfacet
  facet normal  0.000000e+000 -1.000000e+000  0.000000e+000
    outer loop
      vertex  4.000000e+001 -6.200000e+001 -2.000000e+000
      vertex  1.210000e+002 -6.200000e+001  0.000000e+000
      vertex  4.000000e+001 -6.200000e+001  0.000000e+000
    endloop
  endfacet
  facet normal  0.000000e+000  9.238799e-001 -3.826826e-001
    outer loop
      vertex  4.000000e+001  6.200000e+001 -2.000000e+000
      vertex  1.210000e+002  6.200000e+001 -2.000000e+000
      vertex  4.000000e+001  6.170711e+001 -2.707107e+000
    endloop
  endfacet
  facet normal  0.000000e+000  9.238799e-001 -3.826826e-001
    outer loop
      vertex  4.000000e+001  6.170711e+001 -2.707107e+000
      vertex  1.210000e+002  6.200000e+001 -2.000000e+000
      vertex  1.210000e+002  6.170711e+001 -2.707107e+000
    endloop
  endfacet
  facet normal  0.000000e+000  3.826830e-001 -9.238797e-001
    outer loop
      vertex  4.000000e+001  6.170711e+001 -2.707107e+000
      vertex  1.210000e+002  6.170711e+001 -2.707107e+000
      vertex  4.000000e+001  6.100000e+001 -3.000000e+000
    endloop
  endfacet
  facet normal  0.000000e+000  3.826830e-001 -9.238797e-001
    outer loop
      vertex  4.000000e+001  6.100000e+001 -3.000000e+000
      vertex  1.210000e+002  6.170711e+001 -2.707107e+000
      vertex  1.210000e+002  6.100000e+001 -3.000000e+000
    endloop
  endfacet
  facet normal  0.000000e+000 -9.238799e-001 -3.826826e-001
    outer loop
      vertex  1.210000e+002 -6.200000e+001 -2.000000e+000
      vertex  4.000000e+001 -6.200000e+001 -2.000000e+000
      vertex  1.210000e+002 -6.170711e+001 -2.707107e+000
    endloop
  endfacet
  facet normal  -0.000000e+000 -9.238799e-001 -3.826826e-001
    outer loop
      vertex  1.210000e+002 -6.170711e+001 -2.707107e+000
      vertex  4.000000e+001 -6.200000e+001 -2.000000e+000
      vertex  4.000000e+001 -6.170711e+001 -2.707107e+000
    endloop
  endfacet
  facet normal  0.000000e+000 -3.826830e-001 -9.238797e-001
    outer loop
      vertex  1.210000e+002 -6.170711e+001 -2.707107e+000
      vertex  4.000000e+001 -6.170711e+001 -2.707107e+000
      vertex  1.210000e+002 -6.100000e+001 -3.000000e+000
    endloop
  endfacet
  facet normal  -0.000000e+000 -3.826830e-001 -9.238797e-001
    outer loop
      vertex  1.210000e+002 -6.100000e+001 -3.000000e+000
      vertex  4.000000e+001 -6.170711e+001 -2.707107e+000
      vertex  4.000000e+001 -6.100000e+001 -3.000000e+000
    endloop
  endfacet
  facet normal -1.000000e+000  0.000000e+000  0.000000e+000
    outer loop
      vertex  5.500000e+001  3.500000e+001 -3.000000e+000
      vertex  5.500000e+001 -3.500000e+001 -3.000000e+000
      vertex  5.500000e+001  3.500000e+001  3.000000e+000
    endloop
  endfacet
  facet normal -1.000000e+000  -0.000000e+000  0.000000e+000
    outer loop
      vertex  5.500000e+001  3.500000e+001  3.000000e+000
      vertex  5.500000e+001 -3.500000e+001 -3.000000e+000
      vertex  5.500000e+001 -3.500000e+001  3.000000e+000
    endloop
  endfacet
  facet normal  9.999999e-001  0.000000e+000  0.000000e+000
    outer loop
      vertex  1.170000e+002 -1.000000e+001 -3.000000e+000
      vertex  1.170000e+002 -1.000000e+001  2.500000e+000
      vertex  1.170000e+002 -3.000000e+001 -3.000000e+000
    endloop
  endfacet
  facet normal  9.999999e-001  0.000000e+000  0.000000e+000
    outer loop
      vertex  1.170000e+002 -3.000000e+001 -3.000000e+000
      vertex  1.170000e+002 -1.000000e+001  2.500000e+000
      vertex  1.170000e+002 -3.000000e+001  2.500000e+000
    endloop
  endfacet
  facet normal -9.999999e-001  0.000000e+000  0.000000e+000
    outer loop
      vertex  1.190000e+002 -1.000000e+001  2.500000e+000
      vertex  1.190000e+002 -1.000000e+001 -3.000000e+000
      vertex  1.190000e+002 -3.000000e+001  2.500000e+000
    endloop
  endfacet
  facet normal -9.999999e-001  0.000000e+000  0.000000e+000
    outer loop
      vertex  1.190000e+002 -3.000000e+001  2.500000e+000
      vertex  1.190000e+002 -1.000000e+001 -3.000000e+000
      vertex  1.190000e+002 -3.000000e+001 -3.000000e+000
    endloop
  endfacet
  facet normal  0.000000e+000  1.000000e+000  0.000000e+000
    outer loop
      vertex  1.190000e+002 -3.000000e+001 -3.000000e+000
      vertex  1.170000e+002 -3.000000e+001 -3.000000e+000
      vertex  1.190000e+002 -3.000000e+001  2.500000e+000
    endloop
  endfacet
  facet normal  0.000000e+000  1.000000e+000  0.000000e+000
    outer loop
      vertex  1.190000e+002 -3.000000e+001  2.500000e+000
      vertex  1.170000e+002 -3.000000e+001 -3.000000e+000
      vertex  1.170000e+002 -3.000000e+001  2.500000e+000
    endloop
  endfacet
  facet normal  0.000000e+000 -1.000000e+000  0.000000e+000
    outer loop
      vertex  1.170000e+002 -1.000000e+001 -3.000000e+000
      vertex  1.190000e+002 -1.000000e+001 -3.000000e+000
      vertex  1.170000e+002 -1.000000e+001  2.500000e+000
    endloop
  endfacet
  facet normal  0.000000e+000 -1.000000e+000  0.000000e+000
    outer loop
      vertex  1.170000e+002 -1.000000e+001  2.500000e+000
      vertex  1.190000e+002 -1.000000e+001 -3.000000e+000
      vertex  1.190000e+002 -1.000000e+001  2.500000e+000
    endloop
  endfacet
  facet normal -7.071068e-001  0.000000e+000  7.071068e-001
    outer loop
      vertex  1.190000e+002 -1.000000e+001  2.500000e+000
      vertex  1.190000e+002 -3.000000e+001  2.500000e+000
      vertex  1.195000e+002 -9.500000e+000  3.000000e+000
    endloop
  endfacet
  facet normal -7.071068e-001  0.000000e+000  7.071068e-001
    outer loop
      vertex  1.195000e+002 -9.500000e+000  3.000000e+000
      vertex  1.190000e+002 -3.000000e+001  2.500000e+000
      vertex  1.195000e+002 -3.050000e+001  3.000000e+000
    endloop
  endfacet
  facet normal  0.000000e+000 -7.071068e-001  7.071068e-001
    outer loop
      vertex  1.170000e+002 -1.000000e+001  2.500000e+000
      vertex  1.190000e+002 -1.000000e+001  2.500000e+000
      vertex  1.165000e+002 -9.500000e+000  3.000000e+000
    endloop
  endfacet
  facet normal  0.000000e+000 -7.071068e-001  7.071068e-001
    outer loop
      vertex  1.165000e+002 -9.500000e+000  3.000000e+000
      vertex  1.190000e+002 -1.000000e+001  2.500000e+000
      vertex  1.195000e+002 -9.500000e+000  3.000000e+000
    endloop
  endfacet
  facet normal  7.071068e-001  0.000000e+000  7.071068e-001
    outer loop
      vertex  1.170000e+002 -3.000000e+001  2.500000e+000
      vertex  1.170000e+002 -1.000000e+001  2.500000e+000
      vertex  1.165000e+002 -3.050000e+001  3.000000e+000
    endloop
  endfacet
  facet normal  7.071068e-001  -0.000000e+000  7.071068e-001
    outer loop
      vertex  1.165000e+002 -3.050000e+001  3.000000e+000
      vertex  1.170000e+002 -1.000000e+001  2.500000e+000
      vertex  1.165000e+002 -9.500000e+000  3.000000e+000
    endloop
  endfacet
  facet normal  -0.000000e+000  7.071068e-001  7.071068e-001
    outer loop
      vertex  1.190000e+002 -3.000000e+001  2.500000e+000
      vertex  1.170000e+002 -3.000000e+001  2.500000e+000
      vertex  1.195000e+002 -3.050000e+001  3.000000e+000
    endloop
  endfacet
  facet normal  0.000000e+000  7.071068e-001  7.071068e-001
    outer loop
      vertex  1.195000e+002 -3.050000e+001  3.000000e+000
      vertex  1.170000e+002 -3.000000e+001  2.500000e+000
      vertex  1.165000e+002 -3.050000e+001  3.000000e+000
    endloop
  endfacet
  facet normal  9.124873e-001  1.565577e-001  3.779636e-001
    outer loop
      vertex  1.250000e+002  6.400000e+001  2.000000e+000
      vertex  1.247071e+002  6.450000e+001  2.500000e+000
      vertex  1.247071e+002  6.400000e+001  2.707107e+000
    endloop
  endfacet
  facet normal  9.124874e-001  3.779633e-001  1.565581e-001
    outer loop
      vertex  1.250000e+002  6.400000e+001  2.000000e+000
      vertex  1.247071e+002  6.470711e+001  2.000000e+000
      vertex  1.247071e+002  6.450000e+001  2.500000e+000
    endloop
  endfacet
  facet normal  3.574054e-001  8.628561e-001  3.574080e-001
    outer loop
      vertex  1.247071e+002  6.470711e+001  2.000000e+000
      vertex  1.240000e+002  6.500000e+001  2.000000e+000
      vertex  1.247071e+002  6.450000e+001  2.500000e+000
    endloop
  endfacet
  facet normal  3.574071e-001  8.628564e-001  3.574059e-001
    outer loop
      vertex  1.247071e+002  6.450000e+001  2.500000e+000
      vertex  1.240000e+002  6.500000e+001  2.000000e+000
      vertex  1.240000e+002  6.470711e+001  2.707107e+000
    endloop
  endfacet
  facet normal  3.574068e-001  3.574068e-001  8.628561e-001
    outer loop
      vertex  1.247071e+002  6.450000e+001  2.500000e+000
      vertex  1.240000e+002  6.470711e+001  2.707107e+000
      vertex  1.247071e+002  6.400000e+001  2.707107e+000
    endloop
  endfacet
  facet normal  3.574064e-001  3.574064e-001  8.628565e-001
    outer loop
      vertex  1.247071e+002  6.400000e+001  2.707107e+000
      vertex  1.240000e+002  6.470711e+001  2.707107e+000
      vertex  1.240000e+002  6.400000e+001  3.000000e+000
    endloop
  endfacet
  facet normal  9.124874e-001 -3.779633e-001  1.565581e-001
    outer loop
      vertex  1.250000e+002 -6.400000e+001  2.000000e+000
      vertex  1.247071e+002 -6.450000e+001  2.500000e+000
      vertex  1.247071e+002 -6.470711e+001  2.000000e+000
    endloop
  endfacet
  facet normal  9.124873e-001 -1.565577e-001  3.779636e-001
    outer loop
      vertex  1.250000e+002 -6.400000e+001  2.000000e+000
      vertex  1.247071e+002 -6.400000e+001  2.707107e+000
      vertex  1.247071e+002 -6.450000e+001  2.500000e+000
    endloop
  endfacet
  facet normal  3.574063e-001 -3.574069e-001  8.628563e-001
    outer loop
      vertex  1.247071e+002 -6.400000e+001  2.707107e+000
      vertex  1.240000e+002 -6.400000e+001  3.000000e+000
      vertex  1.247071e+002 -6.450000e+001  2.500000e+000
    endloop
  endfacet
  facet normal  3.574067e-001 -3.574064e-001  8.628563e-001
    outer loop
      vertex  1.247071e+002 -6.450000e+001  2.500000e+000
      vertex  1.240000e+002 -6.400000e+001  3.000000e+000
      vertex  1.240000e+002 -6.470711e+001  2.707107e+000
    endloop
  endfacet
  facet normal  3.574074e-001 -8.628555e-001  3.574077e-001
    outer loop
      vertex  1.247071e+002 -6.450000e+001  2.500000e+000
      vertex  1.240000e+002 -6.470711e+001  2.707107e+000
      vertex  1.247071e+002 -6.470711e+001  2.000000e+000
    endloop
  endfacet
  facet normal  3.574057e-001 -8.628569e-001  3.574060e-001
    outer loop
      vertex  1.247071e+002 -6.470711e+001  2.000000e+000
      vertex  1.240000e+002 -6.470711e+001  2.707107e+000
      vertex  1.240000e+002 -6.500000e+001  2.000000e+000
    endloop
  endfacet
  facet normal  3.826830e-001  -0.000000e+000  9.238796e-001
    outer loop
      vertex  1.240000e+002  6.400000e+001  3.000000e+000
      vertex  1.240000e+002 -6.400000e+001  3.000000e+000
      vertex  1.247071e+002  6.400000e+001  2.707107e+000
    endloop
  endfacet
  facet normal  3.826830e-001  0.000000e+000  9.238796e-001
    outer loop
      vertex  1.247071e+002  6.400000e+001  2.707107e+000
      vertex  1.240000e+002 -6.400000e+001  3.000000e+000
      vertex  1.247071e+002 -6.400000e+001  2.707107e+000
    endloop
  endfacet
  facet normal  9.238799e-001  -0.000000e+000  3.826826e-001
    outer loop
      vertex  1.247071e+002  6.400000e+001  2.707107e+000
      vertex  1.247071e+002 -6.400000e+001  2.707107e+000
      vertex  1.250000e+002  6.400000e+001  2.000000e+000
    endloop
  endfacet
  facet normal  9.238799e-001  0.000000e+000  3.826826e-001
    outer loop
      vertex  1.250000e+002  6.400000e+001  2.000000e+000
      vertex  1.247071e+002 -6.400000e+001  2.707107e+000
      vertex  1.250000e+002 -6.400000e+001  2.000000e+000
    endloop
  endfacet
  facet normal -7.787678e-001 -6.273122e-001  0.000000e+000
    outer loop
      vertex  1.124938e+002  6.085832e-001  3.000000e+000
      vertex  1.136941e+002 -8.815243e-001 -3.000000e+000
      vertex  1.136941e+002 -8.815243e-001  3.000000e+000
    endloop
  endfacet
  facet normal -9.942487e-001  1.070953e-001  0.000000e+000
    outer loop
      vertex  1.136941e+002 -8.815243e-001  3.000000e+000
      vertex  1.136941e+002 -8.815243e-001 -3.000000e+000
      vertex  1.134891e+002 -2.783937e+000 -3.000000e+000
    endloop
  endfacet
  facet normal -9.942487e-001  1.070953e-001  0.000000e+000
    outer loop
      vertex  1.136941e+002 -8.815243e-001  3.000000e+000
      vertex  1.134891e+002 -2.783937e+000 -3.000000e+000
      vertex  1.134891e+002 -2.783937e+000  3.000000e+000
    endloop
  endfacet
  facet normal -7.787678e-001 -6.273122e-001  -0.000000e+000
    outer loop
      vertex  1.136941e+002 -8.815243e-001 -3.000000e+000
      vertex  1.124938e+002  6.085832e-001  3.000000e+000
      vertex  1.124938e+002  6.085832e-001 -3.000000e+000
    endloop
  endfacet
  facet normal -1.070952e-001 -9.942487e-001  0.000000e+000
    outer loop
      vertex  1.124938e+002  6.085832e-001 -3.000000e+000
      vertex  1.124938e+002  6.085832e-001  3.000000e+000
      vertex  1.105913e+002  8.135009e-001  3.000000e+000
    endloop
  endfacet
  facet normal -1.070952e-001 -9.942487e-001  -0.000000e+000
    outer loop
      vertex  1.124938e+002  6.085832e-001 -3.000000e+000
      vertex  1.105913e+002  8.135009e-001  3.000000e+000
      vertex  1.105913e+002  8.135009e-001 -3.000000e+000
    endloop
  endfacet
  facet normal  6.273131e-001 -7.787671e-001  0.000000e+000
    outer loop
      vertex  1.105913e+002  8.135009e-001 -3.000000e+000
      vertex  1.105913e+002  8.135009e-001  3.000000e+000
      vertex  1.091012e+002 -3.868093e-001  3.000000e+000
    endloop
  endfacet
  facet normal  6.273131e-001 -7.787671e-001  0.000000e+000
    outer loop
      vertex  1.105913e+002  8.135009e-001 -3.000000e+000
      vertex  1.091012e+002 -3.868093e-001  3.000000e+000
      vertex  1.091012e+002 -3.868093e-001 -3.000000e+000
    endloop
  endfacet
  facet normal  7.787678e-001  6.273122e-001  -0.000000e+000
    outer loop
      vertex  1.100966e+002 -3.779330e+000  3.000000e+000
      vertex  1.088963e+002 -2.289222e+000 -3.000000e+000
      vertex  1.088963e+002 -2.289222e+000  3.000000e+000
    endloop
  endfacet
  facet normal  9.942487e-001 -1.070953e-001  0.000000e+000
    outer loop
      vertex  1.088963e+002 -2.289222e+000  3.000000e+000
      vertex  1.088963e+002 -2.289222e+000 -3.000000e+000
      vertex  1.091012e+002 -3.868093e-001 -3.000000e+000
    endloop
  endfacet
  facet normal  9.942487e-001 -1.070953e-001  0.000000e+000
    outer loop
      vertex  1.088963e+002 -2.289222e+000  3.000000e+000
      vertex  1.091012e+002 -3.868093e-001 -3.000000e+000
      vertex  1.091012e+002 -3.868093e-001  3.000000e+000
    endloop
  endfacet
  facet normal  7.787678e-001  6.273122e-001  0.000000e+000
    outer loop
      vertex  1.088963e+002 -2.289222e+000 -3.000000e+000
      vertex  1.100966e+002 -3.779330e+000  3.000000e+000
      vertex  1.100966e+002 -3.779330e+000 -3.000000e+000
    endloop
  endfacet
  facet normal  1.070952e-001  9.942487e-001  -0.000000e+000
    outer loop
      vertex  1.100966e+002 -3.779330e+000 -3.000000e+000
      vertex  1.100966e+002 -3.779330e+000  3.000000e+000
      vertex  1.119990e+002 -3.984247e+000  3.000000e+000
    endloop
  endfacet
  facet normal  1.070952e-001  9.942487e-001  0.000000e+000
    outer loop
      vertex  1.100966e+002 -3.779330e+000 -3.000000e+000
      vertex  1.119990e+002 -3.984247e+000  3.000000e+000
      vertex  1.119990e+002 -3.984247e+000 -3.000000e+000
    endloop
  endfacet
  facet normal -6.273131e-001  7.787671e-001  0.000000e+000
    outer loop
      vertex  1.119990e+002 -3.984247e+000 -3.000000e+000
      vertex  1.119990e+002 -3.984247e+000  3.000000e+000
      vertex  1.134891e+002 -2.783937e+000  3.000000e+000
    endloop
  endfacet
  facet normal -6.273131e-001  7.787671e-001  0.000000e+000
    outer loop
      vertex  1.119990e+002 -3.984247e+000 -3.000000e+000
      vertex  1.134891e+002 -2.783937e+000  3.000000e+000
      vertex  1.134891e+002 -2.783937e+000 -3.000000e+000
    endloop
  endfacet
  facet normal  3.826822e-001 -9.238800e-001  0.000000e+000
    outer loop
      vertex  1.210000e+002 -6.200000e+001  0.000000e+000
      vertex  1.210000e+002 -6.200000e+001 -2.000000e+000
      vertex  1.217071e+002 -6.170711e+001  0.000000e+000
    endloop
  endfacet
  facet normal  3.826822e-001 -9.238800e-001  0.000000e+000
    outer loop
      vertex  1.217071e+002 -6.170711e+001  0.000000e+000
      vertex  1.210000e+002 -6.200000e+001 -2.000000e+000
      vertex  1.217071e+002 -6.170711e+001 -2.000000e+000
    endloop
  endfacet
  facet normal  9.238800e-001 -3.826822e-001  0.000000e+000
    outer loop
      vertex  1.217071e+002 -6.170711e+001  0.000000e+000
      vertex  1.217071e+002 -6.170711e+001 -2.000000e+000
      vertex  1.220000e+002 -6.100000e+001  0.000000e+000
    endloop
  endfacet
  facet normal  9.238800e-001 -3.826822e-001  0.000000e+000
    outer loop
      vertex  1.220000e+002 -6.100000e+001  0.000000e+000
      vertex  1.217071e+002 -6.170711e+001 -2.000000e+000
      vertex  1.220000e+002 -6.100000e+001 -2.000000e+000
    endloop
  endfacet
  facet normal  9.999999e-001  0.000000e+000  0.000000e+000
    outer loop
      vertex  1.220000e+002  6.100000e+001 -2.000000e+000
      vertex  1.220000e+002  6.100000e+001  0.000000e+000
      vertex  1.220000e+002 -6.100000e+001 -2.000000e+000
    endloop
  endfacet
  facet normal  9.999999e-001  0.000000e+000  0.000000e+000
    outer loop
      vertex  1.220000e+002 -6.100000e+001 -2.000000e+000
      vertex  1.220000e+002  6.100000e+001  0.000000e+000
      vertex  1.220000e+002 -6.100000e+001  0.000000e+000
    endloop
  endfacet
  facet normal  9.238800e-001  3.826822e-001  -0.000000e+000
    outer loop
      vertex  1.220000e+002  6.100000e+001  0.000000e+000
      vertex  1.220000e+002  6.100000e+001 -2.000000e+000
      vertex  1.217071e+002  6.170711e+001  0.000000e+000
    endloop
  endfacet
  facet normal  9.238800e-001  3.826822e-001  0.000000e+000
    outer loop
      vertex  1.217071e+002  6.170711e+001  0.000000e+000
      vertex  1.220000e+002  6.100000e+001 -2.000000e+000
      vertex  1.217071e+002  6.170711e+001 -2.000000e+000
    endloop
  endfacet
  facet normal  3.826822e-001  9.238800e-001  -0.000000e+000
    outer loop
      vertex  1.217071e+002  6.170711e+001  0.000000e+000
      vertex  1.217071e+002  6.170711e+001 -2.000000e+000
      vertex  1.210000e+002  6.200000e+001  0.000000e+000
    endloop
  endfacet
  facet normal  3.826822e-001  9.238800e-001  0.000000e+000
    outer loop
      vertex  1.210000e+002  6.200000e+001  0.000000e+000
      vertex  1.217071e+002  6.170711e+001 -2.000000e+000
      vertex  1.210000e+002  6.200000e+001 -2.000000e+000
    endloop
  endfacet
  facet normal  3.779640e-001  1.565584e-001 -9.124871e-001
    outer loop
      vertex  1.210000e+002  6.100000e+001 -3.000000e+000
      vertex  1.215000e+002  6.150000e+001 -2.707107e+000
      vertex  1.217071e+002  6.100000e+001 -2.707107e+000
    endloop
  endfacet
  facet normal  1.565584e-001  3.779640e-001 -9.124871e-001
    outer loop
      vertex  1.210000e+002  6.100000e+001 -3.000000e+000
      vertex  1.210000e+002  6.170711e+001 -2.707107e+000
      vertex  1.215000e+002  6.150000e+001 -2.707107e+000
    endloop
  endfacet
  facet normal  3.574080e-001  8.628561e-001 -3.574058e-001
    outer loop
      vertex  1.210000e+002  6.170711e+001 -2.707107e+000
      vertex  1.210000e+002  6.200000e+001 -2.000000e+000
      vertex  1.215000e+002  6.150000e+001 -2.707107e+000
    endloop
  endfacet
  facet normal  3.574055e-001  8.628563e-001 -3.574077e-001
    outer loop
      vertex  1.215000e+002  6.150000e+001 -2.707107e+000
      vertex  1.210000e+002  6.200000e+001 -2.000000e+000
      vertex  1.217071e+002  6.170711e+001 -2.000000e+000
    endloop
  endfacet
  facet normal  8.628554e-001  3.574077e-001 -3.574080e-001
    outer loop
      vertex  1.215000e+002  6.150000e+001 -2.707107e+000
      vertex  1.217071e+002  6.170711e+001 -2.000000e+000
      vertex  1.217071e+002  6.100000e+001 -2.707107e+000
    endloop
  endfacet
  facet normal  8.628569e-001  3.574057e-001 -3.574060e-001
    outer loop
      vertex  1.217071e+002  6.100000e+001 -2.707107e+000
      vertex  1.217071e+002  6.170711e+001 -2.000000e+000
      vertex  1.220000e+002  6.100000e+001 -2.000000e+000
    endloop
  endfacet
  facet normal  9.238800e-001  0.000000e+000 -3.826826e-001
    outer loop
      vertex  1.220000e+002  6.100000e+001 -2.000000e+000
      vertex  1.220000e+002 -6.100000e+001 -2.000000e+000
      vertex  1.217071e+002  6.100000e+001 -2.707107e+000
    endloop
  endfacet
  facet normal  9.238800e-001  0.000000e+000 -3.826826e-001
    outer loop
      vertex  1.217071e+002  6.100000e+001 -2.707107e+000
      vertex  1.220000e+002 -6.100000e+001 -2.000000e+000
      vertex  1.217071e+002 -6.100000e+001 -2.707107e+000
    endloop
  endfacet
  facet normal  3.826830e-001  0.000000e+000 -9.238797e-001
    outer loop
      vertex  1.217071e+002  6.100000e+001 -2.707107e+000
      vertex  1.217071e+002 -6.100000e+001 -2.707107e+000
      vertex  1.210000e+002  6.100000e+001 -3.000000e+000
    endloop
  endfacet
  facet normal  3.826830e-001  0.000000e+000 -9.238797e-001
    outer loop
      vertex  1.210000e+002  6.100000e+001 -3.000000e+000
      vertex  1.217071e+002 -6.100000e+001 -2.707107e+000
      vertex  1.210000e+002 -6.100000e+001 -3.000000e+000
    endloop
  endfacet
  facet normal  1.565584e-001 -3.779640e-001 -9.124871e-001
    outer loop
      vertex  1.210000e+002 -6.100000e+001 -3.000000e+000
      vertex  1.215000e+002 -6.150000e+001 -2.707107e+000
      vertex  1.210000e+002 -6.170711e+001 -2.707107e+000
    endloop
  endfacet
  facet normal  3.779640e-001 -1.565584e-001 -9.124871e-001
    outer loop
      vertex  1.210000e+002 -6.100000e+001 -3.000000e+000
      vertex  1.217071e+002 -6.100000e+001 -2.707107e+000
      vertex  1.215000e+002 -6.150000e+001 -2.707107e+000
    endloop
  endfacet
  facet normal  8.628561e-001 -3.574080e-001 -3.574058e-001
    outer loop
      vertex  1.217071e+002 -6.100000e+001 -2.707107e+000
      vertex  1.220000e+002 -6.100000e+001 -2.000000e+000
      vertex  1.215000e+002 -6.150000e+001 -2.707107e+000
    endloop
  endfacet
  facet normal  8.628563e-001 -3.574055e-001 -3.574077e-001
    outer loop
      vertex  1.215000e+002 -6.150000e+001 -2.707107e+000
      vertex  1.220000e+002 -6.100000e+001 -2.000000e+000
      vertex  1.217071e+002 -6.170711e+001 -2.000000e+000
    endloop
  endfacet
  facet normal  3.574077e-001 -8.628554e-001 -3.574080e-001
    outer loop
      vertex  1.215000e+002 -6.150000e+001 -2.707107e+000
      vertex  1.217071e+002 -6.170711e+001 -2.000000e+000
      vertex  1.210000e+002 -6.170711e+001 -2.707107e+000
    endloop
  endfacet
  facet normal  3.574057e-001 -8.628569e-001 -3.574060e-001
    outer loop
      vertex  1.210000e+002 -6.170711e+001 -2.707107e+000
      vertex  1.217071e+002 -6.170711e+001 -2.000000e+000
      vertex  1.210000e+002 -6.200000e+001 -2.000000e+000
    endloop
  endfacet
  facet normal  1.000000e+000  -0.000000e+000  0.000000e+000
    outer loop
      vertex  1.250000e+002  6.400000e+001  2.000000e+000
      vertex  1.250000e+002 -6.400000e+001  2.000000e+000
      vertex  1.250000e+002  6.400000e+001  0.000000e+000
    endloop
  endfacet
  facet normal  1.000000e+000  0.000000e+000  0.000000e+000
    outer loop
      vertex  1.250000e+002  6.400000e+001  0.000000e+000
      vertex  1.250000e+002 -6.400000e+001  2.000000e+000
      vertex  1.250000e+002 -6.400000e+001  0.000000e+000
    endloop
  endfacet
  facet normal  9.238800e-001 -3.826822e-001  0.000000e+000
    outer loop
      vertex  1.250000e+002 -6.400000e+001  0.000000e+000
      vertex  1.250000e+002 -6.400000e+001  2.000000e+000
      vertex  1.247071e+002 -6.470711e+001  0.000000e+000
    endloop
  endfacet
  facet normal  9.238800e-001 -3.826822e-001  0.000000e+000
    outer loop
      vertex  1.247071e+002 -6.470711e+001  0.000000e+000
      vertex  1.250000e+002 -6.400000e+001  2.000000e+000
      vertex  1.247071e+002 -6.470711e+001  2.000000e+000
    endloop
  endfacet
  facet normal  3.826822e-001 -9.238800e-001  0.000000e+000
    outer loop
      vertex  1.247071e+002 -6.470711e+001  0.000000e+000
      vertex  1.247071e+002 -6.470711e+001  2.000000e+000
      vertex  1.240000e+002 -6.500000e+001  0.000000e+000
    endloop
  endfacet
  facet normal  3.826822e-001 -9.238800e-001  0.000000e+000
    outer loop
      vertex  1.240000e+002 -6.500000e+001  0.000000e+000
      vertex  1.247071e+002 -6.470711e+001  2.000000e+000
      vertex  1.240000e+002 -6.500000e+001  2.000000e+000
    endloop
  endfacet
  facet normal  3.826822e-001  9.238800e-001  0.000000e+000
    outer loop
      vertex  1.240000e+002  6.500000e+001  0.000000e+000
      vertex  1.240000e+002  6.500000e+001  2.000000e+000
      vertex  1.247071e+002  6.470711e+001  0.000000e+000
    endloop
  endfacet
  facet normal  3.826822e-001  9.238800e-001  -0.000000e+000
    outer loop
      vertex  1.247071e+002  6.470711e+001  0.000000e+000
      vertex  1.240000e+002  6.500000e+001  2.000000e+000
      vertex  1.247071e+002  6.470711e+001  2.000000e+000
    endloop
  endfacet
  facet normal  9.238800e-001  3.826822e-001  0.000000e+000
    outer loop
      vertex  1.247071e+002  6.470711e+001  0.000000e+000
      vertex  1.247071e+002  6.470711e+001  2.000000e+000
      vertex  1.250000e+002  6.400000e+001  0.000000e+000
    endloop
  endfacet
  facet normal  9.238800e-001  3.826822e-001  -0.000000e+000
    outer loop
      vertex  1.250000e+002  6.400000e+001  0.000000e+000
      vertex  1.247071e+002  6.470711e+001  2.000000e+000
      vertex  1.250000e+002  6.400000e+001  2.000000e+000
    endloop
  endfacet
endsolid CATIA STL
