solid CATIA STL
  facet normal  0.000000e+000  0.000000e+000  1.000000e+000
    outer loop
      vertex -1.050000e+002  6.000000e+001  5.000000e+001
      vertex -1.050000e+002 -6.000000e+001  5.000000e+001
      vertex -1.020000e+002 -5.700000e+001  5.000000e+001
    endloop
  endfacet
  facet normal  0.000000e+000  -0.000000e+000  1.000000e+000
    outer loop
      vertex -1.050000e+002  6.000000e+001  5.000000e+001
      vertex -1.020000e+002 -5.700000e+001  5.000000e+001
      vertex -1.020000e+002 -4.400000e+001  5.000000e+001
    endloop
  endfacet
  facet normal  0.000000e+000  -0.000000e+000  1.000000e+000
    outer loop
      vertex -1.050000e+002  6.000000e+001  5.000000e+001
      vertex -1.020000e+002 -4.400000e+001  5.000000e+001
      vertex -1.020000e+002 -4.200000e+001  5.000000e+001
    endloop
  endfacet
  facet normal  0.000000e+000  -0.000000e+000  1.000000e+000
    outer loop
      vertex -1.050000e+002  6.000000e+001  5.000000e+001
      vertex -1.020000e+002 -4.200000e+001  5.000000e+001
      vertex -1.020000e+002  5.700000e+001  5.000000e+001
    endloop
  endfacet
  facet normal  0.000000e+000  -0.000000e+000  1.000000e+000
    outer loop
      vertex -1.050000e+002  6.000000e+001  5.000000e+001
      vertex -1.020000e+002  5.700000e+001  5.000000e+001
      vertex  1.020000e+002  5.700000e+001  5.000000e+001
    endloop
  endfacet
  facet normal  0.000000e+000  -0.000000e+000  1.000000e+000
    outer loop
      vertex -1.050000e+002  6.000000e+001  5.000000e+001
      vertex  1.020000e+002  5.700000e+001  5.000000e+001
      vertex  1.050000e+002  6.000000e+001  5.000000e+001
    endloop
  endfacet
  facet normal  -0.000000e+000  0.000000e+000  1.000000e+000
    outer loop
      vertex  1.050000e+002  6.000000e+001  5.000000e+001
      vertex  1.020000e+002  5.700000e+001  5.000000e+001
      vertex  1.050000e+002 -6.000000e+001  5.000000e+001
    endloop
  endfacet
  facet normal  0.000000e+000  0.000000e+000  1.000000e+000
    outer loop
      vertex  1.050000e+002 -6.000000e+001  5.000000e+001
      vertex  1.020000e+002  5.700000e+001  5.000000e+001
      vertex  1.020000e+002 -5.700000e+001  5.000000e+001
    endloop
  endfacet
  facet normal  0.000000e+000  0.000000e+000  1.000000e+000
    outer loop
      vertex  1.050000e+002 -6.000000e+001  5.000000e+001
      vertex  1.020000e+002 -5.700000e+001  5.000000e+001
      vertex -1.050000e+002 -6.000000e+001  5.000000e+001
    endloop
  endfacet
  facet normal  0.000000e+000  0.000000e+000  1.000000e+000
    outer loop
      vertex -1.050000e+002 -6.000000e+001  5.000000e+001
      vertex  1.020000e+002 -5.700000e+001  5.000000e+001
      vertex -1.020000e+002 -5.700000e+001  5.000000e+001
    endloop
  endfacet
  facet normal  0.000000e+000  0.000000e+000  9.999999e-001
    outer loop
      vertex -1.020000e+002 -4.200000e+001  5.000000e+001
      vertex -1.020000e+002 -4.400000e+001  5.000000e+001
      vertex  8.700000e+001 -4.200000e+001  5.000000e+001
    endloop
  endfacet
  facet normal  0.000000e+000  0.000000e+000  9.999999e-001
    outer loop
      vertex  8.700000e+001 -4.200000e+001  5.000000e+001
      vertex -1.020000e+002 -4.400000e+001  5.000000e+001
      vertex  8.700000e+001 -4.400000e+001  5.000000e+001
    endloop
  endfacet
  facet normal -1.000000e+000  0.000000e+000  0.000000e+000
    outer loop
      vertex  1.020000e+002  5.700000e+001  4.000000e+000
      vertex  1.020000e+002 -5.700000e+001  4.000000e+000
      vertex  1.020000e+002  5.700000e+001  5.000000e+001
    endloop
  endfacet
  facet normal -1.000000e+000  -0.000000e+000  0.000000e+000
    outer loop
      vertex  1.020000e+002  5.700000e+001  5.000000e+001
      vertex  1.020000e+002 -5.700000e+001  4.000000e+000
      vertex  1.020000e+002 -5.700000e+001  5.000000e+001
    endloop
  endfacet
  facet normal  0.000000e+000  1.000000e+000  0.000000e+000
    outer loop
      vertex  1.020000e+002 -5.700000e+001  4.000000e+000
      vertex -1.020000e+002 -5.700000e+001  4.000000e+000
      vertex  1.020000e+002 -5.700000e+001  5.000000e+001
    endloop
  endfacet
  facet normal  0.000000e+000  1.000000e+000  0.000000e+000
    outer loop
      vertex  1.020000e+002 -5.700000e+001  5.000000e+001
      vertex -1.020000e+002 -5.700000e+001  4.000000e+000
      vertex -1.020000e+002 -5.700000e+001  5.000000e+001
    endloop
  endfacet
  facet normal  1.000000e+000  0.000000e+000  0.000000e+000
    outer loop
      vertex -1.020000e+002 -5.700000e+001  4.000000e+000
      vertex -1.020000e+002 -4.400000e+001  4.000000e+000
      vertex -1.020000e+002 -5.700000e+001  5.000000e+001
    endloop
  endfacet
  facet normal  1.000000e+000  -0.000000e+000  0.000000e+000
    outer loop
      vertex -1.020000e+002 -5.700000e+001  5.000000e+001
      vertex -1.020000e+002 -4.400000e+001  4.000000e+000
      vertex -1.020000e+002 -4.400000e+001  5.000000e+001
    endloop
  endfacet
  facet normal  0.000000e+000 -1.000000e+000  -0.000000e+000
    outer loop
      vertex  8.700000e+001 -4.400000e+001  4.000000e+000
      vertex  8.700000e+001 -4.400000e+001  5.000000e+001
      vertex -1.020000e+002 -4.400000e+001  4.000000e+000
    endloop
  endfacet
  facet normal  0.000000e+000 -1.000000e+000  0.000000e+000
    outer loop
      vertex -1.020000e+002 -4.400000e+001  4.000000e+000
      vertex  8.700000e+001 -4.400000e+001  5.000000e+001
      vertex -1.020000e+002 -4.400000e+001  5.000000e+001
    endloop
  endfacet
  facet normal  1.000000e+000  -0.000000e+000  0.000000e+000
    outer loop
      vertex  8.700000e+001 -4.200000e+001  5.000000e+001
      vertex  8.700000e+001 -4.400000e+001  5.000000e+001
      vertex  8.700000e+001 -4.200000e+001  4.000000e+000
    endloop
  endfacet
  facet normal  1.000000e+000  0.000000e+000  0.000000e+000
    outer loop
      vertex  8.700000e+001 -4.200000e+001  4.000000e+000
      vertex  8.700000e+001 -4.400000e+001  5.000000e+001
      vertex  8.700000e+001 -4.400000e+001  4.000000e+000
    endloop
  endfacet
  facet normal  0.000000e+000  1.000000e+000  0.000000e+000
    outer loop
      vertex -1.020000e+002 -4.200000e+001  4.000000e+000
      vertex -1.020000e+002 -4.200000e+001  5.000000e+001
      vertex  8.700000e+001 -4.200000e+001  4.000000e+000
    endloop
  endfacet
  facet normal  0.000000e+000  1.000000e+000  -0.000000e+000
    outer loop
      vertex  8.700000e+001 -4.200000e+001  4.000000e+000
      vertex -1.020000e+002 -4.200000e+001  5.000000e+001
      vertex  8.700000e+001 -4.200000e+001  5.000000e+001
    endloop
  endfacet
  facet normal  1.000000e+000  0.000000e+000  0.000000e+000
    outer loop
      vertex -1.020000e+002 -4.200000e+001  4.000000e+000
      vertex -1.020000e+002  5.700000e+001  4.000000e+000
      vertex -1.020000e+002 -4.200000e+001  5.000000e+001
    endloop
  endfacet
  facet normal  1.000000e+000  -0.000000e+000  0.000000e+000
    outer loop
      vertex -1.020000e+002 -4.200000e+001  5.000000e+001
      vertex -1.020000e+002  5.700000e+001  4.000000e+000
      vertex -1.020000e+002  5.700000e+001  5.000000e+001
    endloop
  endfacet
  facet normal  0.000000e+000 -1.000000e+000  0.000000e+000
    outer loop
      vertex -1.020000e+002  5.700000e+001  4.000000e+000
      vertex  1.020000e+002  5.700000e+001  4.000000e+000
      vertex -1.020000e+002  5.700000e+001  5.000000e+001
    endloop
  endfacet
  facet normal  0.000000e+000 -1.000000e+000  0.000000e+000
    outer loop
      vertex -1.020000e+002  5.700000e+001  5.000000e+001
      vertex  1.020000e+002  5.700000e+001  4.000000e+000
      vertex  1.020000e+002  5.700000e+001  5.000000e+001
    endloop
  endfacet
  facet normal  0.000000e+000  0.000000e+000  1.000000e+000
    outer loop
      vertex -1.020000e+002  5.700000e+001  4.000000e+000
      vertex -1.020000e+002 -4.200000e+001  4.000000e+000
      vertex  1.020000e+002  5.700000e+001  4.000000e+000
    endloop
  endfacet
  facet normal  0.000000e+000  0.000000e+000  1.000000e+000
    outer loop
      vertex  1.020000e+002  5.700000e+001  4.000000e+000
      vertex -1.020000e+002 -4.200000e+001  4.000000e+000
      vertex  8.700000e+001 -4.200000e+001  4.000000e+000
    endloop
  endfacet
  facet normal  -0.000000e+000  0.000000e+000  1.000000e+000
    outer loop
      vertex  1.020000e+002  5.700000e+001  4.000000e+000
      vertex  8.700000e+001 -4.200000e+001  4.000000e+000
      vertex  1.020000e+002 -5.700000e+001  4.000000e+000
    endloop
  endfacet
  facet normal  0.000000e+000  0.000000e+000  1.000000e+000
    outer loop
      vertex  1.020000e+002 -5.700000e+001  4.000000e+000
      vertex  8.700000e+001 -4.200000e+001  4.000000e+000
      vertex  8.700000e+001 -4.400000e+001  4.000000e+000
    endloop
  endfacet
  facet normal  0.000000e+000  0.000000e+000  1.000000e+000
    outer loop
      vertex  1.020000e+002 -5.700000e+001  4.000000e+000
      vertex  8.700000e+001 -4.400000e+001  4.000000e+000
      vertex -1.020000e+002 -5.700000e+001  4.000000e+000
    endloop
  endfacet
  facet normal  0.000000e+000  0.000000e+000  1.000000e+000
    outer loop
      vertex -1.020000e+002 -5.700000e+001  4.000000e+000
      vertex  8.700000e+001 -4.400000e+001  4.000000e+000
      vertex -1.020000e+002 -4.400000e+001  4.000000e+000
    endloop
  endfacet
  facet normal  0.000000e+000  0.000000e+000 -9.999999e-001
    outer loop
      vertex -1.050000e+002 -6.000000e+001  0.000000e+000
      vertex -1.050000e+002  6.000000e+001  0.000000e+000
      vertex  1.050000e+002 -6.000000e+001  0.000000e+000
    endloop
  endfacet
  facet normal  0.000000e+000  0.000000e+000 -9.999999e-001
    outer loop
      vertex  1.050000e+002 -6.000000e+001  0.000000e+000
      vertex -1.050000e+002  6.000000e+001  0.000000e+000
      vertex  1.050000e+002  6.000000e+001  0.000000e+000
    endloop
  endfacet
  facet normal  1.000000e+000  -0.000000e+000  0.000000e+000
    outer loop
      vertex  1.050000e+002  6.000000e+001  5.000000e+001
      vertex  1.050000e+002 -6.000000e+001  5.000000e+001
      vertex  1.050000e+002  6.000000e+001  0.000000e+000
    endloop
  endfacet
  facet normal  1.000000e+000  0.000000e+000  0.000000e+000
    outer loop
      vertex  1.050000e+002  6.000000e+001  0.000000e+000
      vertex  1.050000e+002 -6.000000e+001  5.000000e+001
      vertex  1.050000e+002 -6.000000e+001  0.000000e+000
    endloop
  endfacet
  facet normal  0.000000e+000 -1.000000e+000  0.000000e+000
    outer loop
      vertex  1.050000e+002 -6.000000e+001  5.000000e+001
      vertex -1.050000e+002 -6.000000e+001  5.000000e+001
      vertex  1.050000e+002 -6.000000e+001  0.000000e+000
    endloop
  endfacet
  facet normal  0.000000e+000 -1.000000e+000  0.000000e+000
    outer loop
      vertex  1.050000e+002 -6.000000e+001  0.000000e+000
      vertex -1.050000e+002 -6.000000e+001  5.000000e+001
      vertex -1.050000e+002 -6.000000e+001  0.000000e+000
    endloop
  endfacet
  facet normal -1.000000e+000  -0.000000e+000  0.000000e+000
    outer loop
      vertex -1.050000e+002 -6.000000e+001  5.000000e+001
      vertex -1.050000e+002  6.000000e+001  5.000000e+001
      vertex -1.050000e+002 -6.000000e+001  0.000000e+000
    endloop
  endfacet
  facet normal -1.000000e+000  0.000000e+000  0.000000e+000
    outer loop
      vertex -1.050000e+002 -6.000000e+001  0.000000e+000
      vertex -1.050000e+002  6.000000e+001  5.000000e+001
      vertex -1.050000e+002  6.000000e+001  0.000000e+000
    endloop
  endfacet
  facet normal  0.000000e+000  1.000000e+000  0.000000e+000
    outer loop
      vertex -1.050000e+002  6.000000e+001  5.000000e+001
      vertex  1.050000e+002  6.000000e+001  5.000000e+001
      vertex -1.050000e+002  6.000000e+001  0.000000e+000
    endloop
  endfacet
  facet normal  0.000000e+000  1.000000e+000  0.000000e+000
    outer loop
      vertex -1.050000e+002  6.000000e+001  0.000000e+000
      vertex  1.050000e+002  6.000000e+001  5.000000e+001
      vertex  1.050000e+002  6.000000e+001  0.000000e+000
    endloop
  endfacet
endsolid CATIA STL
