solid CATIA STL
  facet normal -9.238797e-001  3.826831e-001  0.000000e+000
    outer loop
      vertex -1.000000e+000  3.800000e+001 -2.500000e+000
      vertex -1.000000e+000  3.800000e+001  2.500000e+000
      vertex -7.071068e-001  3.870711e+001 -2.500000e+000
    endloop
  endfacet
  facet normal -9.238797e-001  3.826831e-001  0.000000e+000
    outer loop
      vertex -7.071068e-001  3.870711e+001 -2.500000e+000
      vertex -1.000000e+000  3.800000e+001  2.500000e+000
      vertex -7.071068e-001  3.870711e+001  2.500000e+000
    endloop
  endfacet
  facet normal -3.826826e-001  9.238799e-001  0.000000e+000
    outer loop
      vertex -7.071068e-001  3.870711e+001 -2.500000e+000
      vertex -7.071068e-001  3.870711e+001  2.500000e+000
      vertex  0.000000e+000  3.900000e+001 -2.500000e+000
    endloop
  endfacet
  facet normal -3.826826e-001  9.238799e-001  0.000000e+000
    outer loop
      vertex  0.000000e+000  3.900000e+001 -2.500000e+000
      vertex -7.071068e-001  3.870711e+001  2.500000e+000
      vertex  0.000000e+000  3.900000e+001  2.500000e+000
    endloop
  endfacet
  facet normal -1.000000e+000  0.000000e+000  0.000000e+000
    outer loop
      vertex -1.000000e+000  3.800000e+001 -2.500000e+000
      vertex -1.000000e+000  1.658312e+000 -2.500000e+000
      vertex -1.000000e+000  2.632748e+000 -1.438277e+000
    endloop
  endfacet
  facet normal -9.999999e-001  0.000000e+000  0.000000e+000
    outer loop
      vertex -1.000000e+000  3.800000e+001 -2.500000e+000
      vertex -1.000000e+000  2.632748e+000 -1.438277e+000
      vertex -1.000000e+000  2.999963e+000 -1.488916e-002
    endloop
  endfacet
  facet normal -1.000000e+000  0.000000e+000  0.000000e+000
    outer loop
      vertex -1.000000e+000  3.800000e+001 -2.500000e+000
      vertex -1.000000e+000  2.999963e+000 -1.488916e-002
      vertex -1.000000e+000  2.646894e+000  1.412073e+000
    endloop
  endfacet
  facet normal -1.000000e+000  0.000000e+000  0.000000e+000
    outer loop
      vertex -1.000000e+000  3.800000e+001 -2.500000e+000
      vertex -1.000000e+000  2.646894e+000  1.412073e+000
      vertex -1.000000e+000  1.658312e+000  2.500000e+000
    endloop
  endfacet
  facet normal -1.000000e+000  0.000000e+000  0.000000e+000
    outer loop
      vertex -1.000000e+000  3.800000e+001 -2.500000e+000
      vertex -1.000000e+000  1.658312e+000  2.500000e+000
      vertex -1.000000e+000  3.800000e+001  2.500000e+000
    endloop
  endfacet
  facet normal -1.000000e+000  0.000000e+000  0.000000e+000
    outer loop
      vertex -1.000000e+000 -3.800000e+001 -2.500000e+000
      vertex -1.000000e+000 -3.800000e+001  2.500000e+000
      vertex -1.000000e+000 -1.658312e+000  2.500000e+000
    endloop
  endfacet
  facet normal -1.000000e+000  0.000000e+000  0.000000e+000
    outer loop
      vertex -1.000000e+000 -3.800000e+001 -2.500000e+000
      vertex -1.000000e+000 -1.658312e+000  2.500000e+000
      vertex -1.000000e+000 -2.632748e+000  1.438277e+000
    endloop
  endfacet
  facet normal -1.000000e+000  0.000000e+000  0.000000e+000
    outer loop
      vertex -1.000000e+000 -3.800000e+001 -2.500000e+000
      vertex -1.000000e+000 -2.632748e+000  1.438277e+000
      vertex -1.000000e+000 -2.999963e+000  1.488916e-002
    endloop
  endfacet
  facet normal -9.999999e-001  0.000000e+000  -0.000000e+000
    outer loop
      vertex -1.000000e+000 -3.800000e+001 -2.500000e+000
      vertex -1.000000e+000 -2.999963e+000  1.488916e-002
      vertex -1.000000e+000 -2.646894e+000 -1.412073e+000
    endloop
  endfacet
  facet normal -1.000000e+000  0.000000e+000  -0.000000e+000
    outer loop
      vertex -1.000000e+000 -3.800000e+001 -2.500000e+000
      vertex -1.000000e+000 -2.646894e+000 -1.412073e+000
      vertex -1.000000e+000 -1.658312e+000 -2.500000e+000
    endloop
  endfacet
  facet normal -9.238797e-001 -3.826831e-001  0.000000e+000
    outer loop
      vertex -1.000000e+000 -3.800000e+001  2.500000e+000
      vertex -1.000000e+000 -3.800000e+001 -2.500000e+000
      vertex -7.071068e-001 -3.870711e+001  2.500000e+000
    endloop
  endfacet
  facet normal -9.238797e-001 -3.826831e-001  -0.000000e+000
    outer loop
      vertex -7.071068e-001 -3.870711e+001  2.500000e+000
      vertex -1.000000e+000 -3.800000e+001 -2.500000e+000
      vertex -7.071068e-001 -3.870711e+001 -2.500000e+000
    endloop
  endfacet
  facet normal -3.826826e-001 -9.238799e-001  0.000000e+000
    outer loop
      vertex -7.071068e-001 -3.870711e+001  2.500000e+000
      vertex -7.071068e-001 -3.870711e+001 -2.500000e+000
      vertex  0.000000e+000 -3.900000e+001  2.500000e+000
    endloop
  endfacet
  facet normal -3.826826e-001 -9.238799e-001  -0.000000e+000
    outer loop
      vertex  0.000000e+000 -3.900000e+001  2.500000e+000
      vertex -7.071068e-001 -3.870711e+001 -2.500000e+000
      vertex  0.000000e+000 -3.900000e+001 -2.500000e+000
    endloop
  endfacet
  facet normal  1.000000e+000  0.000000e+000  0.000000e+000
    outer loop
      vertex  0.000000e+000 -3.889011e+001 -2.955735e+000
      vertex  0.000000e+000 -3.859425e+001 -3.304283e+000
      vertex  0.000000e+000 -3.900000e+001 -2.500000e+000
    endloop
  endfacet
  facet normal  1.000000e+000  0.000000e+000  0.000000e+000
    outer loop
      vertex  0.000000e+000 -3.900000e+001 -2.500000e+000
      vertex  0.000000e+000 -3.859425e+001 -3.304283e+000
      vertex  0.000000e+000 -3.800000e+001 -3.500000e+000
    endloop
  endfacet
  facet normal  1.000000e+000  0.000000e+000  0.000000e+000
    outer loop
      vertex  0.000000e+000 -3.900000e+001 -2.500000e+000
      vertex  0.000000e+000 -3.800000e+001 -3.500000e+000
      vertex  0.000000e+000 -3.900000e+001  2.500000e+000
    endloop
  endfacet
  facet normal  1.000000e+000  -0.000000e+000  0.000000e+000
    outer loop
      vertex  0.000000e+000 -3.900000e+001  2.500000e+000
      vertex  0.000000e+000 -3.800000e+001 -3.500000e+000
      vertex  0.000000e+000 -3.800000e+001  3.500000e+000
    endloop
  endfacet
  facet normal  1.000000e+000  0.000000e+000  0.000000e+000
    outer loop
      vertex  0.000000e+000 -3.900000e+001  2.500000e+000
      vertex  0.000000e+000 -3.800000e+001  3.500000e+000
      vertex  0.000000e+000 -3.889011e+001  2.955735e+000
    endloop
  endfacet
  facet normal  1.000000e+000  0.000000e+000  0.000000e+000
    outer loop
      vertex  0.000000e+000 -3.889011e+001  2.955735e+000
      vertex  0.000000e+000 -3.800000e+001  3.500000e+000
      vertex  0.000000e+000 -3.859737e+001  3.301969e+000
    endloop
  endfacet
  facet normal  1.000000e+000  0.000000e+000  0.000000e+000
    outer loop
      vertex  0.000000e+000  3.859425e+001 -3.304283e+000
      vertex  0.000000e+000  3.889011e+001 -2.955735e+000
      vertex  0.000000e+000  3.800000e+001 -3.500000e+000
    endloop
  endfacet
  facet normal  1.000000e+000  0.000000e+000  0.000000e+000
    outer loop
      vertex  0.000000e+000  3.800000e+001 -3.500000e+000
      vertex  0.000000e+000  3.889011e+001 -2.955735e+000
      vertex  0.000000e+000  3.900000e+001 -2.500000e+000
    endloop
  endfacet
  facet normal  1.000000e+000  0.000000e+000  0.000000e+000
    outer loop
      vertex  0.000000e+000  3.800000e+001 -3.500000e+000
      vertex  0.000000e+000  3.900000e+001 -2.500000e+000
      vertex  0.000000e+000  3.800000e+001  3.500000e+000
    endloop
  endfacet
  facet normal  1.000000e+000  0.000000e+000  0.000000e+000
    outer loop
      vertex  0.000000e+000  3.800000e+001  3.500000e+000
      vertex  0.000000e+000  3.900000e+001 -2.500000e+000
      vertex  0.000000e+000  3.900000e+001  2.500000e+000
    endloop
  endfacet
  facet normal  1.000000e+000  0.000000e+000  0.000000e+000
    outer loop
      vertex  0.000000e+000  3.800000e+001  3.500000e+000
      vertex  0.000000e+000  3.900000e+001  2.500000e+000
      vertex  0.000000e+000  3.859737e+001  3.301969e+000
    endloop
  endfacet
  facet normal  9.999999e-001  0.000000e+000  0.000000e+000
    outer loop
      vertex  0.000000e+000  3.859737e+001  3.301969e+000
      vertex  0.000000e+000  3.900000e+001  2.500000e+000
      vertex  0.000000e+000  3.889011e+001  2.955735e+000
    endloop
  endfacet
  facet normal  0.000000e+000  0.000000e+000 -1.000000e+000
    outer loop
      vertex  1.000000e+000  3.800000e+001 -3.500000e+000
      vertex  1.000000e+000 -3.800000e+001 -3.500000e+000
      vertex  0.000000e+000  3.800000e+001 -3.500000e+000
    endloop
  endfacet
  facet normal  0.000000e+000  0.000000e+000 -1.000000e+000
    outer loop
      vertex  0.000000e+000  3.800000e+001 -3.500000e+000
      vertex  1.000000e+000 -3.800000e+001 -3.500000e+000
      vertex  0.000000e+000 -3.800000e+001 -3.500000e+000
    endloop
  endfacet
  facet normal -7.153277e-002  9.013785e-001  4.270831e-001
    outer loop
      vertex  1.000000e+000 -2.181446e+000 -2.059440e+000
      vertex -1.000000e+000 -2.646894e+000 -1.412073e+000
      vertex  1.000000e+000 -2.975335e+000 -3.839000e-001
    endloop
  endfacet
  facet normal  4.539604e-002  7.393270e-001  6.718146e-001
    outer loop
      vertex -1.000000e+000 -2.646894e+000 -1.412073e+000
      vertex  1.000000e+000 -2.181446e+000 -2.059440e+000
      vertex -1.000000e+000 -1.658312e+000 -2.500000e+000
    endloop
  endfacet
  facet normal  3.591483e-002  9.701011e-001  2.400291e-001
    outer loop
      vertex -1.000000e+000 -2.646894e+000 -1.412073e+000
      vertex -1.000000e+000 -2.999963e+000  1.488916e-002
      vertex  1.000000e+000 -2.975335e+000 -3.839000e-001
    endloop
  endfacet
  facet normal -6.161642e-002  9.664556e-001 -2.493329e-001
    outer loop
      vertex  1.000000e+000 -2.975335e+000 -3.839000e-001
      vertex -1.000000e+000 -2.999963e+000  1.488916e-002
      vertex -1.000000e+000 -2.632748e+000  1.438277e+000
    endloop
  endfacet
  facet normal  0.000000e+000  9.827813e-001 -1.847728e-001
    outer loop
      vertex  1.000000e+000 -2.975335e+000 -3.839000e-001
      vertex -1.000000e+000 -2.632748e+000  1.438277e+000
      vertex  1.000000e+000 -2.632748e+000  1.438277e+000
    endloop
  endfacet
  facet normal  6.694059e-003 -4.643275e-001  8.856382e-001
    outer loop
      vertex -1.000000e+000  1.658312e+000 -2.500000e+000
      vertex -9.585611e-001  1.115529e+000 -2.784887e+000
      vertex  1.000000e+000  1.284540e+000 -2.711081e+000
    endloop
  endfacet
  facet normal -2.646338e-002 -1.263727e-001  9.916298e-001
    outer loop
      vertex  1.000000e+000  1.284540e+000 -2.711081e+000
      vertex -9.585611e-001  1.115529e+000 -2.784887e+000
      vertex -8.802008e-001 -3.895463e-001 -2.974602e+000
    endloop
  endfacet
  facet normal -2.505713e-002 -1.279265e-001  9.914671e-001
    outer loop
      vertex  1.000000e+000  1.284540e+000 -2.711081e+000
      vertex -8.802008e-001 -3.895463e-001 -2.974602e+000
      vertex  1.000000e+000 -5.543185e-001 -2.948344e+000
    endloop
  endfacet
  facet normal  1.748616e-002  3.488535e-001  9.370142e-001
    outer loop
      vertex  1.000000e+000 -5.543185e-001 -2.948344e+000
      vertex -8.802008e-001 -3.895463e-001 -2.974602e+000
      vertex -1.000000e+000 -1.658312e+000 -2.500000e+000
    endloop
  endfacet
  facet normal -6.775604e-002  4.783238e-001  8.755658e-001
    outer loop
      vertex  1.000000e+000 -5.543185e-001 -2.948344e+000
      vertex -1.000000e+000 -1.658312e+000 -2.500000e+000
      vertex  1.000000e+000 -2.181446e+000 -2.059440e+000
    endloop
  endfacet
  facet normal -6.617834e-002 -7.351280e-001  6.746904e-001
    outer loop
      vertex -1.000000e+000  1.658312e+000 -2.500000e+000
      vertex  1.000000e+000  1.284540e+000 -2.711081e+000
      vertex -1.000000e+000  2.632748e+000 -1.438277e+000
    endloop
  endfacet
  facet normal  0.000000e+000 -6.864800e-001  7.271487e-001
    outer loop
      vertex -1.000000e+000  2.632748e+000 -1.438277e+000
      vertex  1.000000e+000  1.284540e+000 -2.711081e+000
      vertex  1.000000e+000  2.632748e+000 -1.438277e+000
    endloop
  endfacet
  facet normal -2.366453e-001  3.039378e-001 -9.228331e-001
    outer loop
      vertex  0.000000e+000  3.800000e+001 -3.500000e+000
      vertex -5.000000e-001  3.850000e+001 -3.207107e+000
      vertex  0.000000e+000  3.859425e+001 -3.304283e+000
    endloop
  endfacet
  facet normal -3.779644e-001  1.565580e-001 -9.124870e-001
    outer loop
      vertex  0.000000e+000  3.800000e+001 -3.500000e+000
      vertex -7.071068e-001  3.800000e+001 -3.207107e+000
      vertex -5.000000e-001  3.850000e+001 -3.207107e+000
    endloop
  endfacet
  facet normal -3.735268e-001  9.017758e-001 -2.174350e-001
    outer loop
      vertex  0.000000e+000  3.900000e+001 -2.500000e+000
      vertex  0.000000e+000  3.889011e+001 -2.955735e+000
      vertex -7.071068e-001  3.870711e+001 -2.500000e+000
    endloop
  endfacet
  facet normal -5.234864e-001  6.495645e-001 -5.513873e-001
    outer loop
      vertex  0.000000e+000  3.889011e+001 -2.955735e+000
      vertex  0.000000e+000  3.859425e+001 -3.304283e+000
      vertex -7.071068e-001  3.870711e+001 -2.500000e+000
    endloop
  endfacet
  facet normal -2.371652e-001  9.113666e-001 -3.363981e-001
    outer loop
      vertex -7.071068e-001  3.870711e+001 -2.500000e+000
      vertex  0.000000e+000  3.859425e+001 -3.304283e+000
      vertex -5.000000e-001  3.850000e+001 -3.207107e+000
    endloop
  endfacet
  facet normal -8.628563e-001  3.574064e-001 -3.574070e-001
    outer loop
      vertex -7.071068e-001  3.870711e+001 -2.500000e+000
      vertex -5.000000e-001  3.850000e+001 -3.207107e+000
      vertex -1.000000e+000  3.800000e+001 -2.500000e+000
    endloop
  endfacet
  facet normal -8.628562e-001  3.574067e-001 -3.574067e-001
    outer loop
      vertex -1.000000e+000  3.800000e+001 -2.500000e+000
      vertex -5.000000e-001  3.850000e+001 -3.207107e+000
      vertex -7.071068e-001  3.800000e+001 -3.207107e+000
    endloop
  endfacet
  facet normal -3.826834e-001  -0.000000e+000 -9.238796e-001
    outer loop
      vertex -7.071068e-001  3.800000e+001 -3.207107e+000
      vertex  0.000000e+000  3.800000e+001 -3.500000e+000
      vertex  0.000000e+000 -3.800000e+001 -3.500000e+000
    endloop
  endfacet
  facet normal -3.826834e-001  0.000000e+000 -9.238796e-001
    outer loop
      vertex -7.071068e-001  3.800000e+001 -3.207107e+000
      vertex  0.000000e+000 -3.800000e+001 -3.500000e+000
      vertex -7.071068e-001 -3.800000e+001 -3.207107e+000
    endloop
  endfacet
  facet normal -8.021228e-001  0.000000e+000 -5.971591e-001
    outer loop
      vertex -7.071068e-001  3.800000e+001 -3.207107e+000
      vertex -7.071068e-001 -3.800000e+001 -3.207107e+000
      vertex -8.802008e-001 -3.895463e-001 -2.974602e+000
    endloop
  endfacet
  facet normal -9.192547e-001  1.760625e-003 -3.936594e-001
    outer loop
      vertex -7.071068e-001  3.800000e+001 -3.207107e+000
      vertex -8.802008e-001 -3.895463e-001 -2.974602e+000
      vertex -9.585611e-001  1.115529e+000 -2.784887e+000
    endloop
  endfacet
  facet normal -9.881778e-001  4.982704e-003 -1.532311e-001
    outer loop
      vertex -7.071068e-001  3.800000e+001 -3.207107e+000
      vertex -9.585611e-001  1.115529e+000 -2.784887e+000
      vertex -1.000000e+000  1.658312e+000 -2.500000e+000
    endloop
  endfacet
  facet normal -9.238795e-001  0.000000e+000 -3.826834e-001
    outer loop
      vertex -7.071068e-001  3.800000e+001 -3.207107e+000
      vertex -1.000000e+000  1.658312e+000 -2.500000e+000
      vertex -1.000000e+000  3.800000e+001 -2.500000e+000
    endloop
  endfacet
  facet normal -9.677193e-001 -2.895788e-003 -2.520137e-001
    outer loop
      vertex -8.802008e-001 -3.895463e-001 -2.974602e+000
      vertex -7.071068e-001 -3.800000e+001 -3.207107e+000
      vertex -1.000000e+000 -1.658312e+000 -2.500000e+000
    endloop
  endfacet
  facet normal -9.238795e-001  -0.000000e+000 -3.826834e-001
    outer loop
      vertex -1.000000e+000 -1.658312e+000 -2.500000e+000
      vertex -7.071068e-001 -3.800000e+001 -3.207107e+000
      vertex -1.000000e+000 -3.800000e+001 -2.500000e+000
    endloop
  endfacet
  facet normal -3.779644e-001 -1.565580e-001 -9.124870e-001
    outer loop
      vertex  0.000000e+000 -3.800000e+001 -3.500000e+000
      vertex -5.000000e-001 -3.850000e+001 -3.207107e+000
      vertex -7.071068e-001 -3.800000e+001 -3.207107e+000
    endloop
  endfacet
  facet normal -2.366453e-001 -3.039378e-001 -9.228331e-001
    outer loop
      vertex  0.000000e+000 -3.800000e+001 -3.500000e+000
      vertex  0.000000e+000 -3.859425e+001 -3.304283e+000
      vertex -5.000000e-001 -3.850000e+001 -3.207107e+000
    endloop
  endfacet
  facet normal -3.735268e-001 -9.017758e-001 -2.174350e-001
    outer loop
      vertex  0.000000e+000 -3.900000e+001 -2.500000e+000
      vertex -7.071068e-001 -3.870711e+001 -2.500000e+000
      vertex  0.000000e+000 -3.889011e+001 -2.955735e+000
    endloop
  endfacet
  facet normal -2.601929e-001 -7.361106e-001 -6.248526e-001
    outer loop
      vertex  0.000000e+000 -3.859425e+001 -3.304283e+000
      vertex  0.000000e+000 -3.889011e+001 -2.955735e+000
      vertex -5.000000e-001 -3.850000e+001 -3.207107e+000
    endloop
  endfacet
  facet normal -4.488498e-001 -8.135261e-001 -3.697422e-001
    outer loop
      vertex -5.000000e-001 -3.850000e+001 -3.207107e+000
      vertex  0.000000e+000 -3.889011e+001 -2.955735e+000
      vertex -7.071068e-001 -3.870711e+001 -2.500000e+000
    endloop
  endfacet
  facet normal -8.628561e-001 -3.574067e-001 -3.574070e-001
    outer loop
      vertex -5.000000e-001 -3.850000e+001 -3.207107e+000
      vertex -7.071068e-001 -3.870711e+001 -2.500000e+000
      vertex -7.071068e-001 -3.800000e+001 -3.207107e+000
    endloop
  endfacet
  facet normal -8.628563e-001 -3.574064e-001 -3.574068e-001
    outer loop
      vertex -7.071068e-001 -3.800000e+001 -3.207107e+000
      vertex -7.071068e-001 -3.870711e+001 -2.500000e+000
      vertex -1.000000e+000 -3.800000e+001 -2.500000e+000
    endloop
  endfacet
  facet normal  0.000000e+000  0.000000e+000  1.000000e+000
    outer loop
      vertex  1.000000e+000 -3.800000e+001  3.500000e+000
      vertex  1.000000e+000  3.800000e+001  3.500000e+000
      vertex  0.000000e+000 -3.800000e+001  3.500000e+000
    endloop
  endfacet
  facet normal  0.000000e+000  0.000000e+000  1.000000e+000
    outer loop
      vertex  0.000000e+000 -3.800000e+001  3.500000e+000
      vertex  1.000000e+000  3.800000e+001  3.500000e+000
      vertex  0.000000e+000  3.800000e+001  3.500000e+000
    endloop
  endfacet
  facet normal -7.153277e-002 -9.013785e-001 -4.270831e-001
    outer loop
      vertex  1.000000e+000  2.181446e+000  2.059440e+000
      vertex -1.000000e+000  2.646894e+000  1.412073e+000
      vertex  1.000000e+000  2.975335e+000  3.839000e-001
    endloop
  endfacet
  facet normal  4.539604e-002 -7.393270e-001 -6.718146e-001
    outer loop
      vertex -1.000000e+000  2.646894e+000  1.412073e+000
      vertex  1.000000e+000  2.181446e+000  2.059440e+000
      vertex -1.000000e+000  1.658312e+000  2.500000e+000
    endloop
  endfacet
  facet normal  3.591483e-002 -9.701011e-001 -2.400291e-001
    outer loop
      vertex -1.000000e+000  2.646894e+000  1.412073e+000
      vertex -1.000000e+000  2.999963e+000 -1.488916e-002
      vertex  1.000000e+000  2.975335e+000  3.839000e-001
    endloop
  endfacet
  facet normal -6.161642e-002 -9.664556e-001  2.493329e-001
    outer loop
      vertex  1.000000e+000  2.975335e+000  3.839000e-001
      vertex -1.000000e+000  2.999963e+000 -1.488916e-002
      vertex -1.000000e+000  2.632748e+000 -1.438277e+000
    endloop
  endfacet
  facet normal  0.000000e+000 -9.827813e-001  1.847728e-001
    outer loop
      vertex  1.000000e+000  2.975335e+000  3.839000e-001
      vertex -1.000000e+000  2.632748e+000 -1.438277e+000
      vertex  1.000000e+000  2.632748e+000 -1.438277e+000
    endloop
  endfacet
  facet normal  6.694059e-003  4.643275e-001 -8.856382e-001
    outer loop
      vertex -1.000000e+000 -1.658312e+000  2.500000e+000
      vertex -9.585611e-001 -1.115529e+000  2.784887e+000
      vertex  1.000000e+000 -1.284540e+000  2.711081e+000
    endloop
  endfacet
  facet normal -2.646338e-002  1.263727e-001 -9.916298e-001
    outer loop
      vertex  1.000000e+000 -1.284540e+000  2.711081e+000
      vertex -9.585611e-001 -1.115529e+000  2.784887e+000
      vertex -8.802008e-001  3.895463e-001  2.974602e+000
    endloop
  endfacet
  facet normal -2.505713e-002  1.279265e-001 -9.914671e-001
    outer loop
      vertex  1.000000e+000 -1.284540e+000  2.711081e+000
      vertex -8.802008e-001  3.895463e-001  2.974602e+000
      vertex  1.000000e+000  5.543185e-001  2.948344e+000
    endloop
  endfacet
  facet normal  1.748616e-002 -3.488535e-001 -9.370142e-001
    outer loop
      vertex  1.000000e+000  5.543185e-001  2.948344e+000
      vertex -8.802008e-001  3.895463e-001  2.974602e+000
      vertex -1.000000e+000  1.658312e+000  2.500000e+000
    endloop
  endfacet
  facet normal -6.775604e-002 -4.783238e-001 -8.755658e-001
    outer loop
      vertex  1.000000e+000  5.543185e-001  2.948344e+000
      vertex -1.000000e+000  1.658312e+000  2.500000e+000
      vertex  1.000000e+000  2.181446e+000  2.059440e+000
    endloop
  endfacet
  facet normal -6.617834e-002  7.351280e-001 -6.746904e-001
    outer loop
      vertex -1.000000e+000 -1.658312e+000  2.500000e+000
      vertex  1.000000e+000 -1.284540e+000  2.711081e+000
      vertex -1.000000e+000 -2.632748e+000  1.438277e+000
    endloop
  endfacet
  facet normal  0.000000e+000  6.864800e-001 -7.271487e-001
    outer loop
      vertex -1.000000e+000 -2.632748e+000  1.438277e+000
      vertex  1.000000e+000 -1.284540e+000  2.711081e+000
      vertex  1.000000e+000 -2.632748e+000  1.438277e+000
    endloop
  endfacet
  facet normal  0.000000e+000  1.000000e+000  -0.000000e+000
    outer loop
      vertex  1.000000e+000  3.800000e+001  3.500000e+000
      vertex  1.000000e+000  3.800000e+001 -3.500000e+000
      vertex  0.000000e+000  3.800000e+001  3.500000e+000
    endloop
  endfacet
  facet normal  0.000000e+000  1.000000e+000  0.000000e+000
    outer loop
      vertex  0.000000e+000  3.800000e+001  3.500000e+000
      vertex  1.000000e+000  3.800000e+001 -3.500000e+000
      vertex  0.000000e+000  3.800000e+001 -3.500000e+000
    endloop
  endfacet
  facet normal  0.000000e+000 -1.000000e+000  -0.000000e+000
    outer loop
      vertex  1.000000e+000 -3.800000e+001 -3.500000e+000
      vertex  1.000000e+000 -3.800000e+001  3.500000e+000
      vertex  0.000000e+000 -3.800000e+001 -3.500000e+000
    endloop
  endfacet
  facet normal  0.000000e+000 -1.000000e+000  0.000000e+000
    outer loop
      vertex  0.000000e+000 -3.800000e+001 -3.500000e+000
      vertex  1.000000e+000 -3.800000e+001  3.500000e+000
      vertex  0.000000e+000 -3.800000e+001  3.500000e+000
    endloop
  endfacet
  facet normal -2.346250e-001 -3.058836e-001  9.227060e-001
    outer loop
      vertex  0.000000e+000 -3.800000e+001  3.500000e+000
      vertex -5.000000e-001 -3.850000e+001  3.207107e+000
      vertex  0.000000e+000 -3.859737e+001  3.301969e+000
    endloop
  endfacet
  facet normal -3.779644e-001 -1.565580e-001  9.124870e-001
    outer loop
      vertex  0.000000e+000 -3.800000e+001  3.500000e+000
      vertex -7.071068e-001 -3.800000e+001  3.207107e+000
      vertex -5.000000e-001 -3.850000e+001  3.207107e+000
    endloop
  endfacet
  facet normal -3.735268e-001 -9.017758e-001  2.174350e-001
    outer loop
      vertex  0.000000e+000 -3.900000e+001  2.500000e+000
      vertex  0.000000e+000 -3.889011e+001  2.955735e+000
      vertex -7.071068e-001 -3.870711e+001  2.500000e+000
    endloop
  endfacet
  facet normal -5.230962e-001 -6.508177e-001  5.502787e-001
    outer loop
      vertex  0.000000e+000 -3.889011e+001  2.955735e+000
      vertex  0.000000e+000 -3.859737e+001  3.301969e+000
      vertex -7.071068e-001 -3.870711e+001  2.500000e+000
    endloop
  endfacet
  facet normal -2.411823e-001 -9.100220e-001  3.371809e-001
    outer loop
      vertex -7.071068e-001 -3.870711e+001  2.500000e+000
      vertex  0.000000e+000 -3.859737e+001  3.301969e+000
      vertex -5.000000e-001 -3.850000e+001  3.207107e+000
    endloop
  endfacet
  facet normal -8.628563e-001 -3.574064e-001  3.574070e-001
    outer loop
      vertex -7.071068e-001 -3.870711e+001  2.500000e+000
      vertex -5.000000e-001 -3.850000e+001  3.207107e+000
      vertex -1.000000e+000 -3.800000e+001  2.500000e+000
    endloop
  endfacet
  facet normal -8.628562e-001 -3.574067e-001  3.574067e-001
    outer loop
      vertex -1.000000e+000 -3.800000e+001  2.500000e+000
      vertex -5.000000e-001 -3.850000e+001  3.207107e+000
      vertex -7.071068e-001 -3.800000e+001  3.207107e+000
    endloop
  endfacet
  facet normal -3.826834e-001  0.000000e+000  9.238796e-001
    outer loop
      vertex -7.071068e-001 -3.800000e+001  3.207107e+000
      vertex  0.000000e+000 -3.800000e+001  3.500000e+000
      vertex  0.000000e+000  3.800000e+001  3.500000e+000
    endloop
  endfacet
  facet normal -3.826834e-001  0.000000e+000  9.238796e-001
    outer loop
      vertex -7.071068e-001 -3.800000e+001  3.207107e+000
      vertex  0.000000e+000  3.800000e+001  3.500000e+000
      vertex -7.071068e-001  3.800000e+001  3.207107e+000
    endloop
  endfacet
  facet normal -8.021228e-001  0.000000e+000  5.971591e-001
    outer loop
      vertex -7.071068e-001 -3.800000e+001  3.207107e+000
      vertex -7.071068e-001  3.800000e+001  3.207107e+000
      vertex -8.802008e-001  3.895463e-001  2.974602e+000
    endloop
  endfacet
  facet normal -9.192547e-001 -1.760625e-003  3.936594e-001
    outer loop
      vertex -7.071068e-001 -3.800000e+001  3.207107e+000
      vertex -8.802008e-001  3.895463e-001  2.974602e+000
      vertex -9.585611e-001 -1.115529e+000  2.784887e+000
    endloop
  endfacet
  facet normal -9.881778e-001 -4.982704e-003  1.532311e-001
    outer loop
      vertex -7.071068e-001 -3.800000e+001  3.207107e+000
      vertex -9.585611e-001 -1.115529e+000  2.784887e+000
      vertex -1.000000e+000 -1.658312e+000  2.500000e+000
    endloop
  endfacet
  facet normal -9.238795e-001  0.000000e+000  3.826834e-001
    outer loop
      vertex -7.071068e-001 -3.800000e+001  3.207107e+000
      vertex -1.000000e+000 -1.658312e+000  2.500000e+000
      vertex -1.000000e+000 -3.800000e+001  2.500000e+000
    endloop
  endfacet
  facet normal -9.677193e-001  2.895788e-003  2.520137e-001
    outer loop
      vertex -8.802008e-001  3.895463e-001  2.974602e+000
      vertex -7.071068e-001  3.800000e+001  3.207107e+000
      vertex -1.000000e+000  1.658312e+000  2.500000e+000
    endloop
  endfacet
  facet normal -9.238795e-001  0.000000e+000  3.826834e-001
    outer loop
      vertex -1.000000e+000  1.658312e+000  2.500000e+000
      vertex -7.071068e-001  3.800000e+001  3.207107e+000
      vertex -1.000000e+000  3.800000e+001  2.500000e+000
    endloop
  endfacet
  facet normal -3.779644e-001  1.565580e-001  9.124870e-001
    outer loop
      vertex  0.000000e+000  3.800000e+001  3.500000e+000
      vertex -5.000000e-001  3.850000e+001  3.207107e+000
      vertex -7.071068e-001  3.800000e+001  3.207107e+000
    endloop
  endfacet
  facet normal -2.346250e-001  3.058836e-001  9.227060e-001
    outer loop
      vertex  0.000000e+000  3.800000e+001  3.500000e+000
      vertex  0.000000e+000  3.859737e+001  3.301969e+000
      vertex -5.000000e-001  3.850000e+001  3.207107e+000
    endloop
  endfacet
  facet normal -3.735268e-001  9.017758e-001  2.174350e-001
    outer loop
      vertex  0.000000e+000  3.900000e+001  2.500000e+000
      vertex -7.071068e-001  3.870711e+001  2.500000e+000
      vertex  0.000000e+000  3.889011e+001  2.955735e+000
    endloop
  endfacet
  facet normal -2.617451e-001  7.370030e-001  6.231501e-001
    outer loop
      vertex  0.000000e+000  3.859737e+001  3.301969e+000
      vertex  0.000000e+000  3.889011e+001  2.955735e+000
      vertex -5.000000e-001  3.850000e+001  3.207107e+000
    endloop
  endfacet
  facet normal -4.488498e-001  8.135261e-001  3.697422e-001
    outer loop
      vertex -5.000000e-001  3.850000e+001  3.207107e+000
      vertex  0.000000e+000  3.889011e+001  2.955735e+000
      vertex -7.071068e-001  3.870711e+001  2.500000e+000
    endloop
  endfacet
  facet normal -8.628561e-001  3.574067e-001  3.574070e-001
    outer loop
      vertex -5.000000e-001  3.850000e+001  3.207107e+000
      vertex -7.071068e-001  3.870711e+001  2.500000e+000
      vertex -7.071068e-001  3.800000e+001  3.207107e+000
    endloop
  endfacet
  facet normal -8.628563e-001  3.574064e-001  3.574068e-001
    outer loop
      vertex -7.071068e-001  3.800000e+001  3.207107e+000
      vertex -7.071068e-001  3.870711e+001  2.500000e+000
      vertex -1.000000e+000  3.800000e+001  2.500000e+000
    endloop
  endfacet
  facet normal  1.000000e+000  0.000000e+000  0.000000e+000
    outer loop
      vertex  1.000000e+000  3.800000e+001 -3.500000e+000
      vertex  1.000000e+000  3.800000e+001  3.500000e+000
      vertex  1.000000e+000  5.543185e-001  2.948344e+000
    endloop
  endfacet
  facet normal  1.000000e+000  0.000000e+000  0.000000e+000
    outer loop
      vertex  1.000000e+000  3.800000e+001 -3.500000e+000
      vertex  1.000000e+000  5.543185e-001  2.948344e+000
      vertex  1.000000e+000  2.181446e+000  2.059440e+000
    endloop
  endfacet
  facet normal  1.000000e+000  0.000000e+000  0.000000e+000
    outer loop
      vertex  1.000000e+000  3.800000e+001 -3.500000e+000
      vertex  1.000000e+000  2.181446e+000  2.059440e+000
      vertex  1.000000e+000  2.975335e+000  3.839000e-001
    endloop
  endfacet
  facet normal  1.000000e+000  0.000000e+000  0.000000e+000
    outer loop
      vertex  1.000000e+000  3.800000e+001 -3.500000e+000
      vertex  1.000000e+000  2.975335e+000  3.839000e-001
      vertex  1.000000e+000  2.632748e+000 -1.438277e+000
    endloop
  endfacet
  facet normal  1.000000e+000  0.000000e+000  0.000000e+000
    outer loop
      vertex  1.000000e+000  3.800000e+001 -3.500000e+000
      vertex  1.000000e+000  2.632748e+000 -1.438277e+000
      vertex  1.000000e+000  1.284540e+000 -2.711081e+000
    endloop
  endfacet
  facet normal  1.000000e+000  0.000000e+000  0.000000e+000
    outer loop
      vertex  1.000000e+000  3.800000e+001 -3.500000e+000
      vertex  1.000000e+000  1.284540e+000 -2.711081e+000
      vertex  1.000000e+000 -5.543185e-001 -2.948344e+000
    endloop
  endfacet
  facet normal  1.000000e+000  0.000000e+000  0.000000e+000
    outer loop
      vertex  1.000000e+000  3.800000e+001 -3.500000e+000
      vertex  1.000000e+000 -5.543185e-001 -2.948344e+000
      vertex  1.000000e+000 -3.800000e+001 -3.500000e+000
    endloop
  endfacet
  facet normal  1.000000e+000  0.000000e+000  0.000000e+000
    outer loop
      vertex  1.000000e+000 -3.800000e+001  3.500000e+000
      vertex  1.000000e+000 -3.800000e+001 -3.500000e+000
      vertex  1.000000e+000 -1.284540e+000  2.711081e+000
    endloop
  endfacet
  facet normal  1.000000e+000  0.000000e+000  -0.000000e+000
    outer loop
      vertex  1.000000e+000 -3.800000e+001  3.500000e+000
      vertex  1.000000e+000 -1.284540e+000  2.711081e+000
      vertex  1.000000e+000  5.543185e-001  2.948344e+000
    endloop
  endfacet
  facet normal  1.000000e+000  0.000000e+000  -0.000000e+000
    outer loop
      vertex  1.000000e+000 -3.800000e+001  3.500000e+000
      vertex  1.000000e+000  5.543185e-001  2.948344e+000
      vertex  1.000000e+000  3.800000e+001  3.500000e+000
    endloop
  endfacet
  facet normal  1.000000e+000  0.000000e+000  0.000000e+000
    outer loop
      vertex  1.000000e+000 -3.800000e+001 -3.500000e+000
      vertex  1.000000e+000 -5.543185e-001 -2.948344e+000
      vertex  1.000000e+000 -2.181446e+000 -2.059440e+000
    endloop
  endfacet
  facet normal  1.000000e+000  0.000000e+000  0.000000e+000
    outer loop
      vertex  1.000000e+000 -3.800000e+001 -3.500000e+000
      vertex  1.000000e+000 -2.181446e+000 -2.059440e+000
      vertex  1.000000e+000 -2.975335e+000 -3.839000e-001
    endloop
  endfacet
  facet normal  9.999999e-001  0.000000e+000  -0.000000e+000
    outer loop
      vertex  1.000000e+000 -3.800000e+001 -3.500000e+000
      vertex  1.000000e+000 -2.975335e+000 -3.839000e-001
      vertex  1.000000e+000 -2.632748e+000  1.438277e+000
    endloop
  endfacet
  facet normal  1.000000e+000  0.000000e+000  -0.000000e+000
    outer loop
      vertex  1.000000e+000 -3.800000e+001 -3.500000e+000
      vertex  1.000000e+000 -2.632748e+000  1.438277e+000
      vertex  1.000000e+000 -1.284540e+000  2.711081e+000
    endloop
  endfacet
endsolid CATIA STL
